<svg xmlns="http://www.w3.org/2000/svg" viewBox="0 0 33.75 40.59"><defs><style>.cls-1{fill:#cdb2b6;}.cls-2{fill:#e0cbc0;}.cls-3{fill:#f2ecc6;}.cls-4{fill:#513162;}.cls-5{fill:#fff;}.cls-6{fill:#6e5075;}.cls-7{fill:#b99b9f;}</style></defs><g id="Layer_2" data-name="Layer 2"><g id="Layer_1-2" data-name="Layer 1"><path class="cls-1" d="M24.73,26.5a9.21,9.21,0,0,0,5,.32,4.6,4.6,0,0,0,4-4.28c.26-2-.92-11.57-.92-11.57L16.2,13.23,18.51,18s4.27,6.17,4.33,6.32S24.73,26.5,24.73,26.5Z"/><path class="cls-1" d="M1.32,8.43S-.92,14.26.43,23.26s11.79,2.06,11.79,2.06l.33-10.59s-4.34-4.29-4.67-4.39S3.31,9.25,3.31,9.25Z"/><path class="cls-2" d="M26.42,35.13a9.68,9.68,0,0,1-9.82,5.31C11.86,40,7.84,37.11,7,32.94A21.62,21.62,0,0,1,7.65,23a18.26,18.26,0,0,1,.68-1.86s1.2-1.48,2-.51a10.83,10.83,0,0,0-1,2.87,16.61,16.61,0,0,0-.21,6.62A8.54,8.54,0,0,0,13,34.32a9.49,9.49,0,0,0,7.89-.21c2.72-1.44,2.94-3.85,3.09-5.88a10.84,10.84,0,0,0-.6-4.07c-.78-2-1.75-3.93-1.75-3.93s-1.15-1.48,2.66,1a11.37,11.37,0,0,1,1.2,2.4C26.83,27.2,27.69,32.6,26.42,35.13Z"/><path class="cls-1" d="M25.46,23.64l-2.11.52c-.78-2-1.75-3.93-1.75-3.93s-1.15-1.48,2.66,1A11.37,11.37,0,0,1,25.46,23.64Z"/><path class="cls-1" d="M10.31,20.65a10.83,10.83,0,0,0-1,2.87L7.65,23a18.26,18.26,0,0,1,.68-1.86S9.53,19.68,10.31,20.65Z"/><path class="cls-2" d="M32.07,21.58a2.06,2.06,0,0,1-1,.88c-3.5,1.33-8.1-1.13-8.1-1.13A17.4,17.4,0,0,1,24.61,25a8.09,8.09,0,0,1,.19.82,1.29,1.29,0,0,1-.67,1.37c-1,.53-1.65.16-3.11-.18-1.79-.43-2.28-1.12-4-1.16-1.55,0-5.31,2.8-8.16,1.83a1.2,1.2,0,0,1-.53-.35A1.26,1.26,0,0,1,8,26.23a23.94,23.94,0,0,1,1.59-4.9C9,21.17,4.91,24,2.39,22.43l-.26-.18C-.35,20.3.36,9.74,1.32,7.49c.07-.17.15-.34.23-.51a1.14,1.14,0,0,1,.1-.19,10.89,10.89,0,0,1,5.06-5C9.34.62,14.46-.38,21,.15a16.77,16.77,0,0,1,7.79,2.27,7.55,7.55,0,0,1,2.82,3A6.54,6.54,0,0,1,32,6.48C32.89,9.88,33.92,18.64,32.07,21.58Z"/><path class="cls-3" d="M19.61,17.86c-.56-1.26-1.74-3.39-3.34-3.34S13.61,17,13.14,18.3a1.94,1.94,0,0,0,.19,2.05,1.68,1.68,0,0,0,1.91.21,3.32,3.32,0,0,0,.84-.65c.12-.14.25-.28.37-.43l.11-.13h0l.09.17a2.62,2.62,0,0,0,1.57,1.35,1.46,1.46,0,0,0,1.68-.68A2.79,2.79,0,0,0,19.61,17.86Z"/><path class="cls-4" d="M14.17,11.92a5.2,5.2,0,0,0-.24-1,4.43,4.43,0,0,0-1.12-1.77C10.49,7,6.06,7.89,4.66,10.66a4.41,4.41,0,0,0-.43,1.39,5.82,5.82,0,0,0,1.83,5,5.11,5.11,0,0,0,6,.33A5.66,5.66,0,0,0,14.17,11.92Z"/><path class="cls-4" d="M28.28,11.83a4.65,4.65,0,0,0-1.21-2.54l-.15-.15c-2.09-1.94-5.9-1.4-7.65.71a3.77,3.77,0,0,0-.5.75,5.42,5.42,0,0,0,1.4,6.27,5.19,5.19,0,0,0,6,.32A5.47,5.47,0,0,0,28.28,11.83Z"/><path class="cls-4" d="M19.56,18.29a1.62,1.62,0,0,0-.1-.18c-.34-.6-.74-1.19-1.11-1.78a3,3,0,0,0-1.12-1.21c-1.2-.59-2.05.76-2.56,1.62A8.9,8.9,0,0,0,13.48,19a1.65,1.65,0,0,0,0,.66c.18.79,1.25.85,1.86.53a2.36,2.36,0,0,0,.85-.87c.15-.25.19-.65.41-.74a.34.34,0,0,1,.22,0l.08,0c.27.18.44.77.61,1a1.67,1.67,0,0,0,1,.77,1.11,1.11,0,0,0,1.22-.71A1.71,1.71,0,0,0,19.56,18.29Z"/><path class="cls-5" d="M24.13,27.18c-1,.53-1.65.16-3.11-.18-1.79-.43-2.28-1.12-4-1.16-1.55,0-5.31,2.8-8.16,1.83a1.2,1.2,0,0,1-.53-.35c.08-.62.15-1.79.65-1.79.67,0,1.16,1.88,1.16,1.88s0-2.94,1-2.71,1.44,2.19,1.44,2.19S12.34,25,13,24.53,14.66,26,14.7,26.05c0-.08-.37-2.46.44-2.64s1.66,2.12,1.66,2.12.31-2.62,1.31-2.45,1.1,2.65,1.1,2.65.6-1.91,1.55-1.64.84,2.58.84,2.58S21.9,25,22.84,25s.79,1.73.79,1.83c0-.11.28-1.82,1-1.87a8.09,8.09,0,0,1,.19.82A1.29,1.29,0,0,1,24.13,27.18Z"/><path class="cls-5" d="M9.5,31.87s-1.07,3.42.24,3.45c1-.15.94-.75.94-.75S11,36.91,12,36.49s1-.72,1-.72.47,1.61,1.2,1.48,1-1.06,1-1.06.19,1.31,1,1.33,1.05-1.41.93-1.33.6,1.69,1.32,1.33.76-1.6.76-1.6.19,1,1.05.78,1-1.7,1-1.7.25,1,.93.72.8-1.95.8-1.95.18,1.24.81.75.51-2.92,0-3.46C22.41,33,22,33.63,19.87,34.23a13,13,0,0,1-5.84.16C11.16,33.73,10.4,31.41,9.5,31.87Z"/><path class="cls-1" d="M3.12,10.69c-.3,1.67-2.61,9.36-.64,11.77l-.09,0-.26-.18C-.35,20.3.36,9.74,1.32,7.49c.07-.17.15-.34.23-.51C2.08,7.62,3.37,9.36,3.12,10.69Z"/><path class="cls-1" d="M32.07,21.58c.79-2.8-2.64-9.39-2.35-11.73A5.09,5.09,0,0,1,32,6.48C32.89,9.88,33.92,18.64,32.07,21.58Z"/><path class="cls-6" d="M28.28,11.83a4.65,4.65,0,0,0-1.21-2.54c.14.41.34.81.44,1.23a8.15,8.15,0,0,1,.25,1.84c0,1.07-.2,2.23-1.39,2.51s-2.43-.28-3.63-.29a12,12,0,0,1-2,0,2.24,2.24,0,0,1-1.24-.72,2.57,2.57,0,0,1-.64-1.48,4.09,4.09,0,0,1,0-1c0-.21.07-.42.11-.64a.8.8,0,0,0,.08-.16.19.19,0,0,0,0-.19,2.05,2.05,0,0,1,.16-.41.23.23,0,0,0,0-.18,3.77,3.77,0,0,0-.5.75,5.42,5.42,0,0,0,1.4,6.27,5.19,5.19,0,0,0,6,.32A5.47,5.47,0,0,0,28.28,11.83Z"/><path class="cls-6" d="M14.17,11.92a5.2,5.2,0,0,0-.24-1,.24.24,0,0,0-.21.31,3.56,3.56,0,0,1-.42,3.14,1.84,1.84,0,0,1-1.16.7,2.36,2.36,0,0,1-1.27-.27,5,5,0,0,0-2.52-.75A4.71,4.71,0,0,0,7,14.56a1.28,1.28,0,0,1-1.33,0,3.2,3.2,0,0,1-.94-1.32,13.31,13.31,0,0,1-.49-1.24,5.82,5.82,0,0,0,1.83,5,5.11,5.11,0,0,0,6,.33A5.66,5.66,0,0,0,14.17,11.92Z"/><path class="cls-6" d="M19.69,19.72a1.11,1.11,0,0,1-1.22.71,1.67,1.67,0,0,1-1-.77c-.17-.24-.34-.83-.61-1a.28.28,0,0,0-.09-.07.17.17,0,0,0-.21,0c-.22.09-.26.49-.41.74a2.36,2.36,0,0,1-.85.87c-.61.32-1.68.26-1.86-.53a1.65,1.65,0,0,1,0-.66.21.21,0,0,1,.13.05c.26.21.37.52.71.66a.86.86,0,0,0,.93-.16c.31-.28.3-.72.45-1.09a1.18,1.18,0,0,1,.77-.74c.86-.22,1.28.77,1.63,1.35.16.26.38.5.7.4s.28-.56.34-.87a.37.37,0,0,1,.42-.33A1.71,1.71,0,0,1,19.69,19.72Z"/><path class="cls-1" d="M10.74,22.58a.36.36,0,0,0-.29-.2c-.47,0-.64.48-.78.85a1.39,1.39,0,0,0-.06,1.24.34.34,0,0,0,.48,0c.26-.25.27-.64.4-1S10.91,22.93,10.74,22.58Z"/><path class="cls-1" d="M13.1,22.19a.39.39,0,0,0-.69-.14,2.16,2.16,0,0,0-.26.71c-.08.23-.17.46-.24.69a.36.36,0,0,0,.63.33A3.1,3.1,0,0,0,13,23,1.41,1.41,0,0,0,13.1,22.19Z"/><path class="cls-1" d="M14.51,22.1a.24.24,0,0,0-.36-.1.93.93,0,0,0-.29.41,1.72,1.72,0,0,0-.17.48.32.32,0,0,0,.57.22,1.24,1.24,0,0,0,.2-.47A1,1,0,0,0,14.51,22.1Z"/><path class="cls-1" d="M17,22.48A2.84,2.84,0,0,0,16.46,21a.36.36,0,0,0-.6.11,2.94,2.94,0,0,0,.15,1.6A.49.49,0,0,0,17,22.48Z"/><path class="cls-1" d="M19.75,21.85c-.17-.26-.41-.57-.74-.6a.34.34,0,0,0-.37.39,1.91,1.91,0,0,0,.35.66c.12.22.16.46.27.68a.44.44,0,0,0,.82-.18A1.9,1.9,0,0,0,19.75,21.85Z"/><path class="cls-1" d="M22.45,22.9a3.53,3.53,0,0,0-1-1.19c-.23-.15-.64,0-.55.35a6.79,6.79,0,0,0,.67,1.35C21.88,24,22.79,23.46,22.45,22.9Z"/><path class="cls-1" d="M23.12,23a.34.34,0,0,0-.32-.18c-.13,0-.19.15-.16.26a.3.3,0,0,0,.06.11l0,0h0a1.33,1.33,0,0,0,.09.21.22.22,0,0,0,.37,0A.41.41,0,0,0,23.12,23Z"/><path class="cls-1" d="M27.82,6.05a8.17,8.17,0,0,0-5.21-1.93c-2.05,0-4,.89-6.06.71a25.62,25.62,0,0,1-3-.66A10.48,10.48,0,0,0,10.86,4,11.57,11.57,0,0,0,5.73,5.43a10.38,10.38,0,0,0-1.24.84,2.44,2.44,0,0,0-1,1.09.81.81,0,0,0,.65,1,.78.78,0,0,0,.66-.14s.05,0,.08,0A10.2,10.2,0,0,1,6.91,7,7.16,7.16,0,0,1,9.29,6.5a6.91,6.91,0,0,1,2.35.3A15.49,15.49,0,0,1,14,7.88a4.83,4.83,0,0,0,2.46.61A6.43,6.43,0,0,0,19,7.61a8.66,8.66,0,0,1,2.56-.89,8.62,8.62,0,0,1,2.73,0,7.88,7.88,0,0,1,1.53.43,2,2,0,0,0,1.4.19.93.93,0,0,0,.6-.75A.38.38,0,0,0,27.82,6.05Z"/><path class="cls-3" d="M21,.15C14.46-.38,9.34.62,6.71,1.82a10.89,10.89,0,0,0-5.06,5,.3.3,0,0,0,.29,0,.4.4,0,0,0,.35-.32A12.78,12.78,0,0,1,6.6,3.71a14.24,14.24,0,0,1,6-.74,56.61,56.61,0,0,0,6.64.25c2.24-.15,4.46-.52,6.69-.7a25.63,25.63,0,0,1,2.9-.1A16.77,16.77,0,0,0,21,.15Z"/><path class="cls-7" d="M32.41,19.25A19.59,19.59,0,0,0,32,16.52a26.7,26.7,0,0,0-.76-2.75,20.29,20.29,0,0,1-.74-2.56A4.32,4.32,0,0,1,32,6.67c.21-.15,0-.47-.24-.37a3.85,3.85,0,0,0-2,3.34c-.15,1.72.56,3.37,1.06,5a24.37,24.37,0,0,1,.66,2.68,12.06,12.06,0,0,1,.28,2.61,3,3,0,0,1-.78,2,3.38,3.38,0,0,1-1.75.92,8.74,8.74,0,0,1-6-1.78c-.82-.54-.17.69,0,1,.25.56.51,1.11.73,1.67s.32.85.47,1.28a1.71,1.71,0,0,0-.71.77l0-.06c-.09-.4-.27-.89-.73-1a1.21,1.21,0,0,0-1.2.79,5.93,5.93,0,0,0-.16-.73c-.12-.4-.31-.92-.78-1s-.86.44-1.08.82a3.33,3.33,0,0,0-.25.5,8.84,8.84,0,0,0-.25-.88c-.18-.53-.43-1.22-1.07-1.31a1.17,1.17,0,0,0-1.16.86,5,5,0,0,0-.31,1.06v0a7.55,7.55,0,0,0-.39-.91.89.89,0,0,0-1-.59,1.18,1.18,0,0,0-.79,1,3.29,3.29,0,0,0,0,.83.28.28,0,0,0,0,.09l-.18-.3c-.26-.39-.66-.87-1.18-.73s-.66.65-.74,1.09a3.5,3.5,0,0,0-.06.48l-.23-.66c-.16-.47-.53-.9-1.07-.69A1.81,1.81,0,0,0,10,25.77a4.32,4.32,0,0,0-.11.88l0,0a2.5,2.5,0,0,0-.48-1,.57.57,0,0,0-.81,0c.05-.38.12-.76.2-1.14s.24-1.06.39-1.58.38-1.05.52-1.59a.29.29,0,0,0-.37-.42,16,16,0,0,1-4.48,1.38c-.69.11-1.5.22-2-.4a4.22,4.22,0,0,1-.63-1.8,14.44,14.44,0,0,1-.09-4.73A16.16,16.16,0,0,1,2.7,13a19.94,19.94,0,0,0,.66-2.25A3.05,3.05,0,0,0,2.05,7.37c-.21-.1-.37.22-.19.35,1.22.86,1.06,2.54.67,3.78C2.29,12.26,2,13,1.8,13.77a15,15,0,0,0-.05,7.17,3.15,3.15,0,0,0,.81,1.58,2.35,2.35,0,0,0,2,.49,14.06,14.06,0,0,0,2.87-.66,19.3,19.3,0,0,0-1.18,4.82,15.25,15.25,0,0,0,.19,5.13,10.69,10.69,0,0,0,2,4.34,10.43,10.43,0,0,0,3.39,2.72,12.62,12.62,0,0,0,9.58.54,8.93,8.93,0,0,0,4.11-2.4,7.3,7.3,0,0,0,1.57-4.09,19.5,19.5,0,0,0-.31-5.55,22.71,22.71,0,0,0-1.52-4.93,7.35,7.35,0,0,0,3.22.69A4.13,4.13,0,0,0,32,21.71,4.44,4.44,0,0,0,32.41,19.25Zm-8.64,7a2.19,2.19,0,0,1,.23-.49,2.23,2.23,0,0,1,.49-.48,6.91,6.91,0,0,0,.24.81l0,0a1.45,1.45,0,0,1-1,.78A1.14,1.14,0,0,0,23.77,26.26ZM23,32.73l.05-.07a6,6,0,0,0,.75-1.5c.05.23.12.47.16.69a5,5,0,0,1,.1,1.15,3.37,3.37,0,0,1-.14,1c-.06.18-.2.41-.42.43s-.3-.21-.34-.39c0,0,0,0,0,0A2.84,2.84,0,0,0,23,32.73Zm-1.21-6c0-.1,0-.21,0-.32a2.36,2.36,0,0,1,.22-.63c.15-.27.47-.74.82-.68s.41.61.46.9a3.54,3.54,0,0,0,.11.93,4.86,4.86,0,0,1-1.62-.18Zm-2.22-.88,0-.1c.09-.23.17-.45.28-.67s.47-.95.83-.91.47.77.53,1.05a6.06,6.06,0,0,1,.12,1.41c-.63-.18-1.24-.42-1.87-.61A.36.36,0,0,0,19.57,25.88ZM17,25.19a5.93,5.93,0,0,1,.21-.83c.14-.4.42-1.26,1-1s.62,1,.74,1.42a6.93,6.93,0,0,1,.17.79,1.06,1.06,0,0,0,.08.37l-.61-.15a6.05,6.05,0,0,0-1.69-.12A2.5,2.5,0,0,0,17,25.19Zm-1.85-1.36c.81-.61,1.19,1.34,1.38,1.89a7.2,7.2,0,0,0-1.28.3l-.49.19C15.05,25.48,14.43,24.35,15.14,23.83Zm-2.48,2c0-.39,0-1.07.45-1.27s.85.5,1,.81a2.52,2.52,0,0,1,.21.54,1.2,1.2,0,0,0,.13.39l-1.75.74C12.73,26.67,12.63,26.26,12.66,25.86Zm-1.72-1c.62-.48.81.54.93.94s.26,1,.42,1.41l-.42.15a6,6,0,0,1-1.59.26C10.29,26.75,10.16,25.46,10.94,24.87Zm.36,3.2a21.44,21.44,0,0,0,3.63-1.36,7.4,7.4,0,0,1,1.9-.5,5.5,5.5,0,0,1,1.89.18c1.16.29,2.25.8,3.43,1a4.53,4.53,0,0,0,1.6.05c0,.27,0,.55,0,.82a12.3,12.3,0,0,1-.12,1.35,6.51,6.51,0,0,1-.69,2.19,4.91,4.91,0,0,1-3.66,2.37c-2.94.57-6.37.22-8.51-2.09a5.86,5.86,0,0,1-1.23-2,4.94,4.94,0,0,1-.3-1.08c-.06-.34-.07-.69-.12-1A4.76,4.76,0,0,0,11.3,28.07Zm11.47,5.48a4.47,4.47,0,0,1-.13,1,1.1,1.1,0,0,1-.52.75c-.43.22-.67-.09-.77-.47a.1.1,0,0,0-.09-.07,4.08,4.08,0,0,0-.09-.61,4.91,4.91,0,0,0,1.56-1.13A4.21,4.21,0,0,1,22.77,33.55Zm-3.48,1.22a8.31,8.31,0,0,0,1.55-.44A2.2,2.2,0,0,1,20.65,36a.79.79,0,0,1-1.28.11A3,3,0,0,0,19.29,34.77ZM19,36.17a1.47,1.47,0,0,1-.49,1c-.52.38-.9-.1-1-.59a2,2,0,0,1-.05-.24A2.73,2.73,0,0,0,17.39,35a12.16,12.16,0,0,0,1.48-.15h.05c0,.09,0,.18.07.27a3.07,3.07,0,0,1,.05.68.07.07,0,0,0,0,.06A.69.69,0,0,0,19,36.17Zm-1.93.18a1.08,1.08,0,0,1-.48.66.7.7,0,0,1-1-.23,5.23,5.23,0,0,1-.27-1.17l0,0c.05-.22.09-.43.12-.64A11.86,11.86,0,0,0,17,35a1.49,1.49,0,0,0,0,.21A3.07,3.07,0,0,0,17.07,36.35ZM15.16,34.9A4.84,4.84,0,0,1,14.88,36c-.14.35-.46,1.12-.94.92s-.66-.83-.78-1.23a6.66,6.66,0,0,1-.2-1.4c.27.11.54.21.81.29A11.1,11.1,0,0,0,15.16,34.9Zm-4.22-1.82a7.36,7.36,0,0,0,1.7,1.09,2.61,2.61,0,0,0,0,1.44,1.38,1.38,0,0,1-.53.54c-.46.17-.81-.35-.94-.71A4.26,4.26,0,0,1,11,34.12,9.07,9.07,0,0,0,10.94,33.08ZM9.92,32a6.13,6.13,0,0,0,.76.84,3.18,3.18,0,0,0-.13,1.65,2.29,2.29,0,0,0,0,.25h0c-.22.27-.42.58-.82.39a1,1,0,0,1-.42-1.07c.1-.76.39-1.51.45-2.27ZM9,25.79c.29,0,.37.36.46.6a7.24,7.24,0,0,1,.24.75c0,.15,0,.31.08.47a4.65,4.65,0,0,1-1.33-.34,2.44,2.44,0,0,1,0-.27q0-.42.06-.84C8.65,26,8.76,25.77,9,25.79Zm17.58,6.3a8.66,8.66,0,0,1-.93,4.19A6.66,6.66,0,0,1,22.11,39a12.41,12.41,0,0,1-9.26.16,9.74,9.74,0,0,1-5.69-6.26,14.15,14.15,0,0,1-.42-5.34,22.1,22.1,0,0,1,.49-2.91c.2-.83.44-1.66.61-2.5a13.21,13.21,0,0,0,1.34-.58,9.55,9.55,0,0,0-.43,1.12,12.92,12.92,0,0,0-.48,1.75,17.66,17.66,0,0,0-.39,2.25.93.93,0,0,0,.23.76,4.09,4.09,0,0,0,.66.45A3.94,3.94,0,0,0,8.89,30a5.82,5.82,0,0,0,.63,1.39.18.18,0,0,0,0,.07,10.55,10.55,0,0,0-.5,2,2.12,2.12,0,0,0,.09,1.66,1.09,1.09,0,0,0,1.13.51,1,1,0,0,0,.5-.32,2.09,2.09,0,0,0,.37.8,1,1,0,0,0,1.2.4,1.13,1.13,0,0,0,.53-.48c.19.5.51,1.2,1.07,1.35s.91-.32,1.1-.73l.13-.31a1.13,1.13,0,0,0,1.4,1.14,1.28,1.28,0,0,0,.72-.55,1,1,0,0,0,1.18.71,1.44,1.44,0,0,0,.88-1.06,1,1,0,0,0,.22.14,1.07,1.07,0,0,0,1.05-.1,1.52,1.52,0,0,0,.69-1.1.91.91,0,0,0,.21.18,1,1,0,0,0,1.14-.19A1.59,1.59,0,0,0,23,34.7a.8.8,0,0,0,.26.16.91.91,0,0,0,1-.68,4.48,4.48,0,0,0,.13-1.71,3,3,0,0,0-.52-1.72,6.23,6.23,0,0,0,.15-.62,12.37,12.37,0,0,0,.18-1.49,8.67,8.67,0,0,0,0-1.35,5.63,5.63,0,0,0,.88-.95,2.71,2.71,0,0,0-.27-1.52c-.15-.45-.31-.89-.48-1.33s-.32-.8-.5-1.2l.59.3A22.46,22.46,0,0,1,26.61,32.09Z"/><path class="cls-3" d="M7.49,19.28c-.4-.39-1.42-.47-1.78-.6a2.86,2.86,0,0,1-1.48-1.19,1.34,1.34,0,0,0-.53-.62c-1-.47-1,1-.84,1.5a3.05,3.05,0,0,0,1.4,2c.76.45,2.67.7,3.24-.23C7.73,19.73,7.68,19.47,7.49,19.28Z"/><path class="cls-3" d="M23.71,20.66a2.06,2.06,0,0,0,.57.39c1.13.56,3.06,1,4.27.43s1.51-2.22,1.57-3.34l.09-.29a1.56,1.56,0,0,0-.07-1.38,1,1,0,0,0-1.21-.35,2.1,2.1,0,0,0-.8.94,4.36,4.36,0,0,1-2.22,1.79c-.68.24-1.51.09-2.13.47S23.29,20.25,23.71,20.66Z"/><path class="cls-5" d="M28.69,19.63l-.07-.1a.33.33,0,0,0-.23-.12c-.32-.06-.67.38-.95.51a2,2,0,0,1-.59.15,3.75,3.75,0,0,1-.82,0,5.15,5.15,0,0,0-1-.12c-.34,0-.63.5-.25.71A3.94,3.94,0,0,0,27.1,21a2.14,2.14,0,0,0,1.57-.9A.44.44,0,0,0,28.69,19.63Z"/><path class="cls-5" d="M22.39,1.09A3.6,3.6,0,0,0,20.86.8c-.49-.05-1-.09-1.48-.12-1-.06-2.05-.08-3.07-.06s-2,.07-3.07.17c-.49,0-1,.1-1.46.17-.24,0-.48.08-.72.13a1,1,0,0,0-.61.27.24.24,0,0,0,0,.33c.35.22.92.08,1.32.05L13.3,1.6c1-.07,2-.11,3-.12s2,0,3,.08l1.48.11a4.42,4.42,0,0,0,1.49.08C22.53,1.67,22.69,1.26,22.39,1.09Z"/><path class="cls-5" d="M25.25,1.46A.35.35,0,0,0,25,1.34a.29.29,0,0,0-.18,0,.41.41,0,0,0-.14.12.36.36,0,0,0-.07.17.51.51,0,0,0,0,.17h0a.32.32,0,0,0,.2.18.34.34,0,0,0,.31,0,.38.38,0,0,0,.17-.27A.38.38,0,0,0,25.25,1.46Z"/></g></g></svg>