<svg width="1081" height="169" viewBox="0 0 1081 169" fill="none" xmlns="http://www.w3.org/2000/svg">
<path d="M19.68 51.9201H425.79C432.42 51.9201 440.67 44.74 442.25 36.63L442.47 35.72L444.77 14.06C445.074 11.2782 446.129 8.63157 447.822 6.40327C449.515 4.17498 451.782 2.44898 454.38 1.41005C456.756 0.475325 459.287 -0.00306516 461.84 1.47774e-05H621.67C625.495 0.0174623 629.185 1.41495 632.062 3.93556C634.939 6.45618 636.81 9.93057 637.33 13.72L640.25 43.33L641.61 46.01C645.35 50.2 651.21 51.9201 656.95 51.9201H1060.39C1071.27 51.9201 1080.08 60.4201 1080.08 70.9201V149.79C1080.08 160.27 1071.27 168.79 1060.39 168.79H19.68C8.81001 168.79 0 160.3 0 149.79V70.89C0 60.42 8.81001 51.9201 19.68 51.9201Z" fill="#232A44"/>
</svg>
