<svg width="259" height="105" viewBox="0 0 259 105" fill="none" xmlns="http://www.w3.org/2000/svg">
<path d="M249.02 1H9.53C4.81901 1 1 4.81903 1 9.53001V95.16C1 99.871 4.81901 103.69 9.53 103.69H249.02C253.731 103.69 257.55 99.871 257.55 95.16V9.53001C257.55 4.81903 253.731 1 249.02 1Z" fill="#232A44" stroke="#3C4359" stroke-width="2" stroke-miterlimit="10"/>
<mask id="mask0_6_159619" style="mask-type:luminance" maskUnits="userSpaceOnUse" x="1" y="1" width="257" height="103">
<path d="M249.02 1H9.53C4.81901 1 1 4.81903 1 9.53001V95.16C1 99.871 4.81901 103.69 9.53 103.69H249.02C253.731 103.69 257.55 99.871 257.55 95.16V9.53001C257.55 4.81903 253.731 1 249.02 1Z" fill="white"/>
</mask>
<g mask="url(#mask0_6_159619)">
<path d="M249.02 1H9.53C4.81901 1 1 4.81903 1 9.53001V95.16C1 99.871 4.81901 103.69 9.53 103.69H249.02C253.731 103.69 257.55 99.871 257.55 95.16V9.53001C257.55 4.81903 253.731 1 249.02 1Z" fill="#2A314D" stroke="#333D5E" stroke-width="2" stroke-miterlimit="10"/>
<g opacity="0.56">
<path d="M191.298 32.9899C191.428 31.9399 192.108 31.1499 192.848 31.2399L200.248 32.1199C200.978 32.2099 201.468 33.1199 201.338 34.1799C201.208 35.2399 200.528 36.0099 199.798 35.9199L192.388 35.0499C191.658 34.9599 191.218 34.0399 191.298 32.9899Z" fill="#242A43"/>
<g style="mix-blend-mode:screen">
<path d="M192.509 34.02C192.418 33.8886 192.355 33.7404 192.322 33.5842C192.29 33.4279 192.288 33.2667 192.319 33.11C192.324 32.9454 192.365 32.7839 192.439 32.637C192.513 32.4901 192.619 32.3614 192.749 32.26L200.129 33.14C200.311 33.4095 200.38 33.7403 200.319 34.06C200.312 34.2207 200.272 34.3782 200.201 34.5227C200.131 34.6673 200.031 34.7957 199.909 34.9L192.509 34.02Z" fill="#242A43"/>
</g>
<path d="M109.419 16.7999C107.349 15.4799 106.419 13.2299 107.329 11.7999L116.719 -2.82008C117.629 -4.26008 120.059 -4.34008 122.129 -3.01008C124.199 -1.68008 125.129 0.559917 124.219 1.98992L114.839 16.6099C113.919 18.0499 111.489 18.1299 109.419 16.7999Z" fill="#242A43"/>
<g style="mix-blend-mode:screen" opacity="0.6">
<path d="M112.409 16.72C111.542 16.6922 110.7 16.422 109.979 15.94C109.201 15.4663 108.585 14.7694 108.209 13.94C108.082 13.696 108.016 13.4251 108.016 13.15C108.016 12.8749 108.082 12.6039 108.209 12.36L117.589 -2.27002C117.777 -2.4971 118.017 -2.675 118.289 -2.78827C118.56 -2.90154 118.856 -2.94675 119.149 -2.92001C120.02 -2.89739 120.866 -2.6268 121.589 -2.14001C122.362 -1.66122 122.978 -0.96574 123.359 -0.140012C123.481 0.107319 123.544 0.37931 123.544 0.654986C123.544 0.930663 123.481 1.20265 123.359 1.44998L113.969 16.07C113.783 16.2991 113.543 16.4785 113.271 16.5919C112.999 16.7054 112.703 16.7494 112.409 16.72Z" fill="#242A43"/>
</g>
<path d="M130.221 66.53C131.811 67.22 132.721 68.66 132.221 69.76L127.401 80.99C126.931 82.09 125.251 82.43 123.661 81.75C122.071 81.07 121.161 79.62 121.661 78.52L126.481 67.29C126.971 66.19 128.641 65.85 130.221 66.53Z" fill="#242A43"/>
<g style="mix-blend-mode:screen" opacity="0.7">
<path d="M125.35 81.0701C124.922 81.066 124.5 80.9741 124.11 80.8001C123.572 80.5886 123.112 80.219 122.79 79.7401C122.704 79.6238 122.644 79.4903 122.615 79.3487C122.585 79.2072 122.587 79.0609 122.62 78.9201L127.44 67.7001C127.569 67.5223 127.745 67.3829 127.947 67.2966C128.149 67.2103 128.371 67.1805 128.59 67.2101C129.017 67.2142 129.439 67.3061 129.83 67.4801C130.365 67.6943 130.825 68.0633 131.15 68.5401C131.232 68.6559 131.289 68.7881 131.317 68.9278C131.345 69.0675 131.342 69.2115 131.31 69.3501L126.49 80.5901C126.37 80.8801 125.92 81.0701 125.35 81.0701Z" fill="#242A43"/>
</g>
<path d="M216.561 70.76C215.021 71.64 213.271 71.49 212.671 70.42L206.441 59.54C205.831 58.48 206.591 56.89 208.131 56.01C209.671 55.13 211.411 55.28 212.031 56.35L218.221 67.23C218.861 68.29 218.111 69.87 216.561 70.76Z" fill="#242A43"/>
<g style="mix-blend-mode:screen">
<path d="M214.532 70.3C214.345 70.3258 214.156 70.3035 213.981 70.2352C213.806 70.167 213.651 70.055 213.532 69.91L207.312 59.03C207.022 58.54 207.522 57.53 208.612 56.91C209.071 56.6304 209.594 56.4753 210.132 56.46C210.319 56.4323 210.51 56.4547 210.686 56.525C210.861 56.5953 211.015 56.7109 211.132 56.86L217.362 67.74C217.642 68.23 217.142 69.24 216.062 69.86C215.598 70.1369 215.071 70.2886 214.532 70.3Z" fill="#242A43"/>
</g>
<path d="M58.8899 51.18C57.8199 50.52 57.3299 49.38 57.7899 48.64L62.5099 41.09C62.9699 40.35 64.2099 40.29 65.2799 40.96C66.3499 41.63 66.8399 42.77 66.3799 43.51L61.6599 51.06C61.2199 51.79 59.9599 51.85 58.8899 51.18Z" fill="#242A43"/>
<g style="mix-blend-mode:screen">
<path d="M60.3998 50.62C60.044 50.6124 59.6975 50.505 59.3998 50.31C59.088 50.1269 58.8374 49.8555 58.6798 49.53C58.6201 49.4237 58.6023 49.2988 58.6298 49.18L63.3498 41.64C63.3498 41.64 63.4998 41.52 63.7298 41.52C64.0847 41.5327 64.4299 41.6397 64.7298 41.83C65.0423 42.0168 65.2927 42.2916 65.4498 42.62C65.4737 42.6753 65.4861 42.7348 65.4861 42.795C65.4861 42.8552 65.4737 42.9148 65.4498 42.97L60.7298 50.51C60.7598 50.56 60.6398 50.62 60.3998 50.62Z" fill="#242A43"/>
</g>
<path d="M186.871 9.53996C184.481 9.76996 182.421 8.61995 182.261 6.96995L180.642 -9.87003C180.492 -11.53 182.302 -13.04 184.642 -13.27C186.982 -13.5 189.091 -12.35 189.241 -10.7L190.862 6.13997C191.062 7.78997 189.221 9.35996 186.871 9.53996Z" fill="#242A43"/>
<g style="mix-blend-mode:screen" opacity="0.6">
<path d="M186.27 8.54001C184.68 8.54001 183.37 7.81003 183.27 6.87003L181.66 -9.96998C181.665 -10.2338 181.73 -10.4929 181.852 -10.7271C181.973 -10.9613 182.147 -11.1642 182.36 -11.32C183.055 -11.8594 183.893 -12.1828 184.77 -12.25C184.937 -12.2598 185.104 -12.2598 185.27 -12.25C186.85 -12.25 188.16 -11.52 188.27 -10.58L189.89 6.26001C189.884 6.52349 189.818 6.78209 189.696 7.01605C189.575 7.25002 189.402 7.45318 189.19 7.61002C188.494 8.14786 187.657 8.47105 186.78 8.54001H186.27Z" fill="#242A43"/>
</g>
<path d="M226.62 60.3601C226.11 58.3601 226.81 56.4901 228.17 56.1401L242.17 52.5601C243.54 52.2001 245.06 53.5601 245.56 55.5001C246.06 57.4401 245.37 59.3701 244 59.7301L230 63.3001C228.64 63.6801 227.12 62.3601 226.62 60.3601Z" fill="#242A43"/>
<g style="mix-blend-mode:screen" opacity="0.7">
<path d="M229.562 62.3601C228.882 62.3601 227.972 61.5301 227.612 60.1301C227.421 59.4371 227.438 58.7032 227.662 58.0201C227.762 57.7501 227.992 57.2701 228.432 57.1701L242.432 53.5801H242.632C243.312 53.5801 244.222 54.4101 244.582 55.8101C244.942 57.2101 244.462 58.6001 243.762 58.8101L229.762 62.3901L229.562 62.3601Z" fill="#242A43"/>
</g>
<path d="M146.329 93.9001C146.889 92.2401 148.279 91.2101 149.429 91.5901L161.139 95.5901C162.279 95.9801 162.749 97.6401 162.189 99.3001C161.629 100.96 160.249 101.99 159.099 101.6L147.399 97.6C146.219 97.21 145.769 95.5501 146.329 93.9001Z" fill="#242A43"/>
<g style="mix-blend-mode:screen" opacity="0.8">
<path d="M159.611 100.62C159.555 100.631 159.497 100.631 159.441 100.62L147.721 96.6201C147.592 96.549 147.48 96.4502 147.394 96.331C147.307 96.2117 147.248 96.0748 147.221 95.9301C147.078 95.364 147.109 94.768 147.311 94.22C147.671 93.16 148.411 92.5301 148.921 92.5301C148.98 92.5196 149.041 92.5196 149.101 92.5301L160.811 96.5301C161.121 96.6301 161.271 97.0401 161.321 97.2101C161.46 97.7799 161.428 98.3778 161.231 98.9301C160.861 99.9801 160.121 100.62 159.611 100.62Z" fill="#242A43"/>
</g>
<path d="M164.741 51.36C164.231 53.12 162.831 54.26 161.611 53.91L149.221 50.23C148.001 49.87 147.431 48.15 147.941 46.39C148.451 44.63 149.861 43.49 151.081 43.84L163.521 47.47C164.691 47.83 165.221 49.55 164.741 51.36Z" fill="#242A43"/>
<g style="mix-blend-mode:screen" opacity="0.6">
<path d="M162.059 52.8901H161.889L149.459 49.2601C148.879 49.0901 148.509 47.9601 148.879 46.7001C149.249 45.4401 150.009 44.8301 150.569 44.8301H150.739L163.219 48.4601C163.559 48.5601 163.739 48.9601 163.819 49.1901C163.999 49.7868 163.999 50.4233 163.819 51.0201C163.409 52.1901 162.629 52.8901 162.059 52.8901Z" fill="#242A43"/>
</g>
<g style="mix-blend-mode:screen" opacity="0.6">
<path d="M149.87 48.2899C149.72 47.8625 149.72 47.3972 149.87 46.9698C149.971 46.5262 150.226 46.1329 150.59 45.8599L162.77 49.4099C162.772 49.4432 162.772 49.4765 162.77 49.5099C162.894 49.9071 162.894 50.3326 162.77 50.7299C162.675 51.1709 162.427 51.5642 162.07 51.8399L149.87 48.2899Z" fill="#242A43"/>
</g>
<path d="M210.219 41.0601C210.399 39.4801 211.429 38.3101 212.509 38.4301L223.609 39.6901C224.699 39.8101 225.439 41.1901 225.259 42.7601C225.079 44.3301 224.059 45.5101 222.969 45.3901L211.869 44.1301C210.809 44.0001 210.069 42.6301 210.219 41.0601Z" fill="#242A43"/>
<g style="mix-blend-mode:screen">
<path d="M212.02 43.0999C211.63 43.0999 211.15 42.29 211.28 41.17C211.41 40.05 212 39.45 212.39 39.45L223.52 40.71C223.91 40.71 224.39 41.53 224.27 42.64C224.15 43.75 223.53 44.36 223.15 44.36L212.02 43.0999Z" fill="#242A43"/>
</g>
<path d="M115.922 104.54C115.072 103.54 114.922 102.24 115.652 101.65L122.772 95.6501C123.472 95.0601 124.772 95.4001 125.582 96.4201C126.392 97.4401 126.582 98.7201 125.852 99.3001L118.722 105.3C118.022 105.9 116.772 105.55 115.922 104.54Z" fill="#242A43"/>
<g style="mix-blend-mode:screen">
<path d="M117.881 104.57C117.65 104.539 117.427 104.462 117.226 104.343C117.026 104.225 116.85 104.067 116.711 103.88C116.46 103.599 116.294 103.252 116.231 102.88C116.216 102.811 116.215 102.74 116.228 102.672C116.242 102.603 116.27 102.537 116.311 102.48L123.441 96.48C123.499 96.4595 123.563 96.4595 123.621 96.48C123.853 96.5102 124.076 96.5868 124.277 96.7054C124.478 96.824 124.653 96.982 124.791 97.17C125.042 97.4515 125.209 97.7981 125.271 98.17C125.285 98.2387 125.285 98.3094 125.271 98.3781C125.257 98.4467 125.23 98.512 125.191 98.57L118.061 104.57C118.003 104.589 117.94 104.589 117.881 104.57Z" fill="#242A43"/>
</g>
<path d="M225.289 5.65987C225.409 3.83987 226.529 2.43987 227.789 2.51987L240.619 3.37987C241.869 3.45987 242.789 4.99985 242.669 6.81985C242.549 8.63985 241.429 10.0399 240.179 9.95987L227.349 9.09985C226.089 9.01985 225.219 7.47987 225.289 5.65987Z" fill="#242A43"/>
<g style="mix-blend-mode:screen" opacity="0.8">
<path d="M227.412 8.08005C226.822 8.08005 226.232 7.02004 226.322 5.73004C226.412 4.44004 227.102 3.54004 227.682 3.54004L240.552 4.41005C241.132 4.41005 241.732 5.41006 241.642 6.75006C241.552 8.09006 240.852 8.94003 240.282 8.94003L227.412 8.08005Z" fill="#242A43"/>
</g>
<path d="M62.4009 66.54C61.8609 65.43 62.0309 64.23 62.7909 63.85L70.5809 59.9801C71.3409 59.6101 72.4109 60.1901 72.9609 61.3001C73.5109 62.4101 73.3309 63.6001 72.5609 63.9801L64.7809 67.85C64.0109 68.23 62.9509 67.64 62.4009 66.54Z" fill="#242A43"/>
<g style="mix-blend-mode:screen" opacity="0.8">
<path d="M64.2796 66.9399C64.0565 66.8866 63.8493 66.7807 63.6753 66.6311C63.5014 66.4815 63.3657 66.2926 63.2796 66.0799C62.9396 65.3899 63.0996 64.8299 63.2096 64.7699L70.9996 60.9099C71.2241 60.9566 71.4333 61.0589 71.608 61.2074C71.7827 61.3559 71.9174 61.5459 71.9996 61.7599C72.3396 62.4499 72.1896 62.9999 72.0696 63.0599L64.2796 66.9299V66.9399Z" fill="#242A43"/>
</g>
<path d="M82.621 24.2101C81.881 23.3301 81.781 22.2101 82.391 21.7101L88.581 16.5601C89.181 16.0501 90.271 16.35 91.001 17.23C91.731 18.11 91.821 19.23 91.221 19.73L85.031 24.88C84.431 25.36 83.341 25.0801 82.621 24.2101Z" fill="#242A43"/>
<g style="mix-blend-mode:screen" opacity="0.8">
<path d="M84.3094 24.0999C84.13 24.0738 83.9577 24.0117 83.803 23.9171C83.6483 23.8226 83.5144 23.6977 83.4094 23.5499C83.2686 23.4173 83.1622 23.2524 83.0995 23.0694C83.0368 22.8864 83.0196 22.691 83.0494 22.4999L89.2194 17.3599C89.4062 17.3763 89.5873 17.4319 89.7511 17.5233C89.9148 17.6146 90.0573 17.7396 90.1694 17.8899C90.3103 18.0245 90.4167 18.1912 90.4794 18.3757C90.542 18.5603 90.5592 18.7572 90.5294 18.9499L84.3394 24.0999H84.3094Z" fill="#242A43"/>
</g>
<path d="M-3.49964 49.57C-3.18964 48.57 -2.37965 47.94 -1.68965 48.14L5.31035 50.3C6.00035 50.51 6.31035 51.49 6.01035 52.49C5.71035 53.49 4.90035 54.13 4.20035 53.92L-2.79964 51.76C-3.48964 51.55 -3.77964 50.57 -3.49964 49.57Z" fill="#242A43"/>
<g style="mix-blend-mode:screen">
<path d="M-2.50104 50.7799C-2.61945 50.4881 -2.61945 50.1617 -2.50104 49.8699C-2.46774 49.7144 -2.4014 49.5678 -2.3065 49.4401C-2.21161 49.3124 -2.09038 49.2066 -1.95103 49.1299L5.04897 51.2799C5.16633 51.5719 5.16633 51.8979 5.04897 52.1899C5.01742 52.3448 4.95285 52.4911 4.85967 52.6188C4.76648 52.7465 4.64685 52.8526 4.50896 52.9299L-2.50104 50.7799Z" fill="#242A43"/>
</g>
<path d="M95.2201 79.04C95.5201 80.61 94.9001 82.0401 93.8101 82.2701L82.7301 84.45C81.6401 84.67 80.5101 83.5701 80.2001 82.0001C79.8901 80.4301 80.5201 79 81.6101 78.76L92.6901 76.5801C93.7301 76.3601 94.8601 77.47 95.2201 79.04Z" fill="#242A43"/>
<g style="mix-blend-mode:screen" opacity="0.6">
<path d="M82.4109 83.4499C82.0309 83.4499 81.4109 82.8599 81.1609 81.7999C80.9109 80.7399 81.3709 79.8499 81.7609 79.7999L92.8509 77.6099C93.3009 77.6099 93.9509 78.1999 94.1609 79.2599C94.3709 80.3199 93.9509 81.1999 93.5609 81.2599L82.4809 83.4398L82.4109 83.4499Z" fill="#242A43"/>
</g>
<g style="mix-blend-mode:screen" opacity="0.6">
<path d="M82.5321 82.3599C82.3391 82.1402 82.2141 81.8693 82.1721 81.5799C82.0989 81.2945 82.0989 80.9953 82.1721 80.7099L92.7521 78.6299C92.9471 78.8533 93.0754 79.1271 93.1221 79.4199C93.1954 79.7019 93.1954 79.9979 93.1221 80.2799L82.5321 82.3599Z" fill="#242A43"/>
</g>
<path d="M114.45 68.8499C113.96 70.4099 112.68 71.4099 111.61 71.0699L100.61 67.6299C99.5297 67.2899 99.0497 65.7599 99.5397 64.1899C100.03 62.6199 101.29 61.6399 102.37 61.9699L113.37 65.4099C114.45 65.7499 114.93 67.2899 114.45 68.8499Z" fill="#242A43"/>
<g style="mix-blend-mode:screen" opacity="0.8">
<path d="M112.041 70.1H111.921L100.921 66.66C100.531 66.53 100.171 65.66 100.531 64.51C100.821 63.51 101.531 62.95 101.951 62.95C101.994 62.9405 102.038 62.9405 102.081 62.95L113.081 66.38C113.481 66.51 113.841 67.38 113.481 68.53C113.161 69.51 112.491 70.1 112.041 70.1Z" fill="#242A43"/>
</g>
<path d="M257.01 95.58C255.87 93.43 256.15 91.04 257.63 90.25L272.82 82.18C274.3 81.39 276.43 82.49 277.58 84.64C278.73 86.79 278.45 89.18 276.96 89.97L261.77 98.04C260.29 98.84 258.15 97.73 257.01 95.58Z" fill="#242A43"/>
<g style="mix-blend-mode:screen">
<path d="M260.72 97.2699C260.109 97.1712 259.532 96.9209 259.043 96.5418C258.554 96.1627 258.168 95.6669 257.92 95.0999C256.98 93.3299 257.27 91.6099 258.12 91.1599L273.3 83.0799C273.473 82.9911 273.665 82.9464 273.86 82.9499C274.472 83.047 275.051 83.2967 275.542 83.6758C276.033 84.055 276.421 84.5516 276.67 85.1199C277.52 86.7099 277.43 88.5499 276.48 89.0599L261.29 97.1399C261.113 97.2296 260.917 97.2742 260.72 97.2699Z" fill="#242A43"/>
</g>
<path d="M142.129 58.99C140.459 59.77 138.669 59.47 138.129 58.32L132.629 46.57C132.089 45.42 132.999 43.85 134.629 43.07C136.259 42.29 138.079 42.59 138.629 43.74L144.219 55.49C144.699 56.65 143.789 58.21 142.129 58.99Z" fill="#242A43"/>
<g style="mix-blend-mode:screen">
<path d="M140.271 58.3599C140.041 58.3878 139.809 58.3544 139.596 58.263C139.384 58.1717 139.199 58.0257 139.061 57.8399L133.561 46.0899C133.514 45.9336 133.503 45.7688 133.529 45.6077C133.555 45.4466 133.618 45.2935 133.711 45.1599C134.047 44.6323 134.53 44.215 135.101 43.9599C135.545 43.746 136.029 43.63 136.521 43.6199C136.75 43.5885 136.982 43.6203 137.194 43.712C137.405 43.8037 137.588 43.9517 137.721 44.1399L143.221 55.9299C143.471 56.4799 142.871 57.4999 141.671 58.0599C141.231 58.2573 140.754 58.3595 140.271 58.3599Z" fill="#242A43"/>
</g>
<path d="M41.0289 29.7299C40.2789 29.5299 39.779 28.9299 39.929 28.4199L41.409 23.1099C41.559 22.5899 42.289 22.3399 43.039 22.5499C43.789 22.7599 44.2789 23.3499 44.1389 23.8699L42.6489 29.1699C42.5089 29.6899 41.7789 29.9499 41.0289 29.7299Z" fill="#242A43"/>
<g style="mix-blend-mode:screen">
<path d="M41.5609 28.78C41.4779 28.7897 41.394 28.7897 41.3109 28.78C41.1809 28.7452 41.0609 28.6801 40.9609 28.59L42.3709 23.59H42.5109C42.594 23.5804 42.6779 23.5804 42.7609 23.59C42.8884 23.6262 43.0073 23.6874 43.1109 23.7699L41.7009 28.8199L41.5609 28.78Z" fill="#242A43"/>
</g>
<path d="M236.07 85.81C236.18 87.52 235.31 88.97 234.13 89.05L222.02 89.84C220.84 89.92 219.78 88.59 219.67 86.84C219.56 85.09 220.43 83.67 221.62 83.59L233.72 82.8C234.9 82.76 235.95 84.09 236.07 85.81Z" fill="#242A43"/>
<g style="mix-blend-mode:screen">
<path d="M221.919 88.8199C221.409 88.8199 220.779 87.9599 220.699 86.8199C220.619 85.6799 221.159 84.6999 221.699 84.6699L233.799 83.8799C234.359 83.8799 234.989 84.7399 235.059 85.8799C235.129 87.0199 234.609 87.9999 234.059 88.0299L221.919 88.8199Z" fill="#242A43"/>
</g>
<path d="M219.452 101.87C220.232 101.21 221.232 101.11 221.692 101.65L226.352 107.14C226.812 107.68 226.552 108.66 225.782 109.32C225.012 109.98 223.992 110.08 223.542 109.54L218.872 104.05C218.412 103.51 218.672 102.54 219.452 101.87Z" fill="#242A43"/>
<g style="mix-blend-mode:screen" opacity="0.6">
<path d="M224.368 108.86H224.288L219.648 103.36C219.72 103.074 219.885 102.82 220.118 102.64C220.318 102.452 220.575 102.336 220.848 102.31L225.578 107.79C225.515 108.077 225.352 108.332 225.118 108.51C224.915 108.707 224.651 108.83 224.368 108.86Z" fill="#242A43"/>
</g>
<path d="M28.2203 2.67005C29.2203 4.05005 29.3403 5.75004 28.3903 6.47004L18.6903 13.8401C17.7403 14.5601 16.1203 14.04 15.0803 12.66C14.0403 11.28 13.9603 9.59007 14.9103 8.87007L24.6103 1.49006C25.5403 0.77006 27.1603 1.30005 28.2203 2.67005Z" fill="#242A43"/>
<g style="mix-blend-mode:screen" opacity="0.7">
<path d="M17.6513 13.1399C17.2931 13.0947 16.9488 12.9731 16.6417 12.7834C16.3346 12.5936 16.0719 12.34 15.8713 12.0399C15.5156 11.5884 15.3 11.0425 15.2513 10.4698C15.2369 10.3288 15.2526 10.1864 15.2974 10.0519C15.3422 9.91743 15.4151 9.79401 15.5113 9.68985L25.2213 2.35986C25.3368 2.28382 25.473 2.24539 25.6113 2.24986C25.9695 2.29501 26.3137 2.4166 26.6208 2.60638C26.928 2.79616 27.1907 3.04972 27.3913 3.34987C28.1213 4.29987 28.1813 5.34986 27.7613 5.69986L18.0613 13.0799C17.9342 13.142 17.7909 13.163 17.6513 13.1399Z" fill="#242A43"/>
</g>
<path d="M19.5288 31.0501C20.5288 30.6001 21.5288 30.8001 21.8588 31.4801L24.9589 38.4301C25.2689 39.1101 24.7088 40.0201 23.7288 40.4301C22.7488 40.8401 21.7288 40.6701 21.3988 39.9901L18.2889 33.0501C17.9889 32.3601 18.5388 31.4801 19.5288 31.0501Z" fill="#242A43"/>
<g style="mix-blend-mode:screen">
<path d="M22.6788 39.6601C22.5533 39.6719 22.4274 39.6439 22.3188 39.5801L19.2188 32.6501C19.2867 32.4952 19.3857 32.3559 19.5095 32.2406C19.6333 32.1254 19.7794 32.0368 19.9388 31.9801C20.1364 31.8892 20.3512 31.8414 20.5688 31.8401C20.6911 31.8269 20.8143 31.855 20.9187 31.9201L24.0188 38.8501C23.9493 39.004 23.8499 39.1426 23.7262 39.2576C23.6026 39.3727 23.4573 39.4619 23.2988 39.5201C23.1042 39.6097 22.8929 39.6573 22.6788 39.6601Z" fill="#242A43"/>
</g>
<path d="M96.4002 102.13C95.1902 101.76 94.4002 100.77 94.6702 99.94L97.3202 91.41C97.5802 90.57 98.7602 90.2 99.9802 90.57C101.2 90.94 101.98 91.93 101.69 92.76L99.0502 101.29C98.7902 102.13 97.6002 102.51 96.4002 102.13Z" fill="#242A43"/>
<g style="mix-blend-mode:screen">
<path d="M97.3305 101.24C97.1173 101.24 96.9052 101.209 96.7005 101.15C96.2887 101.05 95.931 100.796 95.7005 100.44C95.6599 100.382 95.6421 100.311 95.6505 100.24L98.2905 91.71C98.2905 91.63 98.5705 91.46 99.0305 91.46C99.2436 91.4611 99.4556 91.4914 99.6605 91.55C100.072 91.6503 100.43 91.9043 100.66 92.2599C100.71 92.3499 100.73 92.42 100.71 92.46L98.0705 100.99C98.0405 101.07 97.7905 101.24 97.3305 101.24Z" fill="#242A43"/>
</g>
<path d="M240.739 28.81C241.449 29.12 241.859 29.81 241.649 30.26L239.499 35.36C239.312 35.6163 239.036 35.7933 238.725 35.8562C238.414 35.9191 238.091 35.8634 237.819 35.7C237.099 35.39 236.699 34.7 236.899 34.25L239.049 29.25C239.269 28.66 240.019 28.51 240.739 28.81Z" fill="#242A43"/>
<g style="mix-blend-mode:screen" opacity="0.7">
<path d="M238.56 34.78C238.442 34.7774 238.327 34.7501 238.22 34.7C238.1 34.6537 237.993 34.578 237.91 34.4799L239.91 29.6899C240.024 29.6939 240.137 29.7211 240.24 29.77C240.361 29.8194 240.471 29.8945 240.56 29.99L238.51 34.78H238.56Z" fill="#242A43"/>
</g>
<path d="M50.3112 10.2801C50.8712 8.49007 52.3112 7.35006 53.5712 7.74006L66.2312 11.7401C67.4712 12.1201 68.0212 13.9 67.4612 15.69C66.9012 17.48 65.4612 18.6201 64.1912 18.2301L51.5312 14.2301C50.2912 13.8401 49.7412 12.0801 50.3112 10.2801Z" fill="#242A43"/>
<g style="mix-blend-mode:screen">
<path d="M64.7002 17.2599C64.634 17.2704 64.5665 17.2704 64.5002 17.2599L51.8402 13.2599C51.6858 13.1876 51.5504 13.0804 51.4445 12.9468C51.3386 12.8132 51.2653 12.6568 51.2302 12.4899C51.0612 11.868 51.0821 11.2098 51.2902 10.5999C51.6602 9.40991 52.4902 8.69991 53.0702 8.69991C53.1365 8.6902 53.2039 8.6902 53.2702 8.69991L65.9302 12.6999C66.5202 12.8799 66.8802 14.0599 66.4802 15.3599C66.0802 16.6599 65.2802 17.2599 64.7002 17.2599Z" fill="#242A43"/>
</g>
<path d="M41.6621 89.9401C42.3221 91.3501 42.0721 92.8601 41.1021 93.3201L31.2221 98.0001C30.2221 98.4601 28.9221 97.7001 28.2221 96.2901C27.5221 94.8801 27.8121 93.3701 28.7821 92.9101L38.7121 88.2201C39.6721 87.7601 41.0021 88.5301 41.6621 89.9401Z" fill="#242A43"/>
<g style="mix-blend-mode:screen">
<path d="M30.569 97.11C30.2446 97.0355 29.9439 96.8813 29.6942 96.6613C29.4445 96.4412 29.2536 96.1624 29.1389 95.85C28.9171 95.4081 28.8302 94.9108 28.8889 94.42C28.8889 94.28 28.989 93.94 29.209 93.84L39.1389 89.15C39.1918 89.1395 39.2461 89.1395 39.299 89.15C39.6222 89.2235 39.9222 89.3762 40.1718 89.5944C40.4214 89.8126 40.6129 90.0894 40.7289 90.4C40.9518 90.8486 41.0387 91.3526 40.9789 91.85C40.9688 91.9611 40.936 92.0689 40.8827 92.1669C40.8294 92.2649 40.7567 92.351 40.6689 92.42L30.7289 97.11C30.6761 97.1205 30.6218 97.1205 30.569 97.11Z" fill="#242A43"/>
</g>
<path d="M108.602 51.49C106.782 52.92 104.502 53.06 103.512 51.81L93.3918 38.96C92.3918 37.7 93.0718 35.52 94.8818 34.09C96.6918 32.66 98.9818 32.51 99.9818 33.77L110.102 46.61C111.092 47.87 110.432 50.05 108.602 51.49Z" fill="#242A43"/>
<g style="mix-blend-mode:screen" opacity="0.5">
<path d="M105.508 51.6399C105.288 51.6514 105.068 51.6154 104.862 51.5344C104.657 51.4533 104.471 51.329 104.318 51.1699L94.2184 38.3599C93.6684 37.6599 94.0784 36.0799 95.5484 34.9299C96.2333 34.3369 97.0942 33.9855 97.9984 33.9299C98.2197 33.9163 98.4413 33.9503 98.6483 34.0297C98.8553 34.109 99.0429 34.2319 99.1984 34.3899L109.328 47.2399C109.458 47.4525 109.537 47.6924 109.558 47.9407C109.579 48.189 109.541 48.4387 109.448 48.6699C109.175 49.466 108.67 50.1624 107.998 50.6699C107.298 51.2583 106.422 51.5992 105.508 51.6399Z" fill="#242A43"/>
</g>
<g style="mix-blend-mode:screen">
<path d="M105.432 50.09L95.5117 37.5C95.6575 36.927 96.0147 36.4303 96.5117 36.11C96.9347 35.7502 97.4587 35.5301 98.0117 35.48H98.1017L108.022 48.08C108.03 48.1263 108.03 48.1737 108.022 48.22C107.835 48.7186 107.509 49.1527 107.082 49.47C106.661 49.8326 106.136 50.0531 105.582 50.1L105.432 50.09Z" fill="#242A43"/>
</g>
<path d="M88.0614 59.9C88.0614 59.98 88.0614 60.07 87.9914 60.08L87.4114 60.24C87.3514 60.24 87.2814 60.24 87.2614 60.12C87.2414 60 87.2614 59.95 87.3214 59.94L87.9114 59.78C87.9714 59.76 88.0414 59.82 88.0614 59.9Z" fill="#242A43"/>
<g style="mix-blend-mode:screen" opacity="0.8">
<path d="M88.0614 59.9C88.0614 59.98 88.0614 60.07 87.9914 60.08L87.4114 60.24C87.3514 60.24 87.2814 60.24 87.2614 60.12C87.2414 60 87.2614 59.95 87.3214 59.94L87.9114 59.78C87.9714 59.76 88.0414 59.82 88.0614 59.9Z" fill="#242A43"/>
</g>
<path d="M208.221 9.51998C209.001 8.51998 210.221 8.22998 210.841 8.76998L217.601 14.31C218.271 14.85 218.171 16.07 217.381 17.03C216.591 17.99 215.381 18.32 214.761 17.78L208.001 12.24C207.291 11.7 207.391 10.48 208.221 9.51998Z" fill="#242A43"/>
<g style="mix-blend-mode:screen">
<path d="M215.49 17.0101C215.448 17.0226 215.403 17.0226 215.36 17.0101L208.6 11.4701C208.6 11.4701 208.53 11.3401 208.55 11.1501C208.586 10.7988 208.73 10.4672 208.96 10.2001C209.086 10.0294 209.244 9.88563 209.426 9.7774C209.609 9.66918 209.811 9.59866 210.02 9.57007H210.14L216.9 15.1201C216.932 15.1662 216.954 15.2186 216.964 15.2737C216.975 15.3288 216.973 15.3855 216.96 15.4401C216.909 15.789 216.764 16.1175 216.54 16.3901C216.415 16.5578 216.258 16.699 216.078 16.8055C215.897 16.9119 215.698 16.9814 215.49 17.0101Z" fill="#242A43"/>
</g>
<path d="M22.8398 61.8101C24.6798 61.6101 26.2798 62.4701 26.4198 63.7501L27.8598 76.7501C27.9998 78.0301 26.6198 79.2301 24.7798 79.4301C22.9398 79.6301 21.3298 78.7701 21.1898 77.4901L19.7598 64.4901C19.6198 63.2101 20.9998 62.0101 22.8398 61.8101Z" fill="#242A43"/>
<g style="mix-blend-mode:screen" opacity="0.8">
<path d="M24.2213 78.4101C23.0513 78.4101 22.2213 77.8601 22.2213 77.3601L20.7812 64.3601C20.7862 64.1934 20.8294 64.0301 20.9074 63.8828C20.9855 63.7354 21.0962 63.6079 21.2312 63.5101C21.726 63.119 22.3234 62.8794 22.9512 62.8201H23.3712C24.5512 62.8201 25.3712 63.3701 25.3712 63.8701L26.8013 76.8701C26.7982 77.0361 26.7569 77.1991 26.6806 77.3465C26.6042 77.4939 26.495 77.6217 26.3613 77.7201C25.8656 78.1096 25.2687 78.3491 24.6413 78.4101H24.2213Z" fill="#242A43"/>
</g>
<path d="M166.222 83.3601C167.632 81.6401 169.732 81.0401 170.922 82.0101L183.062 91.9601C184.252 92.9601 184.062 95.1201 182.662 96.8401C181.262 98.5601 179.142 99.1601 177.962 98.1801L165.822 88.2401C164.622 87.2701 164.802 85.0901 166.222 83.3601Z" fill="#242A43"/>
<g style="mix-blend-mode:screen" opacity="0.7">
<path d="M179.33 97.6301C179.066 97.6451 178.807 97.5633 178.6 97.4001L166.46 87.4601C166.297 87.2933 166.176 87.0904 166.106 86.868C166.037 86.6455 166.021 86.4098 166.06 86.1801C166.155 85.3867 166.482 84.6389 167 84.0301C167.296 83.6274 167.673 83.2912 168.107 83.0432C168.541 82.7952 169.022 82.6409 169.52 82.5901C169.786 82.5754 170.049 82.657 170.26 82.8201L182.4 92.8201C182.56 92.9863 182.679 93.1879 182.746 93.4085C182.814 93.6291 182.829 93.8626 182.79 94.0901C182.703 94.8859 182.375 95.6362 181.85 96.2401C181.55 96.6344 181.17 96.9617 180.736 97.2011C180.303 97.4404 179.823 97.5865 179.33 97.6301Z" fill="#242A43"/>
</g>
<path d="M169.362 63.8099C170.012 64.7099 170.042 65.8099 169.422 66.2699L163.012 70.8999C162.382 71.3599 161.342 70.9999 160.682 70.0899C160.369 69.7547 160.195 69.3133 160.195 68.8549C160.195 68.3964 160.369 67.955 160.682 67.6199L167.092 62.9899C167.662 62.5299 168.702 62.8999 169.362 63.8099Z" fill="#242A43"/>
<g style="mix-blend-mode:screen">
<path d="M162.37 70.0701C162.194 70.0369 162.028 69.9673 161.882 69.8656C161.735 69.7639 161.612 69.6326 161.52 69.4801C161.397 69.3471 161.308 69.1876 161.257 69.0141C161.207 68.8406 161.197 68.6579 161.23 68.4801L167.64 63.8501C167.821 63.8792 167.995 63.9469 168.149 64.0487C168.302 64.1505 168.432 64.2839 168.53 64.4401C168.648 64.5749 168.734 64.7352 168.781 64.9086C168.828 65.082 168.834 65.2639 168.8 65.4401L162.4 70.0701H162.37Z" fill="#242A43"/>
</g>
<path d="M173.361 53.7801C170.831 54.0101 168.651 52.7801 168.491 51.0301L166.891 33.1801C166.741 31.4301 168.671 29.8301 171.201 29.6101C173.731 29.3901 175.901 30.6101 176.051 32.3701L177.651 50.2101C177.801 51.9601 175.891 53.5601 173.361 53.7801Z" fill="#242A43"/>
<g style="mix-blend-mode:screen" opacity="0.8">
<path d="M172.762 52.7901C171.032 52.7901 169.612 51.9701 169.522 50.9401L167.922 33.0901C167.928 32.8022 168 32.5196 168.134 32.2645C168.267 32.0094 168.458 31.7888 168.692 31.6201C169.439 31.035 170.345 30.6867 171.292 30.6201H171.782C173.512 30.6201 174.942 31.4301 175.032 32.4701L176.632 50.3101C176.626 50.6004 176.552 50.8853 176.417 51.1422C176.281 51.3991 176.088 51.6209 175.852 51.7901C175.111 52.3737 174.212 52.722 173.272 52.7901H172.762Z" fill="#242A43"/>
</g>
<g style="mix-blend-mode:screen" opacity="0.8">
<path d="M172.761 51.2399C172.145 51.2857 171.533 51.1043 171.041 50.7299L169.461 33.0299C169.527 32.9431 169.604 32.8657 169.691 32.7999C170.195 32.4275 170.796 32.2087 171.421 32.1699H171.781C172.092 32.139 172.407 32.1709 172.706 32.2636C173.005 32.3564 173.282 32.5081 173.521 32.7099L175.081 50.3599C175.024 50.4477 174.953 50.5254 174.871 50.5899C174.362 50.9622 173.759 51.184 173.131 51.2299L172.761 51.2399Z" fill="#242A43"/>
</g>
<path d="M41.9321 40.3599C43.5121 40.3599 44.8121 41.2099 44.8321 42.3099L44.9921 53.4999C44.9921 54.5899 43.7221 55.4999 42.1421 55.4999C40.5621 55.4999 39.2521 54.6499 39.2421 53.5499L39.0821 42.3599C39.0721 41.2699 40.3421 40.3599 41.9321 40.3599Z" fill="#242A43"/>
<g style="mix-blend-mode:screen" opacity="0.7">
<path d="M42.0794 54.48C40.9794 54.48 40.2794 53.92 40.2694 53.54L40.1094 42.36C40.1094 42.11 40.3794 41.89 40.4994 41.8C40.9279 41.5221 41.4286 41.376 41.9394 41.38C43.0794 41.38 43.7894 41.93 43.7994 42.31L43.9494 53.5C43.9494 53.89 43.2494 54.5 42.1194 54.5L42.0794 54.48Z" fill="#242A43"/>
</g>
<path d="M-7.20126 8.8099C-6.33126 7.7299 -5.02127 7.34989 -4.28127 7.94989L3.31874 14.0999C4.06874 14.6999 3.96874 16.0999 3.09874 17.0999C2.22874 18.0999 0.918731 18.5599 0.168731 17.9599L-7.43127 11.8099C-8.17127 11.2499 -8.08126 9.8899 -7.20126 8.8099Z" fill="#242A43"/>
<g style="mix-blend-mode:screen" opacity="0.6">
<path d="M1.02855 17.2499C0.955337 17.2523 0.882832 17.235 0.818555 17.1999L-6.78145 11.0499C-6.83338 10.9864 -6.87099 10.9124 -6.8917 10.833C-6.91241 10.7536 -6.91574 10.6707 -6.90145 10.5899C-6.85129 10.1718 -6.67715 9.77821 -6.40145 9.45988C-6.25527 9.25087 -6.06655 9.07511 -5.84768 8.94414C-5.62882 8.81316 -5.38474 8.72992 -5.13145 8.69987C-5.05782 8.69253 -4.98387 8.71015 -4.92145 8.74989L2.67856 14.8999C2.72875 14.9642 2.76453 15.0386 2.78351 15.1179C2.80248 15.1973 2.80421 15.2798 2.78856 15.3599C2.73614 15.7755 2.56614 16.1676 2.29855 16.4899C2.15057 16.6972 1.96139 16.8716 1.74286 17.0024C1.52432 17.1332 1.28115 17.2174 1.02855 17.2499Z" fill="#242A43"/>
</g>
<path d="M270.078 57.5401C271.408 58.8801 271.728 60.7201 270.798 61.6401L261.308 71.0601C260.378 71.9801 258.538 71.6401 257.198 70.2901C255.858 68.9401 255.548 67.1101 256.468 66.1901L265.968 56.7701C266.898 55.8501 268.738 56.1901 270.078 57.5401Z" fill="#242A43"/>
<g style="mix-blend-mode:screen" opacity="0.8">
<path d="M259.931 70.5501C259.161 70.4869 258.444 70.1287 257.931 69.5501C256.931 68.5501 256.741 67.3501 257.191 66.9001L266.691 57.4801C266.875 57.3323 267.105 57.2544 267.341 57.2601C268.112 57.3232 268.828 57.6814 269.341 58.2601C270.341 59.2601 270.531 60.4701 270.081 60.9201L260.591 70.3601C260.401 70.4993 260.167 70.5666 259.931 70.5501Z" fill="#242A43"/>
</g>
<path d="M199.779 70.6399C199.779 72.2699 198.859 73.58 197.729 73.58L186.219 73.53C185.099 73.53 184.219 72.21 184.219 70.58C184.219 68.95 185.139 67.64 186.269 67.65H197.739C198.879 67.7 199.789 69.0199 199.779 70.6399Z" fill="#242A43"/>
<g style="mix-blend-mode:screen" opacity="0.8">
<path d="M186.27 72.4999C185.85 72.4999 185.27 71.7499 185.27 70.5799C185.27 69.4099 185.88 68.6699 186.27 68.6699L197.75 68.7199C198.16 68.7199 198.75 69.4699 198.75 70.6399C198.75 71.8099 198.14 72.5499 197.75 72.5499L186.27 72.4999Z" fill="#242A43"/>
</g>
<path d="M142.219 26.3601C140.219 25.9301 138.919 24.4701 139.219 23.1201L142.299 9.27009C142.599 7.91009 144.429 7.16007 146.389 7.60007C148.349 8.04007 149.699 9.48009 149.389 10.8401L146.319 24.6901C146.029 26.0801 144.219 26.8301 142.219 26.3601Z" fill="#242A43"/>
<g style="mix-blend-mode:screen">
<path d="M143.362 25.49C143.059 25.4864 142.757 25.4529 142.461 25.39C141.769 25.2364 141.135 24.8897 140.632 24.39C140.491 24.2596 140.381 24.0995 140.31 23.9213C140.239 23.7431 140.209 23.5514 140.222 23.36L143.292 9.51002C143.422 8.93002 144.292 8.51002 145.292 8.51002C145.591 8.50925 145.89 8.5428 146.181 8.61003C146.873 8.75902 147.505 9.10658 148.001 9.61003C148.144 9.74305 148.255 9.9065 148.326 10.0883C148.397 10.27 148.426 10.4654 148.412 10.66L145.341 24.51C145.221 25.07 144.372 25.49 143.362 25.49Z" fill="#242A43"/>
</g>
<path d="M154.569 3.2299C154.419 2.1099 154.929 1.1199 155.699 1.0099L163.609 -0.0400853C164.379 -0.140085 165.129 0.679911 165.279 1.79991C165.429 2.91991 164.929 3.9099 164.149 4.0099L156.249 5.06992C155.469 5.17992 154.719 4.3599 154.569 3.2299Z" fill="#242A43"/>
<g style="mix-blend-mode:screen">
<path d="M156.111 4.05003C156.011 4.05003 155.681 3.72004 155.591 3.10004C155.544 2.91399 155.543 2.71929 155.588 2.53284C155.633 2.34639 155.723 2.1738 155.851 2.03003L163.751 1.03003C163.905 1.13647 164.032 1.27816 164.12 1.44337C164.209 1.60858 164.257 1.79255 164.261 1.98003C164.308 2.16534 164.31 2.35935 164.266 2.54561C164.223 2.73187 164.135 2.9049 164.011 3.05003L156.111 4.05003Z" fill="#242A43"/>
</g>
<path d="M8.81958 75.64C9.16958 76.64 8.86957 77.72 8.14957 77.97L0.779574 80.47C0.0595739 80.71 -0.810429 80.06 -1.16043 79.02C-1.51043 77.98 -1.22042 76.93 -0.500425 76.68L6.86957 74.19C7.58957 73.95 8.45958 74.59 8.81958 75.64Z" fill="#242A43"/>
<g style="mix-blend-mode:screen">
<path d="M0.458603 79.49C0.297215 79.4139 0.154994 79.3024 0.0424805 79.164C-0.0700329 79.0255 -0.149967 78.8635 -0.191406 78.6899C-0.265988 78.5338 -0.304688 78.363 -0.304688 78.1899C-0.304688 78.0169 -0.265988 77.8461 -0.191406 77.6899L7.16859 75.2C7.32854 75.2766 7.46914 75.3884 7.57994 75.5269C7.69074 75.6654 7.7689 75.8271 7.80859 76C7.88683 76.155 7.92758 76.3263 7.92758 76.5C7.92758 76.6737 7.88683 76.8449 7.80859 77L0.458603 79.49Z" fill="#242A43"/>
</g>
</g>
<path d="M116.35 91.03C137.906 91.03 155.38 73.5557 155.38 52C155.38 30.4443 137.906 12.97 116.35 12.97C94.7946 12.97 77.3203 30.4443 77.3203 52C77.3203 73.5557 94.7946 91.03 116.35 91.03Z" fill="#232A44" stroke="#3C4359" stroke-miterlimit="10"/>
<path d="M135.642 27.79C135.642 27.79 133.012 26.79 133.032 28.13C133.052 29.47 133.892 30.43 133.402 30.98C133.173 31.2785 133.069 31.6551 133.114 32.0289C133.159 32.4028 133.348 32.7442 133.642 32.98C134.222 33.54 134.642 38.15 133.432 40.41C132.222 42.67 131.222 46.89 129.762 49.82C128.302 52.75 125.032 59.82 114.042 62.52C103.052 65.22 99.342 61.45 91.712 62.78C91.4239 62.7314 91.1287 62.7465 90.8471 62.8242C90.5655 62.902 90.3043 63.0405 90.082 63.23C89.342 63.88 88.232 65.03 88.772 66.07C89.312 67.11 93.202 74.07 104.452 76.47C110.375 77.6918 116.514 77.3454 122.262 75.4652C128.009 73.5849 133.166 70.236 137.222 65.75C145.562 56.29 146.102 44.62 140.142 37.83C139.532 37.4055 139.012 36.8644 138.612 36.2379C138.212 35.6115 137.94 34.912 137.812 34.18C137.412 31.74 137.922 31.29 138.812 29.95C139.702 28.61 138.712 26.19 137.212 26.95L135.642 27.79Z" fill="#374166"/>
<path d="M137.761 34.18C137.935 35.1923 138.385 36.137 139.061 36.91C138.35 37.1075 137.629 37.2677 136.901 37.39C135.561 37.98 136.021 39.73 134.771 39.27C134.591 39.21 134.361 37.27 134.181 37.27C134.311 35.27 134.001 33.34 133.641 32.99C133.348 32.7542 133.158 32.4128 133.113 32.0389C133.069 31.6651 133.172 31.2886 133.401 30.99C133.891 30.44 133.041 29.49 133.031 28.14C133.021 26.79 135.641 27.8 135.641 27.8L137.141 27C138.641 26.2 139.611 28.63 138.741 30C137.871 31.37 137.361 31.74 137.761 34.18Z" fill="#3F4C80"/>
<path d="M136.22 30.5398C135.11 30.9198 135.29 29.0499 134.22 29.2299C133.972 29.2495 133.724 29.1954 133.507 29.0744C133.29 28.9534 133.113 28.7709 133 28.5499C132.99 28.41 132.99 28.2697 133 28.1298C133 26.7798 135.61 27.7898 135.61 27.7898L137.11 26.9899C137.337 26.8504 137.607 26.7997 137.869 26.8477C138.131 26.8957 138.367 27.039 138.53 27.2499C138.606 27.5731 138.554 27.9135 138.384 28.199C138.214 28.4845 137.94 28.6928 137.62 28.7799C136.68 29.1899 136.75 30.3598 136.22 30.5398Z" fill="black"/>
<g style="mix-blend-mode:multiply" opacity="0.49">
<path d="M90.3319 64.9C93.3135 66.9324 96.5972 68.4815 100.062 69.49C107.912 71.56 117.992 68.91 124.742 64.75C130.862 61 133.332 55.8 135.542 48.87C136.727 45.5466 137.135 41.9955 136.732 38.49C136.652 37.61 137.202 36.95 137.102 36.13C136.912 34.58 136.032 33.13 136.262 32.05C136.822 29.48 133.602 28.13 135.262 27.65L135.662 27.79L137.162 26.99C138.662 26.19 139.632 28.62 138.762 29.99C137.892 31.36 137.382 31.78 137.762 34.22C137.89 34.9521 138.162 35.6515 138.562 36.278C138.962 36.9044 139.482 37.4455 140.092 37.87C146.092 44.66 145.512 56.33 137.172 65.79C133.119 70.2642 127.969 73.6043 122.231 75.4808C116.493 77.3572 110.365 77.705 104.452 76.49C93.2019 74.11 89.3119 67.14 88.7719 66.09C88.6461 65.7624 88.6189 65.4051 88.6935 65.0622C88.7681 64.7193 88.9414 64.4057 89.1919 64.16C89.5719 64.4 89.9519 64.6467 90.3319 64.9Z" fill="#1A1A1A"/>
</g>
<path d="M89.221 66.77C89.0719 66.5373 88.935 66.297 88.811 66.05C88.271 65.05 89.381 63.86 90.121 63.21C90.4859 62.898 90.9509 62.7276 91.4311 62.73C91.1211 63.89 91.531 64.58 91.281 65.05C90.831 65.81 90.121 67 89.221 66.77Z" fill="#272A33"/>
<path d="M140.84 44.7199C140.953 45.3725 141.184 45.9992 141.52 46.5699C141.566 46.7009 141.646 46.8179 141.75 46.9099C142.37 47.3599 142.61 46.1499 142.64 45.7599C142.709 45.1569 142.633 44.5461 142.417 43.9788C142.201 43.4115 141.852 42.9043 141.4 42.4999C141.08 42.2599 140.53 42.2199 140.4 42.7099C140.383 42.9027 140.407 43.0969 140.47 43.2799C140.63 43.7099 140.73 44.2199 140.84 44.7199Z" fill="#374166"/>
<path d="M139.5 40.2701C139.599 40.4694 139.709 40.6631 139.83 40.8501C140.02 41.1501 140.21 41.5101 140.59 41.2401C140.97 40.9701 140.89 40.1301 140.68 39.7101C140.47 39.2901 139.87 38.7101 139.44 39.1301C139.01 39.5501 139.35 39.9501 139.5 40.2701Z" fill="#374166"/>
<path d="M133.369 63.7101C134.369 61.9201 135.819 60.4301 136.819 58.6201C137.824 56.8184 138.641 54.9184 139.259 52.9501C139.294 52.8175 139.379 52.704 139.497 52.6346C139.616 52.5652 139.756 52.5456 139.889 52.5801C140.022 52.6146 140.135 52.7003 140.205 52.8185C140.274 52.9366 140.294 53.0775 140.259 53.2101C139.843 55.3811 139.105 57.4776 138.069 59.4301C137.119 61.1701 135.949 63.2501 134.289 64.4301C133.819 64.7001 133.059 64.2601 133.369 63.7101Z" fill="#374166"/>
<path d="M141.841 48.85C141.887 48.7309 141.917 48.6066 141.931 48.48C141.946 48.3371 141.946 48.193 141.931 48.05C141.931 47.79 142.111 47.62 142.281 47.79C142.701 48.19 142.721 49.51 142.151 49.54C141.811 49.56 141.771 49.15 141.841 48.85Z" fill="#374166"/>
<g style="mix-blend-mode:multiply" opacity="0.49">
<path d="M129.389 53.9401C129.411 53.8521 129.437 53.7653 129.469 53.6801C129.528 53.479 129.616 53.2872 129.729 53.1101C129.833 52.8979 129.953 52.694 130.089 52.5001C130.289 52.2501 130.819 52.3201 130.819 52.7001C130.822 53.0442 130.715 53.3804 130.514 53.6594C130.312 53.9383 130.026 54.1454 129.699 54.2501C129.657 54.2549 129.614 54.2502 129.574 54.2363C129.535 54.2224 129.499 54.1997 129.469 54.1699C129.439 54.1401 129.416 54.104 129.402 54.0642C129.388 54.0244 129.384 53.982 129.389 53.9401Z" fill="#1A1A1A"/>
</g>
<g style="mix-blend-mode:multiply" opacity="0.49">
<path d="M133.93 41.4699C133.957 41.3847 134.013 41.3114 134.087 41.2623C134.162 41.2131 134.251 41.1911 134.34 41.1999C134.423 41.2041 134.504 41.2261 134.578 41.2643C134.652 41.3026 134.716 41.3563 134.768 41.4217C134.819 41.4871 134.855 41.5628 134.875 41.6435C134.894 41.7243 134.896 41.8083 134.88 41.8899C134.86 41.9783 134.81 42.0572 134.74 42.1137C134.669 42.1702 134.581 42.201 134.49 42.201C134.4 42.201 134.312 42.1702 134.241 42.1137C134.17 42.0572 134.12 41.9783 134.1 41.8899C134.031 41.8474 133.976 41.7836 133.946 41.708C133.915 41.6324 133.91 41.5489 133.93 41.4699Z" fill="#1A1A1A"/>
<path d="M134.489 43.9298C134.52 43.8578 134.56 43.7904 134.609 43.7298C134.711 43.5921 134.791 43.4406 134.849 43.2798C134.863 43.1984 134.906 43.1245 134.969 43.0713C135.032 43.018 135.112 42.9888 135.194 42.9888C135.277 42.9888 135.357 43.018 135.42 43.0713C135.483 43.1245 135.525 43.1984 135.539 43.2798C135.569 43.4106 135.57 43.5462 135.543 43.6773C135.515 43.8085 135.459 43.9322 135.379 44.0398C135.301 44.1584 135.187 44.2487 135.054 44.2973C134.921 44.346 134.775 44.3504 134.639 44.3098C134.571 44.2772 134.518 44.2198 134.49 44.1493C134.462 44.0788 134.462 44.0004 134.489 43.9298Z" fill="#1A1A1A"/>
<path d="M133.221 43.4298C133.281 43.0998 133.891 42.6398 133.941 43.0398C133.951 43.1094 133.951 43.1801 133.941 43.2498C133.911 43.3716 133.853 43.4846 133.771 43.5798C133.733 43.629 133.682 43.6658 133.623 43.6854C133.564 43.705 133.501 43.7065 133.441 43.6897C133.408 43.6923 133.375 43.687 133.344 43.6742C133.313 43.6613 133.286 43.6414 133.265 43.616C133.243 43.5907 133.228 43.5605 133.22 43.5281C133.213 43.4957 133.213 43.462 133.221 43.4298Z" fill="#1A1A1A"/>
</g>
<path d="M100.359 64.9599C100.375 64.8571 100.358 64.7518 100.309 64.6598C100.26 64.5678 100.183 64.4941 100.089 64.4499C99.5788 64.1199 95.2788 63.1799 95.3888 64.3699C95.4454 64.6142 95.5917 64.8284 95.7988 64.9699C96.3805 65.4182 97.0705 65.7046 97.7988 65.7999C98.5632 65.9691 99.3635 65.8327 100.029 65.4199C100.194 65.3148 100.312 65.15 100.359 64.9599Z" fill="#2D334D"/>
<path d="M101.809 65.42C101.824 65.298 101.872 65.1825 101.948 65.0856C102.024 64.9888 102.124 64.9143 102.239 64.87C102.458 64.7852 102.7 64.7852 102.919 64.87C103.03 64.9174 103.126 64.9928 103.198 65.0888C103.27 65.1847 103.316 65.2979 103.332 65.4171C103.347 65.5363 103.33 65.6574 103.284 65.7684C103.238 65.8795 103.164 65.9765 103.069 66.05C102.881 66.1848 102.649 66.2454 102.419 66.22C102.296 66.2074 102.18 66.1616 102.081 66.0876C101.982 66.0136 101.906 65.9142 101.859 65.8C101.822 65.6769 101.805 65.5486 101.809 65.42Z" fill="#2D334D"/>
<path d="M117.022 63.5C118.291 62.9962 119.527 62.4117 120.722 61.75C121.012 61.57 121.332 61.9799 121.052 62.1699C119.871 63.0346 118.499 63.6007 117.052 63.8199C117.017 63.8116 116.986 63.7927 116.963 63.7659C116.94 63.7392 116.926 63.7059 116.923 63.6706C116.919 63.6354 116.927 63.6 116.945 63.5695C116.963 63.5389 116.989 63.5146 117.022 63.5Z" fill="#2D334D"/>
</g>
</svg>
