<svg xmlns="http://www.w3.org/2000/svg" xmlns:xlink="http://www.w3.org/1999/xlink" viewBox="0 0 469.15 268.55"><defs><style>.cls-1{fill:none;}.cls-2{isolation:isolate;}.cls-3{clip-path:url(#clip-path);}.cls-4{fill:#917800;stroke:#a28500;stroke-width:2px;}.cls-13,.cls-4{stroke-miterlimit:10;}.cls-5{opacity:0.56;}.cls-10,.cls-11,.cls-12,.cls-6,.cls-7,.cls-8,.cls-9{fill:#877000;}.cls-10,.cls-11,.cls-12,.cls-7,.cls-8,.cls-9{mix-blend-mode:screen;}.cls-8{opacity:0.6;}.cls-9{opacity:0.7;}.cls-10{opacity:0.8;}.cls-11{opacity:0.5;}.cls-12{opacity:0.3;}.cls-13{fill:#887000;stroke:#9d7f00;}</style><clipPath id="clip-path" transform="translate(115.13 17.86)"><rect class="cls-1" width="256.55" height="102.69" rx="8.53"/></clipPath></defs><g class="cls-2"><g id="Layer_2" data-name="Layer 2"><g id="Layer_1-2" data-name="Layer 1"><g class="cls-3"><rect class="cls-4" x="115.13" y="17.86" width="256.55" height="102.69" rx="8.53"/><g class="cls-5"><path class="cls-6" d="M-74.47,16.28c-.61-.15-1-.62-.91-1.05l1.09-4.33c.11-.42.7-.64,1.31-.49s1,.63.92,1.06l-1.1,4.33C-73.27,16.22-73.86,16.44-74.47,16.28Z" transform="translate(115.13 17.86)"/><path class="cls-7" d="M-74.1,15.31l-.11,0-.12,0,1-3.85h.12l.11,0Z" transform="translate(115.13 17.86)"/><path class="cls-6" d="M190.3,32c.12-1.06.81-1.84,1.54-1.75l7.41.88c.73.08,1.22,1,1.09,2.06s-.81,1.83-1.54,1.74L191.39,34C190.66,34,190.17,33,190.3,32Z" transform="translate(115.13 17.86)"/><path class="cls-7" d="M191.51,33a1.22,1.22,0,0,1-.19-.91,1.12,1.12,0,0,1,.42-.85l7.39.88a1.22,1.22,0,0,1,.19.91,1.18,1.18,0,0,1-.42.85Z" transform="translate(115.13 17.86)"/><path class="cls-6" d="M286.77,11.23c1-.56,2.1-.46,2.49.22l3.95,7c.39.69-.1,1.7-1.09,2.25s-2.11.46-2.5-.22l-3.94-7C285.29,12.8,285.78,11.79,286.77,11.23Z" transform="translate(115.13 17.86)"/><path class="cls-7" d="M290.82,20a.53.53,0,0,1-.3-.07l-3.94-7c0-.09.13-.54.69-.85a1.62,1.62,0,0,1,.79-.23c.21,0,.3,0,.3.06l4,7c0,.09-.14.53-.71.85A1.62,1.62,0,0,1,290.82,20Z" transform="translate(115.13 17.86)"/><path class="cls-6" d="M108.42,15.8c-2.07-1.33-3-3.57-2.09-5l9.39-14.62c.91-1.44,3.34-1.52,5.41-.19s3,3.57,2.09,5l-9.38,14.62C112.92,17,110.49,17.13,108.42,15.8Z" transform="translate(115.13 17.86)"/><path class="cls-8" d="M111.41,15.72a4.57,4.57,0,0,1-2.43-.79,4.54,4.54,0,0,1-1.78-2,1.77,1.77,0,0,1,0-1.59l9.38-14.62a1.78,1.78,0,0,1,1.56-.66,4.57,4.57,0,0,1,2.43.79,4.58,4.58,0,0,1,1.78,2,1.79,1.79,0,0,1,0,1.6L113,15.06A1.78,1.78,0,0,1,111.41,15.72Z" transform="translate(115.13 17.86)"/><path class="cls-6" d="M283.06,106c0-.89.52-1.61,1.15-1.59l6.27.11c.61,0,1.1.75,1.08,1.64s-.52,1.6-1.13,1.59l-6.29-.12C283.53,107.63,283,106.9,283.06,106Z" transform="translate(115.13 17.86)"/><path class="cls-7" d="M284.24,106.62a1,1,0,0,1-.15-.59,1,1,0,0,1,.17-.59l6.12.12a.92.92,0,0,1,.15.58.88.88,0,0,1-.17.59Z" transform="translate(115.13 17.86)"/><path class="cls-6" d="M129.23,65.53c1.59.68,2.5,2.13,2,3.23L126.44,80c-.47,1.1-2.15,1.44-3.74.76s-2.5-2.13-2-3.24l4.82-11.22C126,65.18,127.64,64.85,129.23,65.53Z" transform="translate(115.13 17.86)"/><path class="cls-9" d="M124.35,80.07a3.17,3.17,0,0,1-1.25-.27,3,3,0,0,1-1.32-1.06,1,1,0,0,1-.16-.82l4.82-11.23a1.21,1.21,0,0,1,1.14-.48,3.17,3.17,0,0,1,1.25.27,2.88,2.88,0,0,1,1.32,1,1,1,0,0,1,.16.82l-4.82,11.23C125.36,79.88,124.92,80.07,124.35,80.07Z" transform="translate(115.13 17.86)"/><path class="cls-6" d="M-95.06.44c.72-.9,1.81-1.21,2.42-.7l6.26,5.13c.62.5.52,1.63-.2,2.52S-88.4,8.58-89,8.08L-95.27,3C-95.88,2.45-95.79,1.32-95.06.44Z" transform="translate(115.13 17.86)"/><path class="cls-10" d="M-88.29,7.29h-.07l-6.26-5.13a1.23,1.23,0,0,1,.35-1.06,1.38,1.38,0,0,1,.92-.56L-87,5.66a1.18,1.18,0,0,1-.35,1.07A1.34,1.34,0,0,1-88.29,7.29Z" transform="translate(115.13 17.86)"/><path class="cls-6" d="M294.16,210.91c-1.07.93-2.45,1.08-3.09.33l-6.55-7.56c-.64-.74-.29-2.09.78-3s2.47-1.07,3.11-.33l6.54,7.56C295.59,208.63,295.23,210,294.16,210.91Z" transform="translate(115.13 17.86)"/><path class="cls-7" d="M292.22,210.69a.5.5,0,0,1-.37-.12L285.3,203c-.17-.19,0-.94.68-1.57a2.06,2.06,0,0,1,1.27-.55.57.57,0,0,1,.38.11l6.54,7.57c.17.19,0,.94-.68,1.56A2.1,2.1,0,0,1,292.22,210.69Z" transform="translate(115.13 17.86)"/><path class="cls-6" d="M-46.26.16c.22-1.23,1.09-2.09,1.94-1.94l8.65,1.6c.84.15,1.35,1.28,1.13,2.5s-1.1,2.09-2,1.93l-8.65-1.59C-46,2.5-46.49,1.38-46.26.16Z" transform="translate(115.13 17.86)"/><path class="cls-7" d="M-44.95,1.65c-.13,0-.45-.51-.3-1.3s.55-1.12.73-1.12l8.66,1.6c.14,0,.45.51.3,1.3s-.55,1.12-.73,1.12Z" transform="translate(115.13 17.86)"/><path class="cls-6" d="M215.56,69.75c-1.54.88-3.29.74-3.89-.33l-6.23-10.88c-.61-1.07.14-2.65,1.69-3.53s3.28-.73,3.9.33l6.22,10.88C217.86,67.29,217.11,68.87,215.56,69.75Z" transform="translate(115.13 17.86)"/><path class="cls-7" d="M213.53,69.3a1.1,1.1,0,0,1-1-.39L206.33,58c-.28-.49.22-1.51,1.3-2.12a3.12,3.12,0,0,1,1.52-.45,1.09,1.09,0,0,1,1,.4l6.23,10.87c.28.5-.22,1.51-1.3,2.13A3.22,3.22,0,0,1,213.53,69.3Z" transform="translate(115.13 17.86)"/><path class="cls-6" d="M57.89,50.18c-1.07-.66-1.56-1.8-1.1-2.55l4.72-7.54c.46-.74,1.7-.8,2.77-.13s1.56,1.81,1.1,2.55l-4.72,7.55C60.2,50.79,59,50.85,57.89,50.18Z" transform="translate(115.13 17.86)"/><path class="cls-7" d="M59.4,49.62a1.9,1.9,0,0,1-1-.31,1.77,1.77,0,0,1-.72-.78.44.44,0,0,1-.05-.35l4.72-7.55a.51.51,0,0,1,.38-.11,1.91,1.91,0,0,1,1,.31,1.83,1.83,0,0,1,.72.78.58.58,0,0,1,.05.36l-4.72,7.54A.52.52,0,0,1,59.4,49.62Z" transform="translate(115.13 17.86)"/><path class="cls-6" d="M185.87,8.54c-2.39.23-4.45-.92-4.61-2.57l-1.62-16.84c-.15-1.66,1.65-3.18,4-3.41s4.45.93,4.6,2.58L189.9,5.14C190.05,6.79,188.26,8.31,185.87,8.54Z" transform="translate(115.13 17.86)"/><path class="cls-8" d="M185.26,7.54c-1.58,0-2.89-.73-3-1.67L180.67-11a1.71,1.71,0,0,1,.7-1.35,4.38,4.38,0,0,1,2.41-.93,4.07,4.07,0,0,1,.5,0c1.58,0,2.89.74,3,1.67l1.62,16.85a1.73,1.73,0,0,1-.71,1.35,4.46,4.46,0,0,1-2.4.93Z" transform="translate(115.13 17.86)"/><path class="cls-6" d="M-17.6,89.43c1.63.09,2.91,1.08,2.85,2.22l-.64,11.56c0,1.13-1.43,2-3.07,1.89s-2.92-1.08-2.86-2.21l.63-11.57C-20.62,90.19-19.25,89.34-17.6,89.43Z" transform="translate(115.13 17.86)"/><path class="cls-10" d="M-18.41,104.07c-1.18-.06-1.9-.71-1.88-1.13l.63-11.57c0-.43.81-.92,1.82-.92h.18a2.71,2.71,0,0,1,1.49.5c.12.09.41.35.39.63l-.63,11.56c0,.44-.81.93-1.82.93Z" transform="translate(115.13 17.86)"/><path class="cls-6" d="M-53.12,63.62c.28.72.1,1.46-.4,1.65l-5.12,2c-.5.19-1.13-.25-1.41-1s-.09-1.47.41-1.66l5.11-2C-54,62.46-53.4,62.89-53.12,63.62Z" transform="translate(115.13 17.86)"/><path class="cls-7" d="M-58.88,66.22a.79.79,0,0,1-.21-.32.82.82,0,0,1,0-.38l4.87-1.87a1.81,1.81,0,0,1,.19.33.88.88,0,0,1,.06.39Z" transform="translate(115.13 17.86)"/><path class="cls-6" d="M-74.81,51.74c.89-.23,1.75.09,1.9.7l1.6,6.31c.16.62-.44,1.3-1.33,1.52s-1.75-.08-1.9-.7l-1.6-6.3C-76.3,52.65-75.7,52-74.81,51.74Z" transform="translate(115.13 17.86)"/><path class="cls-9" d="M-73.22,59.32a.75.75,0,0,1-.37-.08L-75.15,53h0a2.37,2.37,0,0,1,.59-.28,1.75,1.75,0,0,1,.32,0,.61.61,0,0,1,.37.09L-72.31,59h0a2,2,0,0,1-.58.28A1.24,1.24,0,0,1-73.22,59.32Z" transform="translate(115.13 17.86)"/><path class="cls-6" d="M225.61,59.38c-.5-2,.19-3.87,1.56-4.23l14-3.58c1.38-.35,2.9,1,3.4,3s-.19,3.87-1.56,4.22l-14,3.58C227.64,62.68,226.12,61.36,225.61,59.38Z" transform="translate(115.13 17.86)"/><path class="cls-9" d="M228.56,61.35c-.68,0-1.59-.83-1.95-2.23a3.75,3.75,0,0,1,0-2.11,1.31,1.31,0,0,1,.78-.86l14-3.58.2,0c.67,0,1.59.83,2,2.23s-.12,2.79-.82,3l-14,3.58Z" transform="translate(115.13 17.86)"/><path class="cls-6" d="M-100.08,58.13c-.25-1.25.25-2.41,1.12-2.58l8.85-1.74c.86-.17,1.77.71,2,2s-.25,2.41-1.12,2.58l-8.84,1.74C-98.93,60.26-99.84,59.38-100.08,58.13Z" transform="translate(115.13 17.86)"/><path class="cls-10" d="M-98.28,59.08c-.2,0-.64-.4-.79-1.15A1.87,1.87,0,0,1-99,56.84c.07-.18.17-.27.23-.28l8.84-1.74c.22,0,.66.39.81,1.15s-.14,1.34-.31,1.37Z" transform="translate(115.13 17.86)"/><path class="cls-6" d="M-16.16,30.88c-.36-1.51.2-2.94,1.24-3.19l10.68-2.51C-3.19,24.93-2,26-1.7,27.47s-.2,2.94-1.25,3.18l-10.67,2.52C-14.67,33.42-15.81,32.39-16.16,30.88Z" transform="translate(115.13 17.86)"/><path class="cls-7" d="M-13.94,32.18c-.36,0-1-.54-1.22-1.54a2.52,2.52,0,0,1,.05-1.45c0-.13.2-.44.43-.49L-4,26.17c.44,0,1.06.54,1.29,1.54a2.6,2.6,0,0,1,0,1.45c0,.13-.2.44-.43.49l-10.68,2.52Z" transform="translate(115.13 17.86)"/><path class="cls-6" d="M145.33,92.89c.56-1.65,1.95-2.69,3.1-2.3l11.7,4c1.15.39,1.62,2,1.06,3.71s-1.94,2.69-3.09,2.3l-11.71-4C145.25,96.21,144.77,94.55,145.33,92.89Z" transform="translate(115.13 17.86)"/><path class="cls-10" d="M158.61,99.61a.52.52,0,0,1-.18,0l-11.71-4c-.32-.11-.46-.52-.51-.69a3.11,3.11,0,0,1,.09-1.72c.37-1,1.11-1.68,1.62-1.68l.17,0,11.72,4a1,1,0,0,1,.5.69,2.93,2.93,0,0,1-.09,1.72C159.86,99,159.12,99.61,158.61,99.61Z" transform="translate(115.13 17.86)"/><path class="cls-6" d="M163.74,50.31c-.51,1.76-1.92,2.9-3.14,2.54l-12.43-3.63c-1.22-.35-1.79-2.07-1.28-3.83s1.92-2.9,3.14-2.55l12.44,3.63C163.69,46.83,164.26,48.55,163.74,50.31Z" transform="translate(115.13 17.86)"/><path class="cls-8" d="M161.06,51.89a.51.51,0,0,1-.17,0l-12.43-3.62c-.58-.17-1-1.3-.58-2.56s1.13-1.87,1.69-1.87a.5.5,0,0,1,.17,0l12.44,3.63a1.06,1.06,0,0,1,.59.73,3.25,3.25,0,0,1,0,1.83C162.41,51.19,161.63,51.89,161.06,51.89Z" transform="translate(115.13 17.86)"/><path class="cls-8" d="M148.87,47.29a2.32,2.32,0,0,1,.71-2.44l12.18,3.56a.51.51,0,0,1,0,.1,2.05,2.05,0,0,1,0,1.22,1.91,1.91,0,0,1-.7,1.11Z" transform="translate(115.13 17.86)"/><path class="cls-6" d="M277.46,132.92c1-1.41,2.57-2,3.55-1.32l9.95,6.94c1,.68,1,2.37,0,3.78s-2.57,2-3.54,1.32l-9.95-6.93C276.48,136,276.49,134.33,277.46,132.92Z" transform="translate(115.13 17.86)"/><path class="cls-7" d="M288.34,142.89a.54.54,0,0,1-.35-.1L278,135.86c-.43-.3-.41-1.37.27-2.35a2.44,2.44,0,0,1,1.76-1.16.56.56,0,0,1,.35.1l9.95,6.93c.44.3.41,1.37-.27,2.35A2.42,2.42,0,0,1,288.34,142.89Z" transform="translate(115.13 17.86)"/><path class="cls-6" d="M209.25,40.05c.18-1.57,1.21-2.74,2.29-2.62l11.1,1.26c1.08.12,1.83,1.5,1.65,3.07s-1.21,2.75-2.29,2.62l-11.1-1.26C209.8,43,209.07,41.63,209.25,40.05Z" transform="translate(115.13 17.86)"/><path class="cls-7" d="M211,42.1c-.39,0-.87-.82-.75-1.93s.73-1.72,1.12-1.72l11.13,1.26c.39,0,.87.82.74,1.93s-.73,1.72-1.11,1.72Z" transform="translate(115.13 17.86)"/><path class="cls-6" d="M114.92,103.54c-.85-1-1-2.3-.27-2.89l7.12-6c.7-.59,2-.25,2.8.76s1,2.3.28,2.89l-7.13,6C117,104.89,115.77,104.55,114.92,103.54Z" transform="translate(115.13 17.86)"/><path class="cls-7" d="M116.88,103.56a1.71,1.71,0,0,1-1.17-.68,1.93,1.93,0,0,1-.48-1,.48.48,0,0,1,.08-.4l7.13-6a.34.34,0,0,1,.18,0,1.75,1.75,0,0,1,1.17.68,2,2,0,0,1,.48,1,.55.55,0,0,1-.09.41l-7.12,6A.28.28,0,0,1,116.88,103.56Z" transform="translate(115.13 17.86)"/><path class="cls-6" d="M196.08,138.12c-.26,1.71-1.44,2.95-2.63,2.77L181.35,139c-1.18-.18-1.93-1.73-1.66-3.44s1.45-2.95,2.64-2.77l12.1,1.91C195.61,134.86,196.35,136.4,196.08,138.12Z" transform="translate(115.13 17.86)"/><path class="cls-7" d="M193.62,139.87,181.51,138c-.53-.08-1-1.07-.8-2.27s.86-1.91,1.38-1.91l12.18,1.91c.32.05.53.42.61.58a2.93,2.93,0,0,1,.19,1.69c-.18,1.13-.87,1.92-1.38,1.92Z" transform="translate(115.13 17.86)"/><path class="cls-6" d="M-18.68,51c1.24-.13,2.33.46,2.42,1.32l1,8.77c.09.86-.85,1.67-2.09,1.81s-2.33-.46-2.42-1.32l-1-8.78C-20.85,52-19.92,51.14-18.68,51Z" transform="translate(115.13 17.86)"/><path class="cls-8" d="M-17.74,61.88c-.66,0-1-.29-1.05-.41l-.95-8.77a.46.46,0,0,1,.19-.29,1.9,1.9,0,0,1,1-.39h.24c.66,0,1,.29,1,.42l1,8.77c0,.14-.36.58-1.17.68Z" transform="translate(115.13 17.86)"/><path class="cls-6" d="M224.29,4.66c.12-1.82,1.23-3.23,2.5-3.14l12.83.86c1.25.08,2.17,1.62,2,3.44S240.43,9,239.17,9L226.35,8.1C225.09,8,224.17,6.47,224.29,4.66Z" transform="translate(115.13 17.86)"/><path class="cls-10" d="M226.41,7.07c-.59,0-1.18-1.05-1.09-2.35s.78-2.18,1.36-2.18l12.86.86c.59,0,1.19,1.06,1.1,2.35s-.79,2.18-1.36,2.18Z" transform="translate(115.13 17.86)"/><path class="cls-6" d="M61.4,65.54c-.54-1.11-.37-2.31.39-2.69L69.58,59c.76-.38,1.82.21,2.38,1.32s.37,2.3-.4,2.68l-7.78,3.87C63,67.23,62,66.64,61.4,65.54Z" transform="translate(115.13 17.86)"/><path class="cls-10" d="M63.27,65.93a1.41,1.41,0,0,1-1-.85c-.34-.7-.19-1.25-.07-1.31L70,59.9h0a1.36,1.36,0,0,1,1,.85c.35.7.19,1.25.08,1.31l-7.79,3.86Z" transform="translate(115.13 17.86)"/><path class="cls-6" d="M81.61,23.21c-.73-.88-.83-2-.22-2.5l6.19-5.16c.6-.5,1.69-.2,2.41.68a1.83,1.83,0,0,1,.23,2.5L84,23.88C83.43,24.38,82.34,24.08,81.61,23.21Z" transform="translate(115.13 17.86)"/><path class="cls-10" d="M83.31,23.1a1.38,1.38,0,0,1-.91-.55,1.18,1.18,0,0,1-.35-1.05l6.18-5.16h0a1.35,1.35,0,0,1,1,.54,1.25,1.25,0,0,1,.36,1.06l-6.19,5.15Z" transform="translate(115.13 17.86)"/><path class="cls-6" d="M-4.5,48.57c.31-1,1.11-1.64,1.8-1.43L4.36,49.3c.69.21,1,1.19.7,2.19s-1.12,1.64-1.81,1.43l-7-2.16C-4.49,50.55-4.8,49.57-4.5,48.57Z" transform="translate(115.13 17.86)"/><path class="cls-7" d="M-3.5,49.78a1.22,1.22,0,0,1,0-.91A1.08,1.08,0,0,1-3,48.13l7,2.15a1.27,1.27,0,0,1,0,.91,1.1,1.1,0,0,1-.54.74Z" transform="translate(115.13 17.86)"/><path class="cls-6" d="M287.28,250.5c-1.34-.45-2.17-1.58-1.86-2.51l3.19-9.46c.32-.92,1.65-1.31,3-.86s2.18,1.57,1.86,2.5l-3.19,9.47C290,250.56,288.63,251,287.28,250.5Z" transform="translate(115.13 17.86)"/><path class="cls-7" d="M288.4,249.66a2.43,2.43,0,0,1-.78-.14,2,2,0,0,1-1.17-.88.47.47,0,0,1-.06-.31l3.2-9.47c.05-.17.38-.35.89-.35a2.54,2.54,0,0,1,.8.14,2.14,2.14,0,0,1,1.05.71.58.58,0,0,1,.16.48l-3.18,9.46C289.24,249.48,288.91,249.66,288.4,249.66Z" transform="translate(115.13 17.86)"/><path class="cls-6" d="M94.17,78c.3,1.57-.33,3-1.41,3.22L81.68,83.45c-1.09.21-2.22-.88-2.53-2.46s.32-3,1.41-3.23l11.08-2.18C92.72,75.37,93.86,76.46,94.17,78Z" transform="translate(115.13 17.86)"/><path class="cls-8" d="M81.41,82.45c-.38,0-1-.59-1.25-1.66s.21-1.94.6-2l11.09-2.18c.44,0,1.1.59,1.31,1.65s-.21,1.94-.6,2L81.48,82.44Z" transform="translate(115.13 17.86)"/><path class="cls-8" d="M81.53,81.38a1.56,1.56,0,0,1-.36-.78,1.64,1.64,0,0,1,0-.87l10.58-2.08a1.58,1.58,0,0,1,.37.79,1.71,1.71,0,0,1,0,.86Z" transform="translate(115.13 17.86)"/><path class="cls-6" d="M113.45,67.85c-.49,1.56-1.77,2.55-2.84,2.22l-11-3.44c-1.08-.34-1.56-1.88-1.07-3.44s1.76-2.55,2.84-2.22l11,3.44C113.45,64.75,113.93,66.29,113.45,67.85Z" transform="translate(115.13 17.86)"/><path class="cls-10" d="M111,69.1a.32.32,0,0,1-.13,0l-11-3.44c-.4-.12-.75-1-.4-2.14.3-1,1-1.57,1.42-1.57a.28.28,0,0,1,.13,0l11,3.43c.4.13.75,1,.4,2.15C112.16,68.51,111.49,69.1,111,69.1Z" transform="translate(115.13 17.86)"/><path class="cls-6" d="M-68.08,22.59c.88.47,1.32,1.33,1,1.94l-3.29,6.16c-.32.61-1.29.71-2.17.25s-1.32-1.33-1-1.94l3.3-6.16C-69.92,22.24-68.95,22.13-68.08,22.59Z" transform="translate(115.13 17.86)"/><path class="cls-10" d="M-71.45,30.2A1.27,1.27,0,0,1-72,30a1,1,0,0,1-.56-.6l3.27-6.09a0,0,0,0,0,0,0,.92.92,0,0,1,.17,0,1.31,1.31,0,0,1,.6.17,1,1,0,0,1,.56.6l-3.27,6.09h-.18Z" transform="translate(115.13 17.86)"/><path class="cls-6" d="M319.52,65.9c-.08.06-.17.06-.21,0l-.41-.55s0-.14.06-.19.17-.07.22,0l.41.54A.16.16,0,0,1,319.52,65.9Z" transform="translate(115.13 17.86)"/><path class="cls-10" d="M319.52,65.9c-.08.06-.17.06-.21,0l-.41-.55s0-.14.06-.19.17-.07.22,0l.41.54A.16.16,0,0,1,319.52,65.9Z" transform="translate(115.13 17.86)"/><path class="cls-6" d="M-88.22,18.65c1.41.73,2.14,2.11,1.64,3.08l-5.17,9.94c-.51,1-2.06,1.17-3.46.44S-97.35,30-96.85,29l5.17-9.94C-91.18,18.11-89.63,17.92-88.22,18.65Z" transform="translate(115.13 17.86)"/><path class="cls-7" d="M-93.5,31.52a2.76,2.76,0,0,1-1.24-.32,2.63,2.63,0,0,1-1.1-1,.79.79,0,0,1-.09-.67l5.16-9.94a.94.94,0,0,1,.84-.33,2.77,2.77,0,0,1,1.24.33,2.67,2.67,0,0,1,1.1,1,.81.81,0,0,1,.09.68l-5.16,9.94A1,1,0,0,1-93.5,31.52Z" transform="translate(115.13 17.86)"/><path class="cls-6" d="M256,94.58c-1.13-2.15-.85-4.54.63-5.33l15.18-8.08c1.49-.79,3.62.32,4.77,2.47s.87,4.53-.63,5.33L260.77,97C259.29,97.83,257.15,96.73,256,94.58Z" transform="translate(115.13 17.86)"/><path class="cls-7" d="M259.72,96.27a3.72,3.72,0,0,1-2.8-2.17c-.94-1.77-.65-3.49.2-3.94l15.17-8.08a1.22,1.22,0,0,1,.57-.13,3.7,3.7,0,0,1,2.81,2.17c.84,1.59.75,3.43-.2,3.94l-15.18,8.07A1.2,1.2,0,0,1,259.72,96.27Z" transform="translate(115.13 17.86)"/><path class="cls-6" d="M318.67,58.18c-.26-1.4.32-2.68,1.29-2.86l9.89-1.82c1-.18,2,.81,2.22,2.22s-.32,2.67-1.29,2.86L320.9,60.4C319.92,60.57,318.93,59.58,318.67,58.18Z" transform="translate(115.13 17.86)"/><path class="cls-7" d="M320.66,59.39c-.3,0-.82-.53-1-1.39s.2-1.62.46-1.67L330,54.51c.34,0,.85.53,1,1.39s-.2,1.62-.46,1.66l-9.89,1.83Z" transform="translate(115.13 17.86)"/><path class="cls-6" d="M300.32,69h0Z" transform="translate(115.13 17.86)"/><path class="cls-7" d="M300.32,69h0Z" transform="translate(115.13 17.86)"/><path class="cls-6" d="M141.12,58c-1.66.78-3.45.48-4-.67l-5.51-11.76c-.53-1.14.38-2.71,2-3.49s3.45-.48,4,.67l5.52,11.75C143.7,55.64,142.79,57.21,141.12,58Z" transform="translate(115.13 17.86)"/><path class="cls-7" d="M139.27,57.4a1.29,1.29,0,0,1-1.21-.52l-5.51-11.75a1.14,1.14,0,0,1,.16-.94A3.18,3.18,0,0,1,134.1,43a3.39,3.39,0,0,1,1.42-.34,1.26,1.26,0,0,1,1.2.52l5.52,11.75c.25.55-.36,1.57-1.55,2.13A3.43,3.43,0,0,1,139.27,57.4Z" transform="translate(115.13 17.86)"/><path class="cls-6" d="M40,28.73c-.76-.2-1.25-.8-1.1-1.32l1.48-5.3c.15-.52.88-.78,1.63-.56s1.24.8,1.09,1.32l-1.48,5.3C41.51,28.69,40.78,29,40,28.73Z" transform="translate(115.13 17.86)"/><path class="cls-7" d="M40.56,27.78a.82.82,0,0,1-.26,0,.8.8,0,0,1-.34-.18l1.41-5h.14a.77.77,0,0,1,.25,0,.86.86,0,0,1,.35.18L40.7,27.77Z" transform="translate(115.13 17.86)"/><path class="cls-6" d="M235.07,84.8c.11,1.72-.76,3.17-1.94,3.25L221,88.84c-1.18.08-2.24-1.25-2.35-3s.76-3.16,2-3.24l12.1-.79C233.9,81.76,235,83.09,235.07,84.8Z" transform="translate(115.13 17.86)"/><path class="cls-7" d="M220.92,87.82c-.51,0-1.14-.86-1.23-2s.46-2.12,1-2.15l12.1-.8c.55,0,1.19.86,1.26,2s-.45,2.12-1,2.15Z" transform="translate(115.13 17.86)"/><path class="cls-6" d="M-75.47-16.23c-.12.34-.41.55-.65.47l-2.41-.85c-.23-.08-.33-.43-.21-.77s.41-.55.65-.47l2.41.85C-75.45-16.92-75.35-16.58-75.47-16.23Z" transform="translate(115.13 17.86)"/><path class="cls-7" d="M-75.47-16.23c-.12.34-.41.55-.65.47l-2.41-.85c-.23-.08-.33-.43-.21-.77s.41-.55.65-.47l2.41.85C-75.45-16.92-75.35-16.58-75.47-16.23Z" transform="translate(115.13 17.86)"/><path class="cls-6" d="M269.85,201.88c-1.44-1-2-2.57-1.36-3.56l6.89-10.08c.67-1,2.38-1,3.81,0s2,2.57,1.37,3.56l-6.9,10.09C273,202.85,271.27,202.86,269.85,201.88Z" transform="translate(115.13 17.86)"/><path class="cls-8" d="M272,201.58a3.13,3.13,0,0,1-2.68-1.84,1,1,0,0,1,0-.83l6.9-10.09a1,1,0,0,1,.79-.3,2.88,2.88,0,0,1,1.59.55,2.68,2.68,0,0,1,1.17,1.57.8.8,0,0,1-.07.56l-6.9,10.08A1,1,0,0,1,272,201.58Z" transform="translate(115.13 17.86)"/><path class="cls-6" d="M306.53,31.39c-1.5-.32-2.54-1.42-2.32-2.46l2.24-10.61c.23-1,1.62-1.62,3.13-1.31s2.54,1.42,2.32,2.46l-2.25,10.61C309.44,31.12,308,31.7,306.53,31.39Z" transform="translate(115.13 17.86)"/><path class="cls-8" d="M307.35,30.45a3.16,3.16,0,0,1-.6-.07,2.49,2.49,0,0,1-1.27-.66c-.09-.1-.31-.35-.26-.58l2.25-10.61c0-.27.56-.57,1.29-.57a3.05,3.05,0,0,1,.6.06,2.49,2.49,0,0,1,1.28.66c.09.1.31.35.25.58l-2.24,10.61C308.6,30.14,308.08,30.45,307.35,30.45Z" transform="translate(115.13 17.86)"/><path class="cls-6" d="M262.68,41.85c.2-1,.92-1.71,1.61-1.57l7.08,1.37c.7.13,1.1,1.05.9,2.06s-.91,1.7-1.59,1.57l-7.09-1.37C262.9,43.77,262.49,42.85,262.68,41.85Z" transform="translate(115.13 17.86)"/><path class="cls-8" d="M263.79,42.9a1.24,1.24,0,0,1-.09-.85,1,1,0,0,1,.44-.76l7,1.36a1.29,1.29,0,0,1,.09.86,1.08,1.08,0,0,1-.43.75Z" transform="translate(115.13 17.86)"/><path class="cls-6" d="M218.45,100.87a1.65,1.65,0,0,1,2.24-.22l4.66,5.49c.46.54.2,1.51-.58,2.17s-1.78.77-2.23.23l-4.67-5.49C217.41,102.51,217.67,101.54,218.45,100.87Z" transform="translate(115.13 17.86)"/><path class="cls-8" d="M223.37,107.86a.15.15,0,0,1-.08,0l-4.64-5.46a1.48,1.48,0,0,1,1.2-1l4.72,5.48a1.45,1.45,0,0,1-1.2,1Z" transform="translate(115.13 17.86)"/><path class="cls-6" d="M298.54,74.87c-1.39-.74-2.09-2.13-1.57-3.09L302.26,62c.51-1,2.06-1.13,3.44-.38s2.09,2.13,1.58,3.09L302,74.49C301.47,75.45,299.93,75.62,298.54,74.87Z" transform="translate(115.13 17.86)"/><path class="cls-9" d="M300.28,74.31A2.7,2.7,0,0,1,299,74a2.48,2.48,0,0,1-1.07-1,.83.83,0,0,1-.09-.67l5.29-9.78a.9.9,0,0,1,.8-.31,2.57,2.57,0,0,1,1.25.35,2.61,2.61,0,0,1,1.08,1,.83.83,0,0,1,.08.67L301.08,74C301,74.2,300.68,74.31,300.28,74.31Z" transform="translate(115.13 17.86)"/><path class="cls-6" d="M27.2,1.67c1,1.38,1.12,3.08.17,3.8l-9.7,7.37c-1,.72-2.57.2-3.61-1.18s-1.13-3.08-.17-3.79L23.59.49C24.54-.23,26.15.3,27.2,1.67Z" transform="translate(115.13 17.86)"/><path class="cls-9" d="M16.65,12.14A2.55,2.55,0,0,1,14.87,11a2.94,2.94,0,0,1-.62-1.57,1,1,0,0,1,.26-.79l9.7-7.37a.67.67,0,0,1,.39-.12,2.52,2.52,0,0,1,1.78,1.1c.73,1,.79,2,.37,2.36L17.05,12A.62.62,0,0,1,16.65,12.14Z" transform="translate(115.13 17.86)"/><path class="cls-6" d="M18.52,30c1-.44,2-.24,2.34.44L24,37.42c.31.69-.25,1.6-1.23,2s-2,.25-2.33-.43l-3.11-7C17,31.39,17.54,30.48,18.52,30Z" transform="translate(115.13 17.86)"/><path class="cls-7" d="M21.67,38.66a.58.58,0,0,1-.35-.08l-3.09-6.93A1.2,1.2,0,0,1,19,31a1.58,1.58,0,0,1,.63-.15.55.55,0,0,1,.35.09L23,37.84a1.21,1.21,0,0,1-.72.67A1.46,1.46,0,0,1,21.67,38.66Z" transform="translate(115.13 17.86)"/><path class="cls-6" d="M81.69-9.26c.73.79.88,1.85.33,2.35l-5.6,5.15c-.55.51-1.59.27-2.32-.53a1.75,1.75,0,0,1-.33-2.35l5.61-5.15C79.93-10.29,81-10,81.69-9.26Z" transform="translate(115.13 17.86)"/><path class="cls-7" d="M75.68-2.52A1.3,1.3,0,0,1,74.86-3a1.09,1.09,0,0,1-.37-.92L80.07-9a1.36,1.36,0,0,1,.87.46,1.1,1.1,0,0,1,.37.92L75.72-2.52Z" transform="translate(115.13 17.86)"/><path class="cls-6" d="M298.22,82.64c.88-.39,1.83-.22,2.1.4l2.81,6.27c.28.61-.23,1.44-1.12,1.83s-1.83.22-2.1-.39l-2.8-6.28C296.83,83.86,297.32,83,298.22,82.64Z" transform="translate(115.13 17.86)"/><path class="cls-7" d="M301.07,90.33a.56.56,0,0,1-.26,0l-2.76-6.22a1.29,1.29,0,0,1,.58-.48,1.36,1.36,0,0,1,.54-.12.43.43,0,0,1,.25.05l2.77,6.22a1.46,1.46,0,0,1-.59.47A1.37,1.37,0,0,1,301.07,90.33Z" transform="translate(115.13 17.86)"/><path class="cls-6" d="M283.47,36.25c1.16-.81,2.55-.81,3.11,0l5.66,8.18c.55.8.07,2.1-1.09,2.9s-2.55.81-3.1,0l-5.66-8.17C281.83,38.35,282.32,37.05,283.47,36.25Z" transform="translate(115.13 17.86)"/><path class="cls-8" d="M289.37,46.9a.63.63,0,0,1-.48-.16l-5.66-8.18a.62.62,0,0,1,0-.5,2.23,2.23,0,0,1,.81-1,2.26,2.26,0,0,1,1.2-.42.57.57,0,0,1,.47.16L291.39,45c.16.22-.05.94-.83,1.48A2.23,2.23,0,0,1,289.37,46.9Z" transform="translate(115.13 17.86)"/><path class="cls-6" d="M340.49,31.7c1.26-.67,2.67-.5,3.14.37l4.75,9c.46.88-.19,2.13-1.46,2.81s-2.67.51-3.14-.37l-4.75-9C338.57,33.63,339.22,32.38,340.49,31.7Z" transform="translate(115.13 17.86)"/><path class="cls-10" d="M345.35,43.22c-.32,0-.59-.09-.66-.23l-4.75-9c-.14-.27.19-1,1-1.42a2.44,2.44,0,0,1,1.1-.29c.32,0,.59.09.66.24l4.74,8.95a.57.57,0,0,1-.08.53,2.2,2.2,0,0,1-.94.89A2.4,2.4,0,0,1,345.35,43.22Z" transform="translate(115.13 17.86)"/><path class="cls-6" d="M95.39,101.13c-1.21-.38-2-1.36-1.72-2.19l2.65-8.54c.25-.83,1.44-1.2,2.65-.83s2,1.35,1.72,2.19l-2.64,8.53C97.79,101.13,96.6,101.5,95.39,101.13Z" transform="translate(115.13 17.86)"/><path class="cls-7" d="M96.33,100.24a2,2,0,0,1-.63-.1,1.68,1.68,0,0,1-1-.71.32.32,0,0,1,0-.19l2.65-8.53c0-.08.28-.26.74-.26a2.06,2.06,0,0,1,.63.1,1.73,1.73,0,0,1,1,.71.29.29,0,0,1,0,.2L97.07,100C97,100.07,96.79,100.24,96.33,100.24Z" transform="translate(115.13 17.86)"/><path class="cls-6" d="M125.47,125.47c-.53.56-1.28.72-1.67.36l-4-3.76a1.24,1.24,0,0,1,.26-1.69c.53-.57,1.28-.73,1.67-.36l4,3.76C126.12,124.14,126,124.9,125.47,125.47Z" transform="translate(115.13 17.86)"/><path class="cls-7" d="M120.61,121.41a1,1,0,0,1,.19-.33.92.92,0,0,1,.33-.22l3.79,3.57a.76.76,0,0,1-.2.33.73.73,0,0,1-.32.22Z" transform="translate(115.13 17.86)"/><path class="cls-6" d="M239.73,27.81c.72.3,1.12,1,.92,1.45l-2.15,5.05c-.22.49-1,.64-1.69.33s-1.12-1-.91-1.44l2.15-5.05A1.26,1.26,0,0,1,239.73,27.81Z" transform="translate(115.13 17.86)"/><path class="cls-9" d="M237.56,33.78a.84.84,0,0,1-.34-.08.8.8,0,0,1-.32-.23l2-4.79H239a.84.84,0,0,1,.33.08.68.68,0,0,1,.31.22l-2,4.79Z" transform="translate(115.13 17.86)"/><path class="cls-6" d="M343.64-9.45c.77-1,2-1.42,2.68-.89l7.2,5.43c.71.53.66,1.79-.11,2.81s-2,1.42-2.67.89l-7.21-5.43C342.83-7.17,342.87-8.43,343.64-9.45Z" transform="translate(115.13 17.86)"/><path class="cls-8" d="M351.49-2a.25.25,0,0,1-.13,0l-7.21-5.43s-.09-.16-.08-.36a1.78,1.78,0,0,1,.39-1,1.6,1.6,0,0,1,1.11-.71s.1,0,.12,0l7.22,5.42c.13.11.16.73-.32,1.37A1.61,1.61,0,0,1,351.49-2Z" transform="translate(115.13 17.86)"/><path class="cls-6" d="M-27,31.26c-.79.62-1.77.69-2.2.15l-4.38-5.5c-.43-.54-.15-1.48.63-2.1s1.76-.69,2.19-.15l4.39,5.5C-26,29.7-26.26,30.64-27,31.26Z" transform="translate(115.13 17.86)"/><path class="cls-10" d="M-28.37,30.74h-.09l-4.34-5.46a1.32,1.32,0,0,1,.46-.66,1.25,1.25,0,0,1,.7-.29l4.43,5.48a1.32,1.32,0,0,1-.46.66A1.22,1.22,0,0,1-28.37,30.74Z" transform="translate(115.13 17.86)"/><path class="cls-6" d="M-62.8,43.83a0,0,0,0,1,0,0l.1.1a0,0,0,0,1,0,0s0,0,0,0l-.1-.11A0,0,0,0,1-62.8,43.83Z" transform="translate(115.13 17.86)"/><path class="cls-10" d="M-62.8,43.83a0,0,0,0,1,0,0l.1.1a0,0,0,0,1,0,0s0,0,0,0l-.1-.11A0,0,0,0,1-62.8,43.83Z" transform="translate(115.13 17.86)"/><path class="cls-6" d="M49.31,9.28c.56-1.79,2-2.93,3.26-2.54l12.66,4c1.24.39,1.79,2.16,1.23,3.95s-2,2.94-3.27,2.55l-12.66-4C49.29,12.84,48.74,11.07,49.31,9.28Z" transform="translate(115.13 17.86)"/><path class="cls-7" d="M63.69,16.25l-.19,0-12.66-4a1.1,1.1,0,0,1-.61-.77,3.23,3.23,0,0,1,.06-1.89c.37-1.19,1.2-1.9,1.78-1.9a.58.58,0,0,1,.19,0l12.66,4c.6.19,1,1.37.55,2.67S64.28,16.25,63.69,16.25Z" transform="translate(115.13 17.86)"/><path class="cls-6" d="M40.66,88.93c.66,1.41.41,2.92-.56,3.39L30.17,97c-1,.46-2.3-.31-3-1.71s-.41-2.92.56-3.38l9.93-4.69C38.67,86.76,40,87.53,40.66,88.93Z" transform="translate(115.13 17.86)"/><path class="cls-7" d="M29.57,96.11a2,2,0,0,1-1.43-1.26,2.54,2.54,0,0,1-.25-1.44c0-.14.1-.47.32-.57l9.93-4.69a.29.29,0,0,1,.16,0,2,2,0,0,1,1.43,1.25A2.55,2.55,0,0,1,40,90.81c0,.14-.1.47-.32.57l-9.93,4.7A.41.41,0,0,1,29.57,96.11Z" transform="translate(115.13 17.86)"/><path class="cls-6" d="M196.26,103.28c1.57.2,2.72,1.23,2.58,2.31l-1.39,11c-.14,1.08-1.52,1.8-3.08,1.6s-2.71-1.23-2.57-2.31l1.39-11C193.33,103.8,194.71,103.08,196.26,103.28Z" transform="translate(115.13 17.86)"/><path class="cls-9" d="M194.89,117.2a2.66,2.66,0,0,1-.39,0c-1.09-.14-1.73-.78-1.68-1.16l1.39-11c0-.35.68-.73,1.54-.73l.39,0c1.09.13,1.72.77,1.68,1.15l-1.39,11C196.38,116.82,195.76,117.2,194.89,117.2Z" transform="translate(115.13 17.86)"/><path class="cls-6" d="M261.05,25c-1.61-.33-2.73-1.5-2.51-2.62L260.89,11c.23-1.11,1.72-1.75,3.34-1.42s2.73,1.51,2.5,2.63l-2.35,11.38C264.16,24.69,262.67,25.33,261.05,25Z" transform="translate(115.13 17.86)"/><path class="cls-7" d="M261.91,24.06a3.5,3.5,0,0,1-.65-.07,2.72,2.72,0,0,1-1.41-.73c-.1-.11-.35-.4-.29-.68L261.9,11.2c.07-.33.64-.69,1.47-.69a3.5,3.5,0,0,1,.65.07,2.71,2.71,0,0,1,1.4.72c.11.12.36.41.3.69l-2.34,11.38C263.31,23.7,262.74,24.06,261.91,24.06Z" transform="translate(115.13 17.86)"/><path class="cls-6" d="M27.4,124.3c.7-.62,1.62-.74,2.05-.25L33.84,129c.43.49.21,1.39-.49,2s-1.61.73-2,.25l-4.4-4.94C26.48,125.82,26.71,124.92,27.4,124.3Z" transform="translate(115.13 17.86)"/><path class="cls-10" d="M32,130.51l-4.33-4.89h0a1.89,1.89,0,0,1,.4-.55,1,1,0,0,1,.61-.3l4.37,4.9h0a2.16,2.16,0,0,1-.4.55,1,1,0,0,1-.62.29Z" transform="translate(115.13 17.86)"/><path class="cls-6" d="M38.68,116.13c-1,1-2.28,1.26-3,.61l-7-6.7c-.69-.66-.48-2,.47-3s2.27-1.26,3-.61l7,6.7C39.84,113.8,39.63,115.13,38.68,116.13Z" transform="translate(115.13 17.86)"/><path class="cls-8" d="M36.69,116.07a.38.38,0,0,1-.26-.08l-7-6.7c-.18-.16-.12-.87.5-1.53a1.88,1.88,0,0,1,1.25-.64.38.38,0,0,1,.26.07l7,6.7c.18.16.12.87-.5,1.53A2,2,0,0,1,36.69,116.07Z" transform="translate(115.13 17.86)"/><path class="cls-6" d="M-115.11,23.81c0-.09.11-.14.16-.11l.59.26c.06,0,.07.1,0,.19s-.11.13-.17.1l-.59-.25S-115.15,23.89-115.11,23.81Z" transform="translate(115.13 17.86)"/><path class="cls-7" d="M-115.11,23.81c0-.09.11-.14.16-.11l.59.26c.06,0,.07.1,0,.19s-.11.13-.17.1l-.59-.25S-115.15,23.89-115.11,23.81Z" transform="translate(115.13 17.86)"/><path class="cls-6" d="M107.6,50.49c-1.82,1.43-4.1,1.57-5.09.32L92.38,38c-1-1.26-.32-3.44,1.5-4.88S98,31.51,99,32.76L109.1,45.61C110.09,46.87,109.42,49.05,107.6,50.49Z" transform="translate(115.13 17.86)"/><path class="cls-11" d="M104.51,50.63a1.53,1.53,0,0,1-1.19-.46L93.19,37.33c-.55-.7-.14-2.28,1.33-3.44a4.11,4.11,0,0,1,2.45-1,1.51,1.51,0,0,1,1.2.46l10.12,12.85a1.58,1.58,0,0,1,.13,1.43,4.35,4.35,0,0,1-1.45,2A4.14,4.14,0,0,1,104.51,50.63Z" transform="translate(115.13 17.86)"/><path class="cls-7" d="M104.43,49.09,94.5,36.5a2.4,2.4,0,0,1,1-1.39,2.66,2.66,0,0,1,1.5-.63h.08L107,47.08a.5.5,0,0,1,0,.14,2.89,2.89,0,0,1-.94,1.25,2.71,2.71,0,0,1-1.5.62Z" transform="translate(115.13 17.86)"/><path class="cls-6" d="M87.06,58.9a.15.15,0,0,1-.07.18l-.58.16a.15.15,0,0,1-.15-.13c0-.08,0-.16.06-.17l.59-.17C87,58.76,87,58.82,87.06,58.9Z" transform="translate(115.13 17.86)"/><path class="cls-10" d="M87.06,58.9a.15.15,0,0,1-.07.18l-.58.16a.15.15,0,0,1-.15-.13c0-.08,0-.16.06-.17l.59-.17C87,58.76,87,58.82,87.06,58.9Z" transform="translate(115.13 17.86)"/><path class="cls-6" d="M-73.65,7.81h0v0h0v.07Z" transform="translate(115.13 17.86)"/><path class="cls-7" d="M-73.65,7.81h0v0h0v.07Z" transform="translate(115.13 17.86)"/><path class="cls-6" d="M207.17,8.52c.78-1,2-1.3,2.62-.75l6.76,5.54c.67.54.57,1.76-.22,2.71s-2,1.3-2.62.75L207,11.24C206.29,10.69,206.39,9.48,207.17,8.52Z" transform="translate(115.13 17.86)"/><path class="cls-7" d="M214.49,16a.23.23,0,0,1-.13,0l-6.76-5.54s-.07-.13,0-.32a1.69,1.69,0,0,1,.41-.95A1.56,1.56,0,0,1,209,8.53a.3.3,0,0,1,.12,0l6.76,5.54a.42.42,0,0,1,.06.32,1.87,1.87,0,0,1-.42.95A1.59,1.59,0,0,1,214.49,16Z" transform="translate(115.13 17.86)"/><path class="cls-6" d="M-59.63,92.64c-.51.64-1.28.89-1.73.54l-4.59-3.58c-.45-.35-.4-1.16.1-1.81s1.29-.89,1.74-.54l4.58,3.57C-59.08,91.17-59.12,92-59.63,92.64Z" transform="translate(115.13 17.86)"/><path class="cls-7" d="M-65.23,88.86a.93.93,0,0,1,.2-.44,1,1,0,0,1,.37-.3l4.42,3.44a.9.9,0,0,1-.2.44.88.88,0,0,1-.38.3Z" transform="translate(115.13 17.86)"/><path class="cls-6" d="M21.84,60.81c1.84-.2,3.44.66,3.58,1.93l1.44,13c.14,1.28-1.24,2.48-3.08,2.68s-3.45-.67-3.59-1.94l-1.43-13C18.61,62.21,20,61,21.84,60.81Z" transform="translate(115.13 17.86)"/><path class="cls-10" d="M23.24,77.41c-1.18,0-2-.55-2-1l-1.43-13a1.09,1.09,0,0,1,.45-.85A3.27,3.27,0,0,1,22,61.83l.42,0c1.18,0,2,.54,2,1l1.43,13a1.11,1.11,0,0,1-.44.85,3.3,3.3,0,0,1-1.73.69Z" transform="translate(115.13 17.86)"/><path class="cls-6" d="M-92.88,70.89c.8.25,1.31.91,1.13,1.46L-93.53,78c-.18.55-1,.8-1.76.54s-1.31-.9-1.14-1.46l1.78-5.65C-94.47,70.88-93.68,70.64-92.88,70.89Z" transform="translate(115.13 17.86)"/><path class="cls-7" d="M-94.66,77.61a1.26,1.26,0,0,1-.33,0,.93.93,0,0,1-.43-.26l1.72-5.45a.44.44,0,0,1,.19,0,1.25,1.25,0,0,1,.32.05,1,1,0,0,1,.43.27l-1.72,5.45Z" transform="translate(115.13 17.86)"/><path class="cls-6" d="M165.21,82.37c1.41-1.72,3.51-2.32,4.7-1.35l12.14,10c1.19,1,1,3.16-.4,4.87s-3.52,2.33-4.7,1.35l-12.14-9.94C163.61,86.27,163.79,84.09,165.21,82.37Z" transform="translate(115.13 17.86)"/><path class="cls-9" d="M178.33,96.63a1.14,1.14,0,0,1-.73-.23l-12.14-10a1.48,1.48,0,0,1-.4-1.28A4,4,0,0,1,166,83a3.58,3.58,0,0,1,2.51-1.43,1.08,1.08,0,0,1,.74.23l12.14,9.94a1.48,1.48,0,0,1,.4,1.28,4,4,0,0,1-.94,2.15A3.58,3.58,0,0,1,178.33,96.63Z" transform="translate(115.13 17.86)"/><path class="cls-6" d="M92.76,117.43c1.73-1.44,3.92-1.64,4.92-.45l10.15,12.14c1,1.19.41,3.32-1.32,4.76s-3.92,1.64-4.91.45L91.45,122.19C90.45,121,91,118.87,92.76,117.43Z" transform="translate(115.13 17.86)"/><path class="cls-12" d="M103.46,134.08a1.39,1.39,0,0,1-1.08-.41L92.24,121.53a1.54,1.54,0,0,1-.16-1.36,4.12,4.12,0,0,1,1.34-2,4,4,0,0,1,2.4-1,1.4,1.4,0,0,1,1.08.41L107,129.78c.54.64.18,2.16-1.19,3.31A3.94,3.94,0,0,1,103.46,134.08Z" transform="translate(115.13 17.86)"/><path class="cls-7" d="M103.46,133.05a.74.74,0,0,1-.3-.05L93,120.87a.86.86,0,0,1,0-.42,3.13,3.13,0,0,1,1-1.44,3,3,0,0,1,1.74-.75.74.74,0,0,1,.3,0l10.13,12.13a2.38,2.38,0,0,1-1.06,1.86A3,3,0,0,1,103.46,133.05Z" transform="translate(115.13 17.86)"/><path class="cls-6" d="M168.36,62.81c.65.9.68,2,0,2.46L162,69.9c-.63.46-1.67.09-2.33-.82s-.68-2-.05-2.46L166,62C166.66,61.53,167.7,61.9,168.36,62.81Z" transform="translate(115.13 17.86)"/><path class="cls-7" d="M161.37,69.07a1.31,1.31,0,0,1-.86-.59,1.19,1.19,0,0,1-.28-1l6.4-4.63a1.25,1.25,0,0,1,.9.59,1.17,1.17,0,0,1,.27,1l-6.4,4.63Z" transform="translate(115.13 17.86)"/><path class="cls-6" d="M337,88.61c.39,1.2.05,2.39-.78,2.66l-8.42,2.8c-.83.27-1.82-.47-2.22-1.66s0-2.39.78-2.66l8.43-2.8C335.56,86.67,336.55,87.42,337,88.61Z" transform="translate(115.13 17.86)"/><path class="cls-7" d="M327.4,93.1c-.19,0-.65-.31-.89-1s0-1.31.13-1.36l8.42-2.79c.22,0,.68.3.92,1s0,1.31-.13,1.35l-8.43,2.81Z" transform="translate(115.13 17.86)"/><path class="cls-6" d="M-99,131.15c-.28.61-.85.94-1.27.74l-4.26-2a1.08,1.08,0,0,1-.25-1.45c.29-.6.86-.94,1.27-.74l4.27,2C-98.81,129.9-98.7,130.55-99,131.15Z" transform="translate(115.13 17.86)"/><path class="cls-7" d="M-103.88,129.05a.49.49,0,0,1,0-.18,1,1,0,0,1,.1-.15l3.88,1.82a.7.7,0,0,1-.06.17.55.55,0,0,1-.1.16Z" transform="translate(115.13 17.86)"/><path class="cls-6" d="M336.64,71.7c-1-1.43-1.09-3.17-.1-3.9l10.06-7.38c1-.72,2.64-.15,3.69,1.28s1.1,3.17.1,3.89L340.32,73C339.34,73.69,337.69,73.12,336.64,71.7Z" transform="translate(115.13 17.86)"/><path class="cls-7" d="M339.32,72.26a2.53,2.53,0,0,1-1.84-1.17,3,3,0,0,1-.62-1.63,1,1,0,0,1,.29-.82l10.07-7.38a.62.62,0,0,1,.4-.12,2.58,2.58,0,0,1,1.84,1.16,3,3,0,0,1,.62,1.64,1,1,0,0,1-.29.82l-10.07,7.38A.63.63,0,0,1,339.32,72.26Z" transform="translate(115.13 17.86)"/><path class="cls-6" d="M331.54,24.69C330,24.26,329,23.05,329.27,22l3-10.93c.29-1.07,1.79-1.59,3.34-1.17s2.56,1.64,2.26,2.71l-3,10.93C334.57,24.59,333.08,25.11,331.54,24.69Z" transform="translate(115.13 17.86)"/><path class="cls-7" d="M332.6,23.81a2.76,2.76,0,0,1-.79-.12,2.62,2.62,0,0,1-1.31-.77.89.89,0,0,1-.25-.67l3-10.93c.09-.32.64-.56,1.27-.56a2.82,2.82,0,0,1,.8.12,2.54,2.54,0,0,1,1.32.77c.08.12.3.41.23.67l-3,10.93C333.79,23.57,333.25,23.81,332.6,23.81Z" transform="translate(115.13 17.86)"/><path class="cls-6" d="M-39.7,81.12c-1.48-.38-2.47-1.52-2.2-2.54l2.69-10.44c.26-1,1.68-1.54,3.16-1.16s2.46,1.52,2.2,2.54L-36.54,80C-36.81,81-38.22,81.5-39.7,81.12Z" transform="translate(115.13 17.86)"/><path class="cls-7" d="M-38.74,80.22a2.86,2.86,0,0,1-.7-.09c-1-.27-1.55-.95-1.46-1.29l2.69-10.44c.06-.25.53-.51,1.19-.51a2.94,2.94,0,0,1,.71.09c1,.26,1.55,1,1.46,1.29l-2.69,10.44C-37.6,80-38.07,80.22-38.74,80.22Z" transform="translate(115.13 17.86)"/><path class="cls-6" d="M172.35,52.78c-2.53.23-4.7-1-4.86-2.75l-1.6-17.85c-.15-1.75,1.77-3.35,4.3-3.57s4.7,1,4.86,2.75l1.6,17.85C176.8,51,174.89,52.56,172.35,52.78Z" transform="translate(115.13 17.86)"/><path class="cls-10" d="M171.76,51.78c-1.73,0-3.16-.81-3.25-1.85l-1.59-17.84a1.87,1.87,0,0,1,.77-1.48,4.84,4.84,0,0,1,2.6-1,4,4,0,0,1,.49,0c1.73,0,3.16.81,3.25,1.84l1.6,17.85a1.88,1.88,0,0,1-.78,1.48,4.8,4.8,0,0,1-2.58,1Z" transform="translate(115.13 17.86)"/><path class="cls-10" d="M171.76,50.24a2.56,2.56,0,0,1-1.72-.51L168.46,32a1.05,1.05,0,0,1,.22-.23,3.21,3.21,0,0,1,1.74-.63l.36,0a2.34,2.34,0,0,1,1.74.54l1.56,17.67a1.05,1.05,0,0,1-.22.23,3.2,3.2,0,0,1-1.73.63Z" transform="translate(115.13 17.86)"/><path class="cls-6" d="M40.92,39.34c1.59,0,2.89.85,2.91,1.94L44,52.48c0,1.09-1.26,2-2.84,2s-2.89-.85-2.9-1.94l-.16-11.19C38.07,40.27,39.34,39.36,40.92,39.34Z" transform="translate(115.13 17.86)"/><path class="cls-9" d="M41.08,53.47c-1.1,0-1.81-.55-1.81-.93l-.16-11.19c0-.26.27-.48.39-.56a2.53,2.53,0,0,1,1.44-.42h0c1.14,0,1.85.55,1.85.93L43,52.49c0,.39-.7,1-1.83,1Z" transform="translate(115.13 17.86)"/><path class="cls-6" d="M-57.69-11.51c1.2,1,1.59,2.55.87,3.39L-64.14.34c-.72.83-2.28.66-3.48-.38s-1.59-2.55-.87-3.38l7.33-8.46C-60.44-12.72-58.89-12.54-57.69-11.51Z" transform="translate(115.13 17.86)"/><path class="cls-9" d="M-65.43-.17a2.45,2.45,0,0,1-1.51-.65,2.55,2.55,0,0,1-.83-1.24.81.81,0,0,1,.06-.69l7.33-8.46a.68.68,0,0,1,.5-.17,2.45,2.45,0,0,1,1.52.65,2.6,2.6,0,0,1,.83,1.25c0,.14.1.49-.07.68L-64.92-.33A.74.74,0,0,1-65.43-.17Z" transform="translate(115.13 17.86)"/><path class="cls-6" d="M-8.2,7.81C-7.33,6.73-6,6.35-5.28,7l7.6,6.15c.75.6.65,2-.22,3S-.08,17.6-.83,17l-7.6-6.15C-9.18,10.25-9.08,8.89-8.2,7.81Z" transform="translate(115.13 17.86)"/><path class="cls-8" d="M0,16.25a.31.31,0,0,1-.21-.06l-7.6-6.14a.56.56,0,0,1-.12-.47,2.11,2.11,0,0,1,.5-1.12,1.83,1.83,0,0,1,1.27-.77.28.28,0,0,1,.2.06l7.61,6.14a.6.6,0,0,1,.11.47,2.24,2.24,0,0,1-.49,1.13A1.89,1.89,0,0,1,0,16.25Z" transform="translate(115.13 17.86)"/><path class="cls-6" d="M269.07,56.54c1.33,1.34,1.66,3.18.73,4.1l-9.49,9.42c-.93.92-2.77.58-4.11-.77s-1.65-3.18-.73-4.11l9.5-9.41C265.9,54.85,267.74,55.19,269.07,56.54Z" transform="translate(115.13 17.86)"/><path class="cls-10" d="M258.93,69.55a3,3,0,0,1-2-1c-1-1-1.19-2.21-.74-2.65l9.49-9.42a1,1,0,0,1,.66-.22,3,3,0,0,1,2,1c1,1,1.19,2.21.73,2.65l-9.49,9.42A.92.92,0,0,1,258.93,69.55Z" transform="translate(115.13 17.86)"/><path class="cls-6" d="M198.78,69.64c0,1.63-.93,2.94-2.06,2.93l-11.47,0c-1.12,0-2-1.33-2-3s.92-2.94,2.05-2.94l11.47,0C197.88,66.69,198.79,68,198.78,69.64Z" transform="translate(115.13 17.86)"/><path class="cls-10" d="M185.26,71.5c-.41,0-1-.75-1-1.92s.61-1.91,1-1.91l11.48,0c.41,0,1,.74,1,1.92s-.61,1.91-1,1.91Z" transform="translate(115.13 17.86)"/><path class="cls-6" d="M308.37-1.21c.57-1.25,1.73-1.94,2.59-1.55l8.81,4c.87.39,1.1,1.72.53,3s-1.73,1.94-2.59,1.54l-8.82-4C308,1.37,307.8,0,308.37-1.21Z" transform="translate(115.13 17.86)"/><path class="cls-7" d="M318.22,4.86h-.09l-8.8-4c-.23-.09-.4-.78,0-1.6a1.63,1.63,0,0,1,1.14-1.06l8.9,4c.22.1.4.79,0,1.61A1.59,1.59,0,0,1,318.22,4.86Z" transform="translate(115.13 17.86)"/><path class="cls-6" d="M-54.82,49.66c.42-1.78,1.76-3,3-2.69l12.54,3c1.23.29,1.89,2,1.47,3.75s-1.76,3-3,2.69l-12.55-3C-54.58,53.11-55.24,51.44-54.82,49.66Z" transform="translate(115.13 17.86)"/><path class="cls-7" d="M-40.43,55.38l-.13,0-12.56-3c-.57-.13-1-1.24-.7-2.51S-52.76,48-52.2,48h.13l12.55,3c.36.09.56.52.63.69a3.17,3.17,0,0,1,.07,1.82C-39.1,54.63-39.88,55.38-40.43,55.38Z" transform="translate(115.13 17.86)"/><path class="cls-6" d="M141.23,25.39c-2-.44-3.31-1.89-3-3.25L141.3,8.29c.3-1.35,2.14-2.1,4.1-1.67s3.31,1.89,3,3.25l-3.07,13.85C145,25.08,143.19,25.83,141.23,25.39Z" transform="translate(115.13 17.86)"/><path class="cls-7" d="M142.35,24.48a3.92,3.92,0,0,1-.89-.1,3.59,3.59,0,0,1-1.83-1,1.25,1.25,0,0,1-.39-1.05l3.07-13.84c.13-.58,1-1,2-1a3.77,3.77,0,0,1,.88.1,3.55,3.55,0,0,1,1.83,1,1.3,1.3,0,0,1,.41,1.05L144.33,23.5C144.21,24.07,143.37,24.48,142.35,24.48Z" transform="translate(115.13 17.86)"/><path class="cls-6" d="M112.7,153.09c-.62-1.17-.47-2.47.34-2.9l8.25-4.39c.81-.43,2,.17,2.59,1.33s.47,2.47-.34,2.9l-8.25,4.4C114.49,154.86,113.32,154.26,112.7,153.09Z" transform="translate(115.13 17.86)"/><path class="cls-7" d="M114.72,153.54a1.59,1.59,0,0,1-1.11-.93c-.39-.74-.28-1.41-.09-1.51l8.25-4.4h0a1.51,1.51,0,0,1,1.17.92c.4.74.28,1.4.09,1.51l-8.25,4.39Z" transform="translate(115.13 17.86)"/><path class="cls-6" d="M-70.86,45.89c-1.18-1.72-1.18-3.77,0-4.59l12.11-8.38c1.19-.82,3.12-.1,4.3,1.62s1.19,3.77,0,4.59l-12.11,8.38C-67.75,48.33-69.67,47.61-70.86,45.89Z" transform="translate(115.13 17.86)"/><path class="cls-8" d="M-67.69,46.82A3.17,3.17,0,0,1-70,45.31c-.92-1.34-.88-2.74-.26-3.17l12.11-8.38a1,1,0,0,1,.55-.15,3.19,3.19,0,0,1,2.32,1.51c.92,1.34.87,2.74.26,3.17l-12.12,8.38A.91.91,0,0,1-67.69,46.82Z" transform="translate(115.13 17.86)"/><path class="cls-8" d="M-67.8,45.24a2.13,2.13,0,0,1-.94-.82,2.17,2.17,0,0,1-.44-1.16l11.68-8.08a2.26,2.26,0,0,1,.94.82,2.18,2.18,0,0,1,.43,1.17Z" transform="translate(115.13 17.86)"/><path class="cls-6" d="M344.61,110.25c-.87-.41-1.35-1.23-1.06-1.84l2.95-6.16c.29-.6,1.23-.75,2.1-.33s1.35,1.24,1.06,1.85l-3,6.15C346.42,110.52,345.48,110.67,344.61,110.25Z" transform="translate(115.13 17.86)"/><path class="cls-7" d="M345.6,109.46a1.46,1.46,0,0,1-.55-.13c-.4-.2-.55-.47-.55-.54l2.91-6.07h.2a1.32,1.32,0,0,1,.55.14.93.93,0,0,1,.55.54l-2.91,6.06h-.2Z" transform="translate(115.13 17.86)"/><path class="cls-6" d="M-47.23,14.09c.86-.19,1.67.14,1.8.73l1.34,6.08c.13.59-.46,1.23-1.32,1.42s-1.66-.14-1.79-.74l-1.35-6.07C-48.68,14.92-48.09,14.28-47.23,14.09Z" transform="translate(115.13 17.86)"/><path class="cls-7" d="M-45.9,21.34a.71.71,0,0,1-.32-.06l-1.31-5.91a1,1,0,0,1,.52-.28,1.27,1.27,0,0,1,.27,0,.9.9,0,0,1,.32,0L-45.11,21a1,1,0,0,1-.52.27A1.24,1.24,0,0,1-45.9,21.34Z" transform="translate(115.13 17.86)"/><path class="cls-6" d="M-12.15,73.1c-.08.86-.64,1.51-1.23,1.44l-6.07-.63c-.6-.06-1-.81-.92-1.67s.65-1.51,1.24-1.44l6.07.63C-12.46,71.49-12,72.24-12.15,73.1Z" transform="translate(115.13 17.86)"/><path class="cls-7" d="M-19.26,72.9a.92.92,0,0,1-.09-.55,1,1,0,0,1,.2-.52l5.89.61a.9.9,0,0,1,.09.55.8.8,0,0,1-.2.52Z" transform="translate(115.13 17.86)"/><path class="cls-6" d="M95.3,151.22c.07.66-.25,1.24-.7,1.29l-4.67.49c-.45.05-.88-.45-1-1.11s.25-1.23.7-1.28l4.67-.49C94.8,150.07,95.23,150.56,95.3,151.22Z" transform="translate(115.13 17.86)"/><path class="cls-7" d="M90,152a1.72,1.72,0,0,1,0-.18.81.81,0,0,1,0-.17l4.22-.45a.43.43,0,0,1,0,.17.54.54,0,0,1,0,.18Z" transform="translate(115.13 17.86)"/><path class="cls-6" d="M153.57,2.23c-.15-1.12.35-2.11,1.13-2.22l7.91-1c.77-.11,1.52.72,1.67,1.84s-.35,2.11-1.13,2.21l-7.91,1.06C154.47,4.17,153.72,3.35,153.57,2.23Z" transform="translate(115.13 17.86)"/><path class="cls-7" d="M155.11,3.05a1.22,1.22,0,0,1-.53-1A1.19,1.19,0,0,1,154.85,1L162.75,0a1.23,1.23,0,0,1,.51,1A1.15,1.15,0,0,1,163,2Z" transform="translate(115.13 17.86)"/><path class="cls-6" d="M7.81,74.63c.36,1.05.06,2.09-.67,2.34l-7.36,2.5c-.72.24-1.59-.41-1.95-1.45s-.05-2.09.67-2.34l7.37-2.49C6.58,72.94,7.46,73.59,7.81,74.63Z" transform="translate(115.13 17.86)"/><path class="cls-7" d="M-.54,78.48c-.11,0-.47-.25-.65-.8a1.17,1.17,0,0,1,0-1l7.35-2.49a1.19,1.19,0,0,1,.65.8,1.13,1.13,0,0,1,0,1Z" transform="translate(115.13 17.86)"/></g><circle class="cls-13" cx="230.48" cy="68.86" r="39.03"/></g></g></g></g></svg>