<svg width="257" height="103" viewBox="0 0 257 103" fill="none" xmlns="http://www.w3.org/2000/svg">
<mask id="mask0_6_159103" style="mask-type:luminance" maskUnits="userSpaceOnUse" x="0" y="0" width="257" height="103">
<path d="M248.02 0H8.52997C3.81898 0 0 3.81892 0 8.52991V94.1599C0 98.8709 3.81898 102.69 8.52997 102.69H248.02C252.731 102.69 256.55 98.8709 256.55 94.1599V8.52991C256.55 3.81892 252.731 0 248.02 0Z" fill="white"/>
</mask>
<g mask="url(#mask0_6_159103)">
<path d="M248.02 0H8.52997C3.81898 0 0 3.81892 0 8.52991V94.1599C0 98.8709 3.81898 102.69 8.52997 102.69H248.02C252.731 102.69 256.55 98.8709 256.55 94.1599V8.52991C256.55 3.81892 252.731 0 248.02 0Z" fill="#43B309" stroke="#40525E" stroke-width="2" stroke-miterlimit="10"/>
<g opacity="0.33">
<path d="M190.302 31.9799C190.422 30.9299 191.112 30.1499 191.842 30.2299L199.252 31.1099C199.982 31.1999 200.472 32.1098 200.342 33.1698C200.212 34.2298 199.532 34.9998 198.792 34.9198L191.392 34.0398C190.662 33.9498 190.172 33.0799 190.302 31.9799Z" fill="#2D3943"/>
<g style="mix-blend-mode:screen">
<path d="M191.471 33.0198C191.379 32.8871 191.315 32.7373 191.283 32.5792C191.25 32.4211 191.25 32.2581 191.281 32.0999C191.284 31.9374 191.324 31.7777 191.396 31.6323C191.469 31.487 191.573 31.3597 191.701 31.2599L199.091 32.1399C199.272 32.4063 199.341 32.7333 199.281 33.0498C199.276 33.2117 199.235 33.3706 199.163 33.5155C199.09 33.6604 198.987 33.7882 198.861 33.8899L191.471 33.0198Z" fill="#2D3943"/>
</g>
<path d="M108.47 15.8C106.4 14.47 105.47 12.23 106.38 10.8L115.76 -3.82003C116.68 -5.25003 119.11 -5.32997 121.18 -4.00997C123.25 -2.68997 124.18 -0.439969 123.27 0.990031L113.88 15.61C112.92 17.08 110.47 17.13 108.47 15.8Z" fill="#2D3943"/>
<g style="mix-blend-mode:screen" opacity="0.6">
<path d="M111.411 15.7097C110.543 15.6868 109.7 15.4162 108.981 14.9297C108.202 14.4542 107.583 13.7581 107.201 12.9297C107.079 12.6823 107.016 12.4104 107.016 12.1347C107.016 11.8591 107.079 11.587 107.201 11.3397L116.591 -3.2903C116.778 -3.51806 117.018 -3.69638 117.29 -3.80971C117.562 -3.92304 117.857 -3.96794 118.151 -3.94032C119.018 -3.91258 119.86 -3.64232 120.581 -3.1603C121.359 -2.68762 121.976 -1.99037 122.351 -1.1603C122.478 -0.914578 122.544 -0.64191 122.544 -0.365251C122.544 -0.0885925 122.478 0.183953 122.351 0.42967L112.971 15.0797C112.782 15.3045 112.541 15.4795 112.269 15.5893C111.997 15.6992 111.702 15.7406 111.411 15.7097Z" fill="#2D3943"/>
</g>
<path d="M129.23 65.5298C130.82 66.2098 131.73 67.6598 131.23 68.7498L126.41 79.9898C125.94 81.0798 124.27 81.4198 122.68 80.7398C121.09 80.0598 120.18 78.6099 120.68 77.5099L125.49 66.2798C125.96 65.1798 127.64 64.8498 129.23 65.5298Z" fill="#2D3943"/>
<g style="mix-blend-mode:screen" opacity="0.7">
<path d="M124.35 80.0798C123.921 80.0746 123.496 79.9863 123.1 79.8198C122.566 79.5978 122.108 79.2263 121.78 78.7499C121.697 78.634 121.64 78.5017 121.613 78.3621C121.585 78.2224 121.588 78.0784 121.62 77.9398L126.44 66.7098C126.57 66.4098 127.01 66.2198 127.58 66.2198C128.01 66.2287 128.435 66.3204 128.83 66.4899C129.363 66.7092 129.821 67.0771 130.15 67.5498C130.234 67.6669 130.292 67.8008 130.32 67.9424C130.348 68.0839 130.344 68.2297 130.31 68.3699L125.47 79.5798C125.345 79.7554 125.175 79.8944 124.978 79.9823C124.781 80.0702 124.565 80.1039 124.35 80.0798Z" fill="#2D3943"/>
</g>
<path d="M215.562 69.7498C214.022 70.6298 212.272 70.4798 211.672 69.4098L205.442 58.5398C204.832 57.4698 205.583 55.8899 207.133 55.0099C208.683 54.1299 210.413 54.2698 211.023 55.3398L217.253 66.2198C217.863 67.2898 217.112 68.8698 215.562 69.7498Z" fill="#2D3943"/>
<g style="mix-blend-mode:screen">
<path d="M213.529 69.2898C213.343 69.3186 213.152 69.2977 212.977 69.2292C212.801 69.1608 212.647 69.0471 212.529 68.8998L206.299 58.0298C206.019 57.5298 206.519 56.5198 207.599 55.8998C208.061 55.6286 208.584 55.4774 209.119 55.4598C209.305 55.4368 209.494 55.4605 209.668 55.5286C209.843 55.5966 209.998 55.707 210.119 55.8498L216.349 66.7298C216.629 67.2198 216.129 68.2298 215.049 68.8498C214.589 69.1251 214.065 69.2766 213.529 69.2898Z" fill="#2D3943"/>
</g>
<path d="M57.8913 50.1798C56.8113 49.5098 56.3314 48.3699 56.7914 47.6299L61.4714 40.0798C61.9314 39.3498 63.1714 39.2898 64.2414 39.9598C65.3114 40.6298 65.8014 41.7699 65.3414 42.4999L60.6214 50.0498C60.1914 50.7898 58.9613 50.8498 57.8913 50.1798Z" fill="#2D3943"/>
<g style="mix-blend-mode:screen">
<path d="M59.4009 49.6199C59.0451 49.6122 58.6986 49.5048 58.4009 49.3098C58.0858 49.1232 57.8321 48.8486 57.6709 48.5198C57.6483 48.4659 57.6367 48.4082 57.6367 48.3499C57.6367 48.2915 57.6483 48.2336 57.6709 48.1798L62.3909 40.6299C62.3909 40.6299 62.5409 40.5198 62.7709 40.5198C63.1237 40.5412 63.4652 40.6527 63.7628 40.8435C64.0604 41.0343 64.3042 41.2981 64.4709 41.6099C64.509 41.7234 64.509 41.8463 64.4709 41.9598L59.7509 49.5099C59.6507 49.5863 59.5268 49.6252 59.4009 49.6199Z" fill="#2D3943"/>
</g>
<path d="M185.872 8.52965C183.482 8.76965 181.422 7.6097 181.262 5.9597L179.642 -10.8803C179.492 -12.5303 181.292 -14.0503 183.642 -14.2803C185.992 -14.5103 188.092 -13.3603 188.242 -11.7103L189.862 5.12975C190.052 6.78975 188.252 8.29965 185.872 8.52965Z" fill="#2D3943"/>
<g style="mix-blend-mode:screen" opacity="0.6">
<path d="M185.262 7.53967C183.682 7.53967 182.372 6.79974 182.262 5.85974L180.652 -10.9803C180.658 -11.2438 180.725 -11.5024 180.846 -11.7363C180.967 -11.9703 181.14 -12.1735 181.352 -12.3303C182.046 -12.8713 182.885 -13.1948 183.762 -13.2603H184.262C185.842 -13.2603 187.152 -12.5303 187.262 -11.5903L188.882 5.24976C188.876 5.51423 188.808 5.77355 188.685 6.00769C188.562 6.24183 188.386 6.44447 188.172 6.59973C187.481 7.13885 186.646 7.46226 185.772 7.52966L185.262 7.53967Z" fill="#2D3943"/>
</g>
<path d="M225.612 59.3698C225.112 57.3698 225.802 55.4997 227.172 55.1497L241.172 51.5698C242.552 51.2198 244.072 52.5698 244.572 54.5698C245.072 56.5698 244.382 58.4397 243.012 58.7897L229.012 62.3698C227.642 62.6698 226.122 61.3498 225.612 59.3698Z" fill="#2D3943"/>
<g style="mix-blend-mode:screen" opacity="0.7">
<path d="M228.562 61.3499C227.882 61.3499 226.972 60.5199 226.612 59.1099C226.411 58.4244 226.411 57.6954 226.612 57.0099C226.666 56.8156 226.764 56.6365 226.9 56.4872C227.035 56.3378 227.204 56.2222 227.392 56.1498L241.392 52.5598H241.592C242.262 52.5598 243.182 53.3998 243.542 54.7998C243.902 56.1998 243.422 57.5798 242.722 57.7998L228.722 61.3799C228.668 61.3768 228.614 61.3667 228.562 61.3499Z" fill="#2D3943"/>
</g>
<path d="M145.332 92.8899C145.892 91.2299 147.332 90.1998 148.432 90.5898L160.132 94.5898C161.282 94.9798 161.752 96.5898 161.192 98.2898C160.632 99.9898 159.252 100.98 158.102 100.59L146.392 96.5898C145.252 96.2098 144.772 94.5499 145.332 92.8899Z" fill="#2D3943"/>
<g style="mix-blend-mode:screen" opacity="0.8">
<path d="M158.61 99.6099C158.551 99.6204 158.49 99.6204 158.43 99.6099L146.72 95.6099C146.4 95.5099 146.26 95.0999 146.21 94.9299C146.071 94.3601 146.103 93.7621 146.3 93.2099C146.66 92.1599 147.41 91.5198 147.92 91.5198C147.976 91.5095 148.034 91.5095 148.09 91.5198L159.81 95.5198C159.939 95.5909 160.051 95.6897 160.137 95.809C160.224 95.9283 160.283 96.0652 160.31 96.2099C160.453 96.776 160.422 97.3719 160.22 97.9199C159.86 98.9799 159.12 99.6099 158.61 99.6099Z" fill="#2D3943"/>
</g>
<path d="M163.741 50.2998C163.221 52.0598 161.821 53.1999 160.601 52.8499L148.161 49.2199C146.941 48.8599 146.381 47.1499 146.891 45.3799C147.401 43.6099 148.811 42.4799 150.031 42.8399L162.471 46.4699C163.691 46.8299 164.251 48.5398 163.741 50.2998Z" fill="#2D3943"/>
<g style="mix-blend-mode:screen" opacity="0.6">
<path d="M161.052 51.8899H160.892L148.452 48.2599C147.882 48.0899 147.452 46.9598 147.882 45.6998C148.312 44.4398 149.012 43.8298 149.572 43.8298H149.742L162.182 47.4698C162.328 47.5371 162.458 47.6368 162.56 47.7616C162.662 47.8864 162.735 48.0328 162.772 48.1898C162.951 48.79 162.951 49.4296 162.772 50.0298C162.412 51.1898 161.622 51.8899 161.052 51.8899Z" fill="#2D3943"/>
</g>
<g style="mix-blend-mode:screen" opacity="0.6">
<path d="M148.871 47.2798C148.739 46.8497 148.736 46.3903 148.862 45.9584C148.988 45.5264 149.238 45.141 149.581 44.8499L161.761 48.4098C161.765 48.443 161.765 48.4766 161.761 48.5099C161.88 48.9079 161.88 49.3318 161.761 49.7299C161.665 50.1727 161.413 50.5664 161.051 50.8398L148.871 47.2798Z" fill="#2D3943"/>
</g>
<path d="M209.25 40.0798C209.42 38.5098 210.45 37.3298 211.54 37.4498L222.64 38.7198C223.72 38.8398 224.47 40.2098 224.29 41.7798C224.11 43.3498 223.08 44.5298 222 44.4098L210.9 43.1498C209.8 42.9998 209.07 41.6198 209.25 40.0798Z" fill="#2D3943"/>
<g style="mix-blend-mode:screen">
<path d="M211.023 42.0798C210.633 42.0798 210.153 41.2599 210.273 40.1399C210.393 39.0199 211.003 38.4298 211.393 38.4298L222.523 39.6898C222.913 39.6898 223.393 40.4999 223.263 41.6199C223.133 42.7399 222.533 43.3398 222.153 43.3398L211.023 42.0798Z" fill="#2D3943"/>
</g>
<path d="M114.921 103.54C114.071 102.54 113.922 101.23 114.652 100.65L121.772 94.6497C122.472 94.0597 123.771 94.4097 124.571 95.4197C125.371 96.4297 125.572 97.7198 124.852 98.3098L117.721 104.31C117.021 104.89 115.771 104.55 114.921 103.54Z" fill="#2D3943"/>
<g style="mix-blend-mode:screen">
<path d="M116.881 103.56C116.648 103.531 116.423 103.455 116.22 103.336C116.017 103.218 115.841 103.059 115.701 102.87C115.454 102.587 115.291 102.241 115.231 101.87C115.216 101.801 115.215 101.73 115.228 101.661C115.242 101.592 115.27 101.527 115.311 101.47L122.441 95.4699C122.499 95.4493 122.563 95.4493 122.621 95.4699C122.852 95.5022 123.074 95.5798 123.275 95.6982C123.476 95.8166 123.651 95.9735 123.791 96.1599C124.042 96.4413 124.209 96.7879 124.271 97.1599C124.285 97.2291 124.284 97.3005 124.268 97.3693C124.253 97.4382 124.223 97.5031 124.181 97.5599L117.061 103.56C117.002 103.578 116.94 103.578 116.881 103.56Z" fill="#2D3943"/>
</g>
<path d="M224.292 4.64973C224.412 2.83973 225.522 1.42983 226.792 1.50983L239.622 2.36982C240.872 2.45982 241.782 3.99977 241.622 5.81977C241.462 7.63977 240.382 9.03979 239.122 8.95979L226.302 8.0998C225.092 8.0098 224.172 6.46973 224.292 4.64973Z" fill="#2D3943"/>
<g style="mix-blend-mode:screen" opacity="0.8">
<path d="M226.41 7.07983C225.82 7.07983 225.22 6.07986 225.32 4.72986C225.42 3.37986 226.1 2.5498 226.68 2.5498L239.54 3.40979C240.13 3.40979 240.73 4.40989 240.64 5.75989C240.55 7.10989 239.85 7.93982 239.28 7.93982L226.41 7.07983Z" fill="#2D3943"/>
</g>
<path d="M61.4013 65.5298C60.8513 64.4198 61.0314 63.2199 61.7914 62.8499L69.5813 58.9799C70.3413 58.5999 71.4013 59.1898 71.9513 60.2898C72.5013 61.3898 72.3314 62.5999 71.5614 62.9699L63.7713 66.8399C63.0113 67.2199 61.9513 66.6298 61.4013 65.5298Z" fill="#2D3943"/>
<g style="mix-blend-mode:screen" opacity="0.8">
<path d="M63.272 65.9298C63.0577 65.8702 62.8602 65.7615 62.6953 65.6122C62.5304 65.4629 62.4026 65.2772 62.322 65.0698C61.982 64.3798 62.1321 63.8199 62.2521 63.7599L70.0421 59.8998C70.2676 59.9438 70.4781 60.0451 70.6533 60.194C70.8284 60.3428 70.9623 60.5343 71.0421 60.7499C71.3921 61.4499 71.2321 61.9998 71.1121 62.0598L63.332 65.9198L63.272 65.9298Z" fill="#2D3943"/>
</g>
<path d="M81.6119 23.2098C80.8819 22.3198 80.7818 21.2098 81.3918 20.6998L87.5718 15.5498C88.1818 15.0398 89.2719 15.3499 89.9919 16.2199C90.7119 17.0899 90.8218 18.2199 90.2218 18.7199L84.0318 23.8699C83.4718 24.3799 82.3419 24.0798 81.6119 23.2098Z" fill="#2D3943"/>
<g style="mix-blend-mode:screen" opacity="0.8">
<path d="M83.3122 23.0798C82.9499 23.0258 82.6232 22.8319 82.4021 22.5398C82.2616 22.4052 82.1562 22.2383 82.0951 22.0535C82.0341 21.8687 82.0194 21.6717 82.0522 21.4799L88.2322 16.3298C88.4284 16.3404 88.6198 16.3943 88.7927 16.4877C88.9656 16.581 89.1157 16.7116 89.2322 16.8699C89.3735 17.0039 89.4793 17.1709 89.5404 17.3558C89.6015 17.5408 89.6158 17.738 89.5821 17.9298L83.4021 23.0698L83.3122 23.0798Z" fill="#2D3943"/>
</g>
<path d="M-4.52978 48.5698C-4.21978 47.5698 -3.41979 46.9299 -2.72979 47.1399L4.27021 49.2898C4.97021 49.5098 5.27023 50.4898 4.98023 51.4798C4.69023 52.4698 3.86024 53.1198 3.17024 52.9098L-3.82976 50.7599C-4.52976 50.5499 -4.79978 49.5598 -4.52978 48.5698Z" fill="#2D3943"/>
<g style="mix-blend-mode:screen">
<path d="M-3.5285 49.7698C-3.58958 49.6276 -3.62109 49.4746 -3.62109 49.3198C-3.62109 49.1651 -3.58958 49.012 -3.5285 48.8699C-3.50293 48.7114 -3.4396 48.5614 -3.34387 48.4326C-3.24814 48.3038 -3.12284 48.2 -2.97852 48.1299L4.02148 50.2798C4.13389 50.5727 4.13389 50.8969 4.02148 51.1898C3.99051 51.3437 3.92608 51.4888 3.83276 51.615C3.73944 51.7411 3.61954 51.8452 3.48151 51.9198L-3.5285 49.7698Z" fill="#2D3943"/>
</g>
<path d="M94.1592 78.0798C94.4692 79.6498 93.8393 81.0798 92.7593 81.3098L81.6793 83.4998C80.5893 83.7098 79.4593 82.6098 79.1493 81.0398C78.8393 79.4698 79.4693 78.0398 80.5593 77.8098L91.6393 75.6198C92.7193 75.3598 93.8592 76.4598 94.1592 78.0798Z" fill="#2D3943"/>
<g style="mix-blend-mode:screen" opacity="0.6">
<path d="M81.411 82.4398C81.031 82.4398 80.411 81.8598 80.161 80.7898C79.911 79.7198 80.371 78.8498 80.751 78.7898L91.851 76.5999C92.291 76.5999 92.9509 77.1899 93.1609 78.2499C93.3709 79.3099 92.9509 80.1999 92.5609 80.2499L81.481 82.4398H81.411Z" fill="#2D3943"/>
</g>
<g style="mix-blend-mode:screen" opacity="0.6">
<path d="M81.5323 81.3799C81.3418 81.1548 81.2172 80.8813 81.1723 80.5898C81.0884 80.3093 81.0884 80.0104 81.1723 79.7299L91.7523 77.6399C91.9456 77.8644 92.0736 78.1376 92.1223 78.4298C92.1965 78.7117 92.1965 79.0079 92.1223 79.2898L81.5323 81.3799Z" fill="#2D3943"/>
</g>
<path d="M113.469 67.8498C112.979 69.4098 111.699 70.3998 110.629 70.0598L99.6293 66.6299C98.5493 66.2899 98.0693 64.7498 98.5593 63.1898C99.0493 61.6298 100.319 60.6298 101.399 60.9698L112.399 64.4098C113.469 64.7498 113.929 66.2798 113.469 67.8498Z" fill="#2D3943"/>
<g style="mix-blend-mode:screen" opacity="0.8">
<path d="M111.041 69.0798H110.911L99.9109 65.6399C99.5109 65.5199 99.161 64.6399 99.511 63.4899C99.811 62.4899 100.511 61.9298 100.931 61.9298H101.061L112.061 65.3699C112.461 65.4899 112.811 66.3698 112.461 67.5198C112.161 68.4998 111.471 69.0798 111.041 69.0798Z" fill="#2D3943"/>
</g>
<path d="M256.002 94.5799C254.862 92.4199 255.152 90.0399 256.632 89.2499L271.812 81.1698C273.302 80.3798 275.432 81.4899 276.582 83.6299C277.732 85.7699 277.442 88.1699 275.952 88.9599L260.772 97.0799C259.282 97.8299 257.152 96.7299 256.002 94.5799Z" fill="#2D3943"/>
<g style="mix-blend-mode:screen">
<path d="M259.72 96.2698C259.108 96.1701 258.531 95.9183 258.042 95.5374C257.553 95.1565 257.167 94.6587 256.92 94.0899C255.98 92.3299 256.27 90.5998 257.11 90.1598L272.29 82.0799C272.466 81.9867 272.662 81.9386 272.86 81.9398C273.473 82.0377 274.051 82.2889 274.54 82.6701C275.03 83.0512 275.415 83.55 275.66 84.1199C276.51 85.7099 276.42 87.5498 275.47 88.0498L260.29 96.1299C260.115 96.223 259.919 96.271 259.72 96.2698Z" fill="#2D3943"/>
</g>
<path d="M141.122 57.9799C139.462 58.7699 137.672 58.4699 137.122 57.3199L131.612 45.5598C131.082 44.4098 131.992 42.8398 133.612 42.0598C135.232 41.2798 137.062 41.5799 137.612 42.7299L143.132 54.4899C143.702 55.6399 142.792 57.2099 141.122 57.9799Z" fill="#2D3943"/>
<g style="mix-blend-mode:screen">
<path d="M139.271 57.3899C139.042 57.4199 138.809 57.3884 138.597 57.2988C138.384 57.2092 138.199 57.0646 138.061 56.8799L132.551 45.1299C132.508 44.9709 132.5 44.8046 132.528 44.6423C132.556 44.48 132.618 44.3256 132.711 44.1898C133.047 43.6622 133.53 43.245 134.101 42.9898C134.546 42.7825 135.03 42.6701 135.521 42.6598C135.748 42.6284 135.98 42.6592 136.191 42.749C136.403 42.8388 136.586 42.9842 136.721 43.1698L142.241 54.9198C142.491 55.4698 141.881 56.4998 140.691 57.0498C140.247 57.2637 139.763 57.3798 139.271 57.3899Z" fill="#2D3943"/>
</g>
<path d="M40.0293 28.7298C39.2693 28.5198 38.7793 27.9298 38.9293 27.4098L40.4093 22.0998C40.5593 21.5798 41.2793 21.3298 42.0293 21.5398C42.7793 21.7498 43.2793 22.3399 43.1293 22.8599L41.6493 28.1698C41.4693 28.6898 40.7793 28.9398 40.0293 28.7298Z" fill="#2D3943"/>
<g style="mix-blend-mode:screen">
<path d="M40.561 27.7698H40.301C40.1737 27.7354 40.0569 27.6702 39.9609 27.5798L41.371 22.5798H41.4709H41.7209C41.851 22.6146 41.9709 22.6796 42.0709 22.7698L40.6609 27.7698H40.561Z" fill="#2D3943"/>
</g>
<path d="M235.07 84.7998C235.18 86.5098 234.31 87.9698 233.12 88.0398L221.02 88.8399C219.84 88.9199 218.78 87.5899 218.67 85.8399C218.56 84.0899 219.43 82.6799 220.61 82.5999L232.72 81.7998C233.9 81.7598 234.95 83.0798 235.07 84.7998Z" fill="#2D3943"/>
<g style="mix-blend-mode:screen">
<path d="M220.921 87.8098C220.411 87.8098 219.772 86.9598 219.692 85.8098C219.612 84.6598 220.152 83.6898 220.692 83.6598L232.791 82.8599C233.341 82.8599 233.981 83.7199 234.051 84.8599C234.121 85.9999 233.601 86.9699 233.051 87.0099L220.921 87.8098Z" fill="#2D3943"/>
</g>
<path d="M218.469 100.87C218.745 100.556 219.13 100.359 219.546 100.319C219.962 100.278 220.377 100.396 220.709 100.65L225.369 106.14C225.829 106.67 225.569 107.65 224.789 108.31C224.516 108.624 224.134 108.823 223.72 108.865C223.306 108.908 222.891 108.792 222.559 108.54L217.889 103.04C217.409 102.5 217.669 101.53 218.469 100.87Z" fill="#2D3943"/>
<g style="mix-blend-mode:screen" opacity="0.6">
<path d="M223.371 107.85H223.291L218.641 102.39C218.71 102.101 218.876 101.843 219.111 101.66C219.313 101.471 219.574 101.358 219.851 101.34L224.571 106.82C224.503 107.105 224.341 107.358 224.111 107.54C223.905 107.722 223.645 107.831 223.371 107.85Z" fill="#2D3943"/>
</g>
<path d="M27.201 1.65979C28.201 3.03979 28.3211 4.73984 27.3711 5.45984L17.6711 12.8398C16.6711 13.5598 15.1011 13.0298 14.0511 11.6498C13.0011 10.2698 12.931 8.57987 13.891 7.85987L23.5911 0.489871C24.5411 -0.240129 26.151 0.289793 27.201 1.65979Z" fill="#2D3943"/>
<g style="mix-blend-mode:screen" opacity="0.7">
<path d="M16.6522 12.1299C16.294 12.0847 15.9497 11.9631 15.6426 11.7733C15.3355 11.5835 15.0728 11.3299 14.8722 11.0298C14.5168 10.582 14.3012 10.0395 14.2522 9.46985C14.2364 9.32723 14.2513 9.18283 14.2962 9.04651C14.3411 8.9102 14.4147 8.78513 14.5122 8.67981L24.2022 1.29981C24.3214 1.22357 24.4608 1.18523 24.6022 1.18982C24.9604 1.23498 25.3047 1.35661 25.6118 1.54639C25.9189 1.73617 26.1816 1.98965 26.3822 2.2898C27.1122 3.2898 27.1722 4.2899 26.7522 4.6399L17.0522 12.0198C16.9336 12.0972 16.7937 12.1358 16.6522 12.1299Z" fill="#2D3943"/>
</g>
<path d="M18.5228 30.0798C19.5228 29.6398 20.5228 29.8299 20.8628 30.5099L23.9628 37.4598C24.2728 38.1398 23.7128 39.0498 22.7328 39.4598C21.7528 39.8698 20.7328 39.7098 20.3928 39.0298L17.2928 32.0298C16.9928 31.3898 17.5428 30.4798 18.5228 30.0798Z" fill="#2D3943"/>
<g style="mix-blend-mode:screen">
<path d="M21.6705 38.6598C21.5483 38.6708 21.4257 38.6429 21.3204 38.5799L18.2305 31.6498C18.2305 31.5598 18.4304 31.2099 18.9404 30.9699C19.1434 30.8845 19.3603 30.837 19.5804 30.8299C19.7026 30.8188 19.8252 30.8468 19.9305 30.9098L23.0305 37.8399C22.9625 37.9948 22.8636 38.1341 22.7397 38.2493C22.6159 38.3645 22.4698 38.4532 22.3105 38.5099C22.1096 38.6031 21.8918 38.6541 21.6705 38.6598Z" fill="#2D3943"/>
</g>
<path d="M95.3899 101.08C94.1799 100.71 93.3898 99.7299 93.6698 98.8899L96.3198 90.3599C96.5698 89.5299 97.7598 89.1498 98.9698 89.5298C100.18 89.9098 100.97 90.8799 100.69 91.7099L98.0498 100.25C97.7898 101.08 96.5999 101.5 95.3899 101.08Z" fill="#2D3943"/>
<g style="mix-blend-mode:screen">
<path d="M96.3325 100.24C96.1185 100.24 95.9058 100.207 95.7025 100.14C95.2933 100.034 94.9373 99.7813 94.7025 99.4298C94.6825 99.3647 94.6825 99.295 94.7025 99.2299L97.3526 90.7098C97.3526 90.6198 97.6326 90.4498 98.0926 90.4498C98.3065 90.4502 98.519 90.484 98.7226 90.5498C99.1314 90.6564 99.4871 90.909 99.7226 91.2599C99.7456 91.3211 99.7456 91.3886 99.7226 91.4498L97.0825 99.9799C97.0425 100.08 96.7925 100.24 96.3325 100.24Z" fill="#2D3943"/>
</g>
<path d="M239.73 27.8098C240.45 28.1098 240.85 28.8098 240.65 29.2498L238.49 34.2498C238.28 34.7398 237.49 34.8998 236.81 34.5898C236.13 34.2798 235.69 33.5899 235.9 33.1399L238.05 28.1399C238.27 27.6499 239.02 27.4998 239.73 27.8098Z" fill="#2D3943"/>
<g style="mix-blend-mode:screen" opacity="0.7">
<path d="M237.552 33.7698C237.439 33.7696 237.326 33.7458 237.222 33.6998C237.1 33.6477 236.991 33.5692 236.902 33.4698L238.902 28.6798C239.017 28.6837 239.129 28.711 239.232 28.7599C239.356 28.805 239.463 28.8849 239.542 28.9899L237.542 33.7798L237.552 33.7698Z" fill="#2D3943"/>
</g>
<path d="M49.3112 9.27972C49.8712 7.47972 51.3111 6.33979 52.5711 6.72979L65.2312 10.7298C66.4712 11.1198 67.0211 12.8897 66.4511 14.6797C65.8811 16.4697 64.4511 17.6098 63.1911 17.2198L50.5311 13.2198C49.2911 12.8398 48.7412 11.0797 49.3112 9.27972Z" fill="#2D3943"/>
<g style="mix-blend-mode:screen">
<path d="M63.6919 16.25C63.629 16.2605 63.5648 16.2605 63.5019 16.25L50.8419 12.25C50.6879 12.1731 50.5526 12.0634 50.4455 11.9286C50.3384 11.7939 50.2621 11.6374 50.2219 11.47C50.0615 10.8465 50.0858 10.1899 50.2919 9.57998C50.6619 8.39998 51.4919 7.68996 52.0719 7.68996C52.1348 7.67952 52.199 7.67952 52.2619 7.68996L64.9219 11.69C65.5219 11.87 65.9219 13.05 65.4719 14.35C65.0219 15.65 64.2819 16.25 63.6919 16.25Z" fill="#2D3943"/>
</g>
<path d="M40.6601 88.9298C41.3201 90.3398 41.0701 91.8498 40.1001 92.3098L30.1701 96.9999C29.1701 97.4599 27.8701 96.6898 27.1701 95.2898C26.4701 93.8898 26.7501 92.3598 27.7301 91.8998L37.6601 87.2199C38.6701 86.7599 40.0001 87.5198 40.6601 88.9298Z" fill="#2D3943"/>
<g style="mix-blend-mode:screen">
<path d="M29.563 96.0799C29.2415 96.0049 28.9436 95.8514 28.6958 95.6333C28.448 95.4152 28.2581 95.1392 28.143 94.8299C27.9209 94.3845 27.834 93.884 27.893 93.3899C27.9018 93.276 27.9349 93.1653 27.9901 93.0652C28.0453 92.9652 28.1213 92.8781 28.213 92.8098L38.133 88.1299C38.1886 88.1151 38.2473 88.1151 38.303 88.1299C38.6274 88.2044 38.928 88.3585 39.1777 88.5785C39.4274 88.7985 39.6183 89.0775 39.733 89.3899C39.9556 89.8351 40.0425 90.3357 39.983 90.8299C39.983 90.9699 39.883 91.2998 39.663 91.3998L29.733 96.0899C29.6762 96.0979 29.6184 96.0945 29.563 96.0799Z" fill="#2D3943"/>
</g>
<path d="M107.6 50.4799C105.78 51.9099 103.5 52.0598 102.51 50.7998L92.3798 37.9599C91.3798 36.6999 92.0598 34.5098 93.8798 33.0798C95.6998 31.6498 97.9797 31.4999 98.9697 32.7599L109.1 45.6099C110.09 46.8699 109.47 49.0799 107.6 50.4799Z" fill="#2D3943"/>
<g style="mix-blend-mode:screen" opacity="0.5">
<path d="M104.472 50.6299C104.252 50.6433 104.032 50.6092 103.827 50.5298C103.621 50.4504 103.436 50.3276 103.282 50.1698L93.152 37.3198C92.602 36.6198 93.012 35.0399 94.482 33.8899C95.1661 33.2956 96.0273 32.944 96.9319 32.8899C97.1527 32.8749 97.3741 32.9093 97.58 32.9906C97.7858 33.0719 97.971 33.1981 98.122 33.3599L108.252 46.1998C108.385 46.411 108.466 46.6506 108.489 46.8992C108.511 47.1477 108.475 47.3982 108.382 47.6299C108.107 48.4278 107.598 49.1246 106.922 49.6299C106.238 50.2242 105.377 50.5758 104.472 50.6299Z" fill="#2D3943"/>
</g>
<g style="mix-blend-mode:screen">
<path d="M104.473 49.0798L94.543 36.4799C94.6966 35.9105 95.052 35.4165 95.543 35.0898C95.9649 34.7283 96.4894 34.508 97.043 34.4598H97.123L107.053 47.0498C107.056 47.0998 107.056 47.1499 107.053 47.1998C106.86 47.6918 106.535 48.1209 106.113 48.4398C105.691 48.8013 105.167 49.0216 104.613 49.0698L104.473 49.0798Z" fill="#2D3943"/>
</g>
<path d="M87.0618 58.8998C87.0618 58.9798 87.0618 59.0598 86.9918 59.0698L86.4017 59.2399C86.4017 59.2399 86.2817 59.2399 86.2617 59.1099C86.2533 59.0942 86.2481 59.077 86.2466 59.0593C86.245 59.0416 86.2471 59.0237 86.2528 59.0068C86.2584 58.99 86.2674 58.9744 86.2792 58.9612C86.2911 58.9479 86.3056 58.9372 86.3217 58.9298L86.9118 58.7698C86.9483 58.7695 86.9837 58.7826 87.0113 58.8065C87.0389 58.8305 87.0569 58.8636 87.0618 58.8998Z" fill="#2D3943"/>
<g style="mix-blend-mode:screen" opacity="0.8">
<path d="M87.0618 58.8998C87.0618 58.9798 87.0618 59.0598 86.9918 59.0698L86.4017 59.2399C86.4017 59.2399 86.2817 59.2399 86.2617 59.1099C86.2533 59.0942 86.2481 59.077 86.2466 59.0593C86.245 59.0416 86.2471 59.0237 86.2528 59.0068C86.2584 58.99 86.2674 58.9744 86.2792 58.9612C86.2911 58.9479 86.3056 58.9372 86.3217 58.9298L86.9118 58.7698C86.9483 58.7695 86.9837 58.7826 87.0113 58.8065C87.0389 58.8305 87.0569 58.8636 87.0618 58.8998Z" fill="#2D3943"/>
</g>
<path d="M207.159 8.51975C207.949 7.51975 209.159 7.21986 209.789 7.75986L216.549 13.2998C217.219 13.8498 217.119 15.0597 216.329 16.0197C215.539 16.9797 214.329 17.3097 213.709 16.7697L206.949 11.2298C206.289 10.6898 206.389 9.47975 207.159 8.51975Z" fill="#2D3943"/>
<g style="mix-blend-mode:screen">
<path d="M214.47 15.9998C214.428 16.0123 214.383 16.0123 214.34 15.9998L207.58 10.4698C207.58 10.4698 207.511 10.3298 207.521 10.1398C207.565 9.79215 207.711 9.46523 207.94 9.19979C208.064 9.02641 208.222 8.88017 208.404 8.7701C208.587 8.66003 208.789 8.58845 209 8.55977C209.039 8.54681 209.082 8.54681 209.12 8.55977L215.88 14.0998C215.912 14.146 215.934 14.1982 215.944 14.2534C215.955 14.3085 215.953 14.3652 215.94 14.4198C215.901 14.7868 215.755 15.1343 215.521 15.4198C215.392 15.5809 215.234 15.7152 215.053 15.8148C214.873 15.9143 214.675 15.9772 214.47 15.9998Z" fill="#2D3943"/>
</g>
<path d="M21.8411 60.7998C23.6811 60.5998 25.2811 61.4699 25.4211 62.7399L26.8611 75.7399C27.0011 77.0099 25.6211 78.2098 23.7811 78.4098C21.9411 78.6098 20.3311 77.7499 20.1911 76.4799L18.7611 63.4799C18.6111 62.2099 20.0011 61.0098 21.8411 60.7998Z" fill="#2D3943"/>
<g style="mix-blend-mode:screen" opacity="0.8">
<path d="M23.2425 77.3998C22.0625 77.3998 21.2425 76.8598 21.2425 76.3998L19.8125 63.3998C19.8175 63.2345 19.8607 63.0727 19.9388 62.927C20.0169 62.7813 20.1276 62.6555 20.2625 62.5598C20.7523 62.1604 21.3524 61.9197 21.9825 61.8699H22.4025C23.5825 61.8699 24.4025 62.4199 24.4025 62.8699L25.8325 75.8699C25.8282 76.0367 25.7854 76.2002 25.7073 76.3477C25.6293 76.4951 25.518 76.6226 25.3824 76.7198C24.8926 77.1193 24.2926 77.3599 23.6625 77.4098C23.5224 77.4163 23.3821 77.4129 23.2425 77.3998Z" fill="#2D3943"/>
</g>
<path d="M165.201 82.3699C166.611 80.6499 168.721 80.0398 169.901 81.0198L182.041 90.9598C183.241 91.9598 183.041 94.1198 181.651 95.8398C180.261 97.5598 178.131 98.1598 176.951 97.1898L164.811 87.2399C163.611 86.2699 163.791 84.0799 165.201 82.3699Z" fill="#2D3943"/>
<g style="mix-blend-mode:screen" opacity="0.7">
<path d="M178.33 96.6299C178.065 96.6412 177.806 96.5559 177.6 96.3899L165.46 86.4499C165.297 86.2831 165.176 86.0803 165.106 85.8578C165.037 85.6354 165.021 85.3996 165.06 85.1699C165.151 84.3753 165.479 83.6264 166 83.0198C166.296 82.6192 166.672 82.2844 167.104 82.0366C167.536 81.7887 168.015 81.6332 168.51 81.5799C168.776 81.5686 169.037 81.6499 169.25 81.8099L181.39 91.8099C181.553 91.9762 181.675 92.1791 181.744 92.4017C181.814 92.6242 181.829 92.8601 181.79 93.0899C181.698 93.8844 181.371 94.6333 180.85 95.2399C180.547 95.632 180.168 95.9577 179.734 96.1968C179.301 96.436 178.823 96.5834 178.33 96.6299Z" fill="#2D3943"/>
</g>
<path d="M168.361 62.7998C169.011 63.7098 169.041 64.7998 168.361 65.2698L161.951 69.8998C161.331 70.3498 160.291 69.9898 159.631 69.0798C158.971 68.1698 158.951 67.0799 159.631 66.6199L166.041 61.9799C166.661 61.5299 167.701 61.8898 168.361 62.7998Z" fill="#2D3943"/>
<g style="mix-blend-mode:screen">
<path d="M161.371 69.0798C161.193 69.045 161.025 68.9737 160.877 68.8704C160.729 68.7671 160.604 68.6341 160.511 68.4799C160.391 68.3456 160.303 68.1857 160.255 68.0123C160.206 67.839 160.198 67.6569 160.231 67.4799L166.631 62.8499C166.814 62.8795 166.988 62.9473 167.143 63.049C167.298 63.1506 167.43 63.2838 167.531 63.4398C167.649 63.575 167.734 63.7353 167.781 63.9086C167.828 64.0819 167.835 64.2636 167.801 64.4398L161.401 69.0698L161.371 69.0798Z" fill="#2D3943"/>
</g>
<path d="M172.351 52.7798C169.821 52.9998 167.641 51.7798 167.491 50.0198L165.891 32.1799C165.741 30.4299 167.661 28.8299 170.191 28.5999C172.721 28.3699 174.891 29.5999 175.051 31.3599L176.651 49.1999C176.801 50.9499 174.891 52.5498 172.351 52.7798Z" fill="#2D3943"/>
<g style="mix-blend-mode:screen" opacity="0.8">
<path d="M171.762 51.7798C170.032 51.7798 168.602 50.9698 168.512 49.9298L166.922 32.0899C166.924 31.7998 166.995 31.5143 167.128 31.257C167.262 30.9997 167.455 30.7779 167.692 30.6099C168.436 30.026 169.338 29.6778 170.282 29.6099C170.449 29.6001 170.615 29.6001 170.782 29.6099C172.512 29.6099 173.942 30.4098 174.032 31.4498L175.632 49.2998C175.625 49.5886 175.551 49.8718 175.416 50.127C175.28 50.3821 175.087 50.6022 174.852 50.7698C174.108 51.3547 173.206 51.703 172.262 51.7698L171.762 51.7798Z" fill="#2D3943"/>
</g>
<g style="mix-blend-mode:screen" opacity="0.8">
<path d="M171.763 50.2299C171.146 50.2785 170.533 50.0968 170.043 49.7198L168.473 32.0798C168.532 31.9884 168.607 31.9073 168.693 31.8398C169.2 31.4677 169.804 31.249 170.433 31.2098H170.793C171.42 31.1514 172.045 31.3417 172.533 31.7399L174.093 49.4098C174.033 49.5013 173.959 49.5823 173.873 49.6498C173.368 50.0206 172.768 50.2393 172.143 50.2798L171.763 50.2299Z" fill="#2D3943"/>
</g>
<path d="M40.9221 39.3398C42.5121 39.3398 43.8121 40.1898 43.8221 41.2798L43.9821 52.4799C43.9821 53.5699 42.7221 54.4799 41.1421 54.4799C39.5621 54.4799 38.2521 53.6299 38.2421 52.4799L38.0821 41.2898C38.0721 40.2598 39.3421 39.3598 40.9221 39.3398Z" fill="#2D3943"/>
<g style="mix-blend-mode:screen" opacity="0.7">
<path d="M41.0793 53.4698C39.9793 53.4698 39.2693 52.9198 39.2593 52.5398L39.1094 41.3498C39.1094 41.0898 39.3794 40.8697 39.4994 40.7797C39.928 40.5019 40.4286 40.3559 40.9393 40.3598C42.0793 40.3598 42.7894 40.9097 42.7894 41.2897L42.9493 52.4898C42.9493 52.8798 42.2494 53.4898 41.1194 53.4898L41.0793 53.4698Z" fill="#2D3943"/>
</g>
<path d="M-8.21016 7.80991C-7.33016 6.72991 -6.03017 6.33991 -5.28017 6.93991L2.31981 13.0899C3.06981 13.6899 2.96984 15.0899 2.09984 16.0899C1.22984 17.0899 -0.0801544 17.5499 -0.830154 16.9499L-8.43019 10.7999C-9.18019 10.2399 -9.08016 8.87991 -8.21016 7.80991Z" fill="#2D3943"/>
<g style="mix-blend-mode:screen" opacity="0.6">
<path d="M0.0223198 16.2499C-0.0495896 16.2565 -0.121256 16.2349 -0.177692 16.1899L-7.77767 10.0398C-7.8328 9.97823 -7.87246 9.90439 -7.89333 9.82439C-7.9142 9.74439 -7.91567 9.66057 -7.89766 9.57988C-7.84313 9.16483 -7.67339 8.77335 -7.40767 8.44987C-7.2597 8.2426 -7.07054 8.06808 -6.85201 7.9373C-6.63348 7.80653 -6.39025 7.72231 -6.13765 7.68986C-6.06419 7.68466 -5.99093 7.70216 -5.92769 7.73991L1.67234 13.8899C1.7263 13.9543 1.7651 14.0299 1.78587 14.1113C1.80664 14.1926 1.80885 14.2776 1.79234 14.3599C1.73972 14.7725 1.56964 15.1612 1.30235 15.4799C1.15336 15.6893 0.962766 15.8657 0.742535 15.9982C0.522304 16.1307 0.277136 16.2164 0.0223198 16.2499Z" fill="#2D3943"/>
</g>
<path d="M269.072 56.5298C270.402 57.8798 270.732 59.7199 269.802 60.6399L260.312 70.0498C259.382 70.9798 257.542 70.6298 256.202 69.2898C254.862 67.9498 254.552 66.1098 255.472 65.1798L264.972 55.7599C265.902 54.8399 267.742 55.1898 269.072 56.5298Z" fill="#2D3943"/>
<g style="mix-blend-mode:screen" opacity="0.8">
<path d="M258.932 69.5498C258.163 69.4817 257.448 69.1244 256.932 68.5498C255.932 67.5498 255.752 66.3498 256.202 65.8998L265.692 56.4899C265.876 56.3422 266.106 56.2642 266.342 56.2698C267.112 56.333 267.829 56.6912 268.342 57.2698C269.342 58.2698 269.532 59.4698 269.072 59.9198L259.582 69.3299C259.401 69.4834 259.169 69.5621 258.932 69.5498Z" fill="#2D3943"/>
</g>
<path d="M198.78 69.64C198.78 71.26 197.85 72.5699 196.72 72.5699H185.25C184.13 72.5699 183.25 71.2499 183.25 69.5699C183.25 67.8899 184.17 66.63 185.25 66.64H196.72C197.88 66.69 198.79 68.01 198.78 69.64Z" fill="#2D3943"/>
<g style="mix-blend-mode:screen" opacity="0.8">
<path d="M185.262 71.4999C184.852 71.4999 184.262 70.7498 184.262 69.5798C184.262 68.4098 184.862 67.6698 185.262 67.6698H196.742C197.152 67.6698 197.742 68.4198 197.742 69.5898C197.742 70.7598 197.132 71.4999 196.742 71.4999H185.262Z" fill="#2D3943"/>
</g>
<path d="M141.233 25.3799C139.233 24.9499 137.923 23.4899 138.233 22.1399L141.303 8.28978C141.603 6.92978 143.443 6.17986 145.403 6.61986C147.363 7.05986 148.713 8.50986 148.403 9.86986L145.333 23.7198C145.033 25.0798 143.193 25.8199 141.233 25.3799Z" fill="#2D3943"/>
<g style="mix-blend-mode:screen">
<path d="M142.352 24.4799C142.052 24.4812 141.754 24.4476 141.462 24.3799C140.768 24.2305 140.132 23.8832 139.632 23.3799C139.498 23.2515 139.392 23.0957 139.323 22.9232C139.254 22.7507 139.223 22.5655 139.232 22.3799L142.312 8.52979C142.432 7.95979 143.312 7.52979 144.312 7.52979C144.608 7.53344 144.903 7.56704 145.192 7.62988C145.886 7.7776 146.523 8.12521 147.022 8.62988C147.159 8.75658 147.267 8.91173 147.338 9.08447C147.408 9.25722 147.441 9.44338 147.432 9.62988L144.352 23.4799C144.212 24.0799 143.372 24.4799 142.352 24.4799Z" fill="#2D3943"/>
</g>
<path d="M153.57 2.22969C153.42 1.09969 153.92 0.10972 154.7 0.00971973L162.61 -1.05034C163.38 -1.15034 164.13 -0.330373 164.28 0.789627C164.43 1.90963 163.93 2.89972 163.15 3.00972L155.24 4.06966C154.47 4.16966 153.71 3.34969 153.57 2.22969Z" fill="#2D3943"/>
<g style="mix-blend-mode:screen">
<path d="M155.109 3.07983C154.824 2.83979 154.638 2.5019 154.588 2.13208C154.538 1.76226 154.627 1.38705 154.839 1.07983L162.749 0.0197754C162.909 0.132254 163.04 0.282248 163.128 0.456543C163.217 0.630838 163.262 0.824145 163.259 1.01978C163.306 1.20355 163.307 1.39593 163.264 1.58044C163.22 1.76496 163.133 1.93623 163.009 2.07983L155.109 3.07983Z" fill="#2D3943"/>
</g>
<path d="M7.81028 74.6299C8.16028 75.6299 7.87023 76.7199 7.14023 76.9599L-0.219752 79.4599C-0.939752 79.7099 -1.80976 79.0499 -2.16976 78.0099C-2.52976 76.9699 -2.21972 75.9198 -1.49972 75.6798L5.86027 73.1798C6.58027 72.9398 7.47028 73.5899 7.81028 74.6299Z" fill="#2D3943"/>
<g style="mix-blend-mode:screen">
<path d="M-0.530273 78.4799C-0.640273 78.4799 -1.00025 78.2298 -1.19025 77.6798C-1.26553 77.5239 -1.30469 77.353 -1.30469 77.1798C-1.30469 77.0067 -1.26553 76.8357 -1.19025 76.6798L6.15973 74.1898C6.32029 74.2671 6.46179 74.3789 6.57416 74.5172C6.68652 74.6555 6.767 74.8169 6.80975 74.9899C6.88575 75.1456 6.92523 75.3166 6.92523 75.4899C6.92523 75.6631 6.88575 75.8341 6.80975 75.9899L-0.530273 78.4799Z" fill="#2D3943"/>
</g>
</g>
<path d="M115.632 90.3699C137.187 90.3699 154.661 72.8955 154.661 51.3398C154.661 29.7842 137.187 12.3098 115.632 12.3098C94.0759 12.3098 76.6016 29.7842 76.6016 51.3398C76.6016 72.8955 94.0759 90.3699 115.632 90.3699Z" fill="#43B309" stroke="#485359" stroke-miterlimit="10"/>
<path d="M134.922 27.1299C134.922 27.1299 132.302 26.1299 132.312 27.4799C132.322 28.8299 133.182 29.7798 132.692 30.3198C132.459 30.6162 132.353 30.9926 132.396 31.3672C132.439 31.7418 132.628 32.0841 132.922 32.3198C133.502 32.8898 133.922 37.4999 132.712 39.7499C131.502 41.9999 130.512 46.2398 129.042 49.1598C127.572 52.0798 124.322 59.1599 113.332 61.8599C102.342 64.5599 98.6324 60.7999 91.0024 62.1199C90.7136 62.0726 90.4179 62.0894 90.1363 62.1688C89.8546 62.2483 89.5938 62.3886 89.3724 62.5798C88.6324 63.2198 87.5123 64.3798 88.0523 65.4198C88.5923 66.4598 92.4823 73.4198 103.742 75.8198C109.661 77.0288 115.792 76.6742 121.532 74.7908C127.271 72.9074 132.421 69.5604 136.472 65.0798C144.802 55.6198 145.352 43.9498 139.392 37.1598C138.163 36.3001 137.324 34.9873 137.062 33.5099C136.852 32.7782 136.834 32.0048 137.009 31.264C137.184 30.5233 137.547 29.84 138.062 29.2798C138.932 27.9398 137.972 25.5198 136.472 26.2798L134.922 27.1299Z" fill="#455866"/>
<path d="M137.053 33.5298C137.222 34.5407 137.672 35.4835 138.353 36.2499C137.641 36.4568 136.916 36.6171 136.183 36.7299C134.853 37.3199 135.313 39.0699 134.063 38.6199C133.883 38.5499 133.653 36.6199 133.473 36.6199C133.603 34.6199 133.293 32.6898 132.923 32.3298C132.628 32.0941 132.439 31.7518 132.396 31.3772C132.353 31.0026 132.46 30.6262 132.693 30.3298C133.183 29.7898 132.333 28.8299 132.313 27.4899C132.293 26.1499 134.923 27.1399 134.923 27.1399L136.433 26.3499C137.933 25.5499 138.893 27.9699 138.023 29.3499C137.521 29.9079 137.169 30.5838 136.999 31.3148C136.83 32.0458 136.848 32.8078 137.053 33.5298Z" fill="#506B80"/>
<path d="M135.52 29.8899C134.42 30.2699 134.59 28.3998 133.52 28.5798C133.273 28.5981 133.025 28.5435 132.809 28.4226C132.592 28.3018 132.415 28.12 132.3 27.8998C132.291 27.76 132.291 27.6197 132.3 27.4799C132.3 26.1299 134.91 27.1299 134.91 27.1299L136.42 26.3398C136.645 26.1987 136.915 26.1472 137.176 26.1953C137.437 26.2435 137.671 26.3878 137.83 26.5999C137.909 26.922 137.858 27.2622 137.688 27.5468C137.517 27.8313 137.242 28.0373 136.92 28.1199C135.97 28.5299 136.03 29.7099 135.52 29.8899Z" fill="black"/>
<g style="mix-blend-mode:multiply" opacity="0.49">
<path d="M89.6227 64.2499C92.6004 66.2868 95.8854 67.833 99.3526 68.8298C107.203 70.9098 117.283 68.2499 124.033 64.0999C130.143 60.3399 132.623 55.0998 134.833 48.2098C136.008 44.884 136.414 41.3353 136.023 37.8298C135.943 36.9498 136.493 36.2999 136.393 35.4799C136.193 33.9199 135.323 32.4799 135.553 31.3899C136.113 28.8299 132.893 27.4799 134.553 26.9999L134.953 27.1299L136.463 26.3398C137.963 25.5398 138.923 27.9598 138.053 29.3398C137.537 29.9001 137.175 30.5833 137 31.3241C136.824 32.0648 136.843 32.8382 137.053 33.5698C137.315 35.0472 138.153 36.3601 139.383 37.2198C145.383 44.0098 144.793 55.6799 136.463 65.1399C132.408 69.6117 127.258 72.9501 121.521 74.8263C115.783 76.7025 109.656 77.0518 103.743 75.8398C92.4827 73.4498 88.5927 66.4798 88.0527 65.4398C87.9294 65.1111 87.9045 64.7536 87.9808 64.4109C88.0572 64.0682 88.2315 63.7552 88.4826 63.5099L89.6227 64.2499Z" fill="#1A1A1A"/>
</g>
<path d="M88.4723 66.0798C88.2623 65.7498 88.1323 65.4999 88.0523 65.3599C87.5123 64.3599 88.6324 63.1598 89.3724 62.5198C89.7346 62.21 90.1956 62.0398 90.6723 62.0398C90.3623 63.1898 90.7824 63.8799 90.5324 64.3499C90.1224 65.1599 89.4123 66.3398 88.4723 66.0798Z" fill="#2E3133"/>
<path d="M140.131 44.0798C140.243 44.7297 140.473 45.3534 140.811 45.9198C140.856 46.0544 140.935 46.175 141.041 46.2698C141.661 46.7198 141.901 45.4999 141.931 45.1099C142 44.507 141.923 43.8964 141.707 43.3292C141.491 42.7621 141.143 42.2548 140.691 41.8499C140.371 41.6199 139.821 41.5798 139.691 42.0698C139.67 42.2627 139.694 42.4579 139.761 42.6399C139.921 43.0799 140.011 43.5598 140.131 44.0798Z" fill="#455866"/>
<path d="M138.789 39.6199C138.887 39.8202 138.997 40.0139 139.119 40.1999C139.309 40.4899 139.489 40.8499 139.879 40.5899C140.269 40.3299 140.179 39.4799 139.959 39.0599C139.739 38.6399 139.159 38.0599 138.729 38.4799C138.299 38.8999 138.639 39.2999 138.789 39.6199Z" fill="#455866"/>
<path d="M132.65 63.0798C133.65 61.2898 135.1 59.7999 136.11 57.9899C137.113 56.1835 137.93 54.2805 138.55 52.3098C138.72 51.7698 139.63 52.0198 139.55 52.5798C139.133 54.7472 138.395 56.8402 137.36 58.7898C136.41 60.5398 135.23 62.6198 133.57 63.7898C133.11 64.0798 132.35 63.6098 132.65 63.0798Z" fill="#455866"/>
<path d="M141.131 48.1998C141.172 48.0792 141.202 47.9555 141.221 47.8298C141.231 47.6866 141.231 47.5429 141.221 47.3997C141.221 47.1297 141.401 46.9698 141.571 47.1298C141.991 47.5398 142.011 48.8498 141.431 48.8898C141.101 48.8998 141.051 48.4898 141.131 48.1998Z" fill="#455866"/>
<g style="mix-blend-mode:multiply" opacity="0.49">
<path d="M128.682 53.2897C128.693 53.1991 128.72 53.1111 128.762 53.0297C128.818 52.8272 128.906 52.6349 129.022 52.4598C129.124 52.2435 129.245 52.0361 129.382 51.8398C129.582 51.5998 130.112 51.6597 130.112 52.0397C130.114 52.3835 130.006 52.719 129.805 52.9976C129.604 53.2763 129.319 53.4837 128.992 53.5898C128.95 53.5963 128.908 53.5931 128.868 53.5805C128.828 53.5679 128.792 53.5462 128.762 53.5172C128.732 53.4881 128.709 53.4524 128.695 53.4129C128.681 53.3735 128.677 53.3312 128.682 53.2897Z" fill="#1A1A1A"/>
</g>
<g style="mix-blend-mode:multiply" opacity="0.49">
<path d="M133.221 40.8198C133.246 40.7354 133.3 40.6624 133.373 40.6131C133.446 40.5639 133.533 40.5415 133.621 40.5498C133.704 40.5526 133.784 40.5733 133.858 40.6105C133.932 40.6476 133.997 40.7003 134.048 40.765C134.1 40.8297 134.136 40.9047 134.156 40.985C134.175 41.0652 134.177 41.1488 134.161 41.2298C134.146 41.3213 134.099 41.4045 134.029 41.4646C133.958 41.5246 133.869 41.5576 133.776 41.5576C133.683 41.5576 133.594 41.5246 133.523 41.4646C133.453 41.4045 133.406 41.3213 133.391 41.2298C133.323 41.1879 133.27 41.1258 133.24 41.0522C133.209 40.9787 133.203 40.8973 133.221 40.8198Z" fill="#1A1A1A"/>
<path d="M133.781 43.2798C133.805 43.2047 133.846 43.1363 133.901 43.0798C134.002 42.9421 134.083 42.7906 134.141 42.6299C134.155 42.5485 134.197 42.4745 134.26 42.4213C134.323 42.368 134.403 42.3387 134.486 42.3387C134.568 42.3387 134.648 42.368 134.712 42.4213C134.775 42.4745 134.817 42.5485 134.831 42.6299C134.856 42.7608 134.855 42.8955 134.828 43.026C134.8 43.1565 134.747 43.2803 134.671 43.3899C134.59 43.5055 134.476 43.5927 134.343 43.6394C134.21 43.6861 134.066 43.6897 133.931 43.6498C133.896 43.6356 133.865 43.6147 133.839 43.5884C133.813 43.562 133.792 43.5307 133.778 43.4962C133.764 43.4618 133.757 43.425 133.758 43.3878C133.758 43.3507 133.766 43.3139 133.781 43.2798Z" fill="#1A1A1A"/>
<path d="M132.473 42.7798C132.473 42.4498 133.142 41.9899 133.182 42.3899C133.197 42.4591 133.197 42.5306 133.182 42.5998C133.148 42.72 133.091 42.8322 133.013 42.9298C132.971 42.977 132.917 43.0121 132.858 43.0315C132.798 43.0508 132.734 43.0537 132.672 43.0398C132.642 43.0375 132.612 43.0287 132.584 43.014C132.557 42.9993 132.533 42.9791 132.514 42.9546C132.496 42.93 132.482 42.9018 132.475 42.8717C132.468 42.8416 132.467 42.8102 132.473 42.7798Z" fill="#1A1A1A"/>
</g>
<path d="M99.6501 64.2998C99.6634 64.1973 99.6444 64.0933 99.5961 64.002C99.5477 63.9107 99.4723 63.8365 99.3801 63.7898C98.8601 63.4598 94.56 62.5199 94.67 63.7099C94.7291 63.9558 94.8792 64.1702 95.0901 64.3098C95.6724 64.7589 96.3617 65.0484 97.0901 65.1498C97.8548 65.3056 98.6501 65.1701 99.3201 64.7698C99.4858 64.6608 99.6039 64.4928 99.6501 64.2998Z" fill="#37434D"/>
<path d="M101.102 64.7698C101.118 64.6467 101.166 64.5301 101.241 64.4317C101.317 64.3333 101.417 64.2567 101.532 64.2099C101.749 64.1328 101.985 64.1328 102.202 64.2099C102.313 64.2577 102.41 64.3334 102.483 64.4297C102.556 64.5261 102.603 64.6397 102.619 64.7596C102.635 64.8794 102.62 65.0014 102.575 65.1136C102.53 65.2258 102.457 65.3244 102.362 65.3998C102.172 65.5298 101.942 65.5899 101.712 65.5699C101.588 65.5563 101.471 65.5091 101.372 65.4333C101.273 65.3574 101.197 65.256 101.152 65.1399C101.115 65.0202 101.098 64.8951 101.102 64.7698Z" fill="#37434D"/>
<path d="M116.313 62.8499C117.579 62.34 118.815 61.7556 120.013 61.0999C120.293 60.9099 120.623 61.3299 120.333 61.5099C119.169 62.3676 117.819 62.9365 116.393 63.1699C116.355 63.1699 116.318 63.1572 116.288 63.1338C116.258 63.1105 116.237 63.0778 116.228 63.0411C116.219 63.0043 116.222 62.9655 116.237 62.9308C116.253 62.8962 116.279 62.8677 116.313 62.8499Z" fill="#37434D"/>
</g>
</svg>
